<svg width="357" height="357" viewBox="0 0 357 357" fill="none" xmlns="http://www.w3.org/2000/svg">
<path d="M322.598 152.983C320.167 140.016 307.412 131.427 294.124 133.796L233.088 144.705L268.887 95.2424C276.678 84.4733 274.053 69.5744 263.017 61.9737C251.98 54.3731 236.707 56.9322 228.916 67.7013L181.771 132.84L151.166 66.6677C146.161 55.8399 133.107 51.0241 122.02 55.9076C111.167 61.1974 106.374 74.3632 111.365 85.1503L146.087 160.263L54.0677 176.706C40.7793 179.084 31.9756 191.524 34.4022 204.486C36.8425 217.453 49.5876 226.043 62.876 223.673L123.921 212.764L88.122 262.227C80.3313 272.996 82.9559 287.895 93.9927 295.496C105.029 303.096 120.302 300.537 128.093 289.768L175.597 224.147L206.189 290.332C211.194 301.16 224.247 305.976 235.335 301.092C246.431 296.209 251.372 283.476 246.367 272.653L211.456 197.134L302.932 180.786C316.221 178.407 325.024 165.973 322.598 153.006V152.988V152.983Z" fill="#333230"/>
</svg>
