<svg width="180" height="54" viewBox="0 0 180 54" fill="none" xmlns="http://www.w3.org/2000/svg">
<path d="M173.333 53.3333H6.66667C3 53.3333 0 50.3333 0 46.6667V6.66667C0 3 3 1.14441e-06 6.66667 1.14441e-06H173.333C177 1.14441e-06 180 3 180 6.66667V46.6667C180 50.3333 177 53.3333 173.333 53.3333Z" fill="#100F0D"/>
<path d="M173.333 0.00053215H6.66667C3 0.00053215 0 3.00053 0 6.6672V46.6672C0 50.3339 3 53.3339 6.66667 53.3339H173.333C177 53.3339 180 50.3339 180 46.6672V6.6672C180 3.00053 177 0.00053215 173.333 0.00053215ZM173.333 1.06667C176.421 1.06667 178.933 3.5792 178.933 6.6672V46.6672C178.933 49.7552 176.421 52.2677 173.333 52.2677H6.66667C3.57864 52.2677 1.06667 49.7552 1.06667 46.6672V6.6672C1.06667 3.5792 3.57864 1.06667 6.66667 1.06667H173.333Z" fill="#A2A2A1"/>
<path d="M142.581 40.0005H145.069V23.3317H142.581V40.0005ZM164.991 29.3365L162.139 36.5631H162.053L159.093 29.3365H156.413L160.852 39.4365L158.321 45.0552H160.916L167.757 29.3365H164.991ZM150.88 38.1073C150.065 38.1073 148.929 37.6995 148.929 36.6917C148.929 35.4052 150.344 34.912 151.567 34.912C152.66 34.912 153.175 35.1479 153.84 35.4693C153.647 37.0136 152.317 38.1073 150.88 38.1073ZM151.181 28.9719C149.38 28.9719 147.513 29.7651 146.741 31.524L148.951 32.4459C149.423 31.524 150.301 31.2235 151.224 31.2235C152.511 31.2235 153.819 31.9953 153.84 33.3677V33.5396C153.389 33.2823 152.424 32.8964 151.245 32.8964C148.865 32.8964 146.441 34.2041 146.441 36.6489C146.441 38.8792 148.393 40.3156 150.58 40.3156C152.253 40.3156 153.175 39.5651 153.755 38.686H153.84V39.9729H156.241V33.5823C156.241 30.6229 154.033 28.9719 151.181 28.9719ZM135.805 31.3656H132.267V25.6521H135.805C137.665 25.6521 138.721 27.1921 138.721 28.5088C138.721 29.8005 137.665 31.3656 135.805 31.3656ZM135.741 23.3317H129.78V40.0005H132.267V33.6855H135.741C138.499 33.6855 141.209 31.6891 141.209 28.5088C141.209 25.3287 138.499 23.3317 135.741 23.3317ZM103.233 38.1104C101.515 38.1104 100.075 36.6708 100.075 34.6948C100.075 32.6975 101.515 31.2365 103.233 31.2365C104.93 31.2365 106.262 32.6975 106.262 34.6948C106.262 36.6708 104.93 38.1104 103.233 38.1104ZM106.09 30.2699H106.004C105.445 29.6041 104.371 29.0027 103.018 29.0027C100.183 29.0027 97.5839 31.4943 97.5839 34.6948C97.5839 37.874 100.183 40.3443 103.018 40.3443C104.371 40.3443 105.445 39.7427 106.004 39.0552H106.09V39.8719C106.09 42.0412 104.93 43.2011 103.061 43.2011C101.536 43.2011 100.591 42.1057 100.204 41.1818L98.0349 42.0844C98.6579 43.588 100.311 45.4354 103.061 45.4354C105.982 45.4354 108.453 43.7167 108.453 39.5281V29.3464H106.09V30.2699ZM110.171 40.0005H112.663V23.3317H110.171V40.0005ZM116.336 34.5016C116.272 32.3104 118.033 31.1937 119.301 31.1937C120.289 31.1937 121.127 31.6875 121.406 32.3964L116.336 34.5016ZM124.069 32.6109C123.597 31.3437 122.157 29.0027 119.215 29.0027C116.293 29.0027 113.866 31.3011 113.866 34.6735C113.866 37.8527 116.272 40.3443 119.494 40.3443C122.093 40.3443 123.597 38.7547 124.219 37.8312L122.286 36.5421C121.642 37.4875 120.761 38.1104 119.494 38.1104C118.227 38.1104 117.325 37.5303 116.744 36.3917L124.327 33.2557L124.069 32.6109ZM63.6584 30.7427V33.1484H69.4151C69.2432 34.5016 68.7921 35.4896 68.1047 36.1771C67.2672 37.0145 65.9568 37.9385 63.6584 37.9385C60.114 37.9385 57.3427 35.0812 57.3427 31.5369C57.3427 27.9927 60.114 25.136 63.6584 25.136C65.5697 25.136 66.9661 25.888 67.9973 26.8541L69.6943 25.1573C68.2552 23.7828 66.3432 22.7303 63.6584 22.7303C58.8036 22.7303 54.7219 26.6828 54.7219 31.5369C54.7219 36.3917 58.8036 40.3443 63.6584 40.3443C66.2787 40.3443 68.2552 39.4849 69.8016 37.874C71.3912 36.2844 71.8855 34.0505 71.8855 32.2464C71.8855 31.6875 71.8421 31.1719 71.7563 30.7427H63.6584ZM78.4297 38.1104C76.7115 38.1104 75.2292 36.6927 75.2292 34.6735C75.2292 32.6328 76.7115 31.2365 78.4297 31.2365C80.1484 31.2365 81.6303 32.6328 81.6303 34.6735C81.6303 36.6927 80.1484 38.1104 78.4297 38.1104ZM78.4297 29.0027C75.2937 29.0027 72.7375 31.3869 72.7375 34.6735C72.7375 37.9385 75.2937 40.3443 78.4297 40.3443C81.5661 40.3443 84.1224 37.9385 84.1224 34.6735C84.1224 31.3869 81.5661 29.0027 78.4297 29.0027ZM90.8479 38.1104C89.1292 38.1104 87.6469 36.6927 87.6469 34.6735C87.6469 32.6328 89.1292 31.2365 90.8479 31.2365C92.5661 31.2365 94.0484 32.6328 94.0484 34.6735C94.0484 36.6927 92.5661 38.1104 90.8479 38.1104ZM90.8479 29.0027C87.7115 29.0027 85.1552 31.3869 85.1552 34.6735C85.1552 37.9385 87.7115 40.3443 90.8479 40.3443C93.9839 40.3443 96.5401 37.9385 96.5401 34.6735C96.5401 31.3869 93.9839 29.0027 90.8479 29.0027Z" fill="white"/>
<path d="M27.6229 25.8989L13.4276 40.9656C13.4287 40.9688 13.4292 40.9719 13.4297 40.975C13.8651 42.6109 15.3593 43.8156 17.1328 43.8156C17.8417 43.8156 18.5073 43.624 19.0781 43.2875L19.1235 43.2604L35.1021 34.0412L27.6229 25.8989Z" fill="#EB3131"/>
<path d="M41.9844 23.3333L41.9703 23.3245L35.0724 19.3251L27.3005 26.2412L35.0995 34.0391L41.9615 30.0797C43.1645 29.4303 43.9812 28.162 43.9812 26.7C43.9812 25.2469 43.1755 23.986 41.9844 23.3333Z" fill="#F6B60B"/>
<path d="M13.4265 12.3699C13.3417 12.6849 13.2969 13.0151 13.2969 13.3568V39.9803C13.2969 40.3219 13.3412 40.6526 13.4276 40.9656L28.1115 26.2849L13.4265 12.3699Z" fill="#5778C5"/>
<path d="M27.7276 26.6683L35.0745 19.3229L19.114 10.0693C18.5344 9.72186 17.8573 9.52079 17.1328 9.52079C15.3593 9.52079 13.8631 10.7281 13.4276 12.3661C13.4271 12.3672 13.4271 12.3688 13.4265 12.3699L27.7276 26.6683Z" fill="#3BAD49"/>
<path d="M55.7109 17.5123H58.3672C59.2266 17.5123 59.9766 17.3404 60.6172 16.9966C61.2578 16.6373 61.7422 16.1529 62.0859 15.5123C62.4297 14.8873 62.6016 14.1685 62.6016 13.356C62.6016 12.5435 62.4297 11.8248 62.0859 11.1998C61.7422 10.5748 61.2578 10.0748 60.6172 9.731C59.9766 9.38725 59.2266 9.21538 58.3672 9.21538H55.7109V17.5123ZM56.9922 16.3091V10.4185H58.3359C59.2734 10.4185 60.0078 10.6685 60.5391 11.1998C61.0547 11.7154 61.3047 12.4498 61.3047 13.356C61.3047 14.2779 61.0547 14.9966 60.5391 15.5123C60.0078 16.0435 59.2734 16.3091 58.3359 16.3091H56.9922ZM64.3008 17.5123H65.582V9.21538H64.3008V17.5123ZM70.1133 17.6998C70.5664 17.6998 71.0195 17.606 71.4414 17.4341C71.8633 17.2623 72.2227 16.981 72.5039 16.606C72.7695 16.2466 72.9102 15.7935 72.9102 15.2466C72.9102 14.5904 72.707 14.0748 72.3164 13.6685C71.9414 13.2779 71.3789 12.9498 70.6758 12.7154L70.1445 12.5279C69.6445 12.356 69.2852 12.1841 69.0508 11.981C68.8164 11.7935 68.6914 11.5591 68.6914 11.2779C68.6914 10.9654 68.8164 10.6998 69.082 10.5123C69.3477 10.3091 69.6758 10.2154 70.0508 10.2154C70.4414 10.2154 70.7695 10.3091 71.0195 10.5123C71.2539 10.6998 71.4258 10.9498 71.5039 11.231L72.6445 10.7466C72.5039 10.2935 72.1914 9.90288 71.7695 9.5435C71.332 9.19975 70.7539 9.02788 70.0352 9.02788C69.5352 9.02788 69.082 9.13725 68.6914 9.32475C68.2852 9.52788 67.9883 9.80913 67.7695 10.1529C67.5508 10.4966 67.4258 10.8873 67.4258 11.2935C67.4258 11.8716 67.6133 12.356 68.0039 12.7154C68.3633 13.0748 68.832 13.356 69.3945 13.5591L69.9258 13.7466C70.5508 13.9654 70.9883 14.1841 71.2383 14.4029C71.5039 14.6373 71.6289 14.9341 71.6289 15.2779C71.6289 15.6529 71.4883 15.9498 71.1914 16.1685C70.9102 16.3873 70.5508 16.4966 70.1289 16.4966C69.6758 16.4966 69.3008 16.3404 68.9883 16.0591C68.6758 15.7623 68.457 15.3716 68.3164 14.9185L67.1133 15.4029C67.332 16.1373 67.7227 16.6841 68.2695 17.0904C68.8164 17.4966 69.4414 17.6998 70.1133 17.6998ZM74.5938 17.5123H75.875V14.2935H77.4531C77.9531 14.2935 78.3906 14.1841 78.8125 13.9654C79.2188 13.7466 79.5625 13.4498 79.7969 13.0591C80.0469 12.6841 80.1563 12.231 80.1563 11.7466C80.1563 11.2623 80.0469 10.8248 79.7969 10.4341C79.5625 10.0591 79.2188 9.76225 78.8125 9.5435C78.3906 9.30913 77.9531 9.21538 77.4531 9.21538H74.5938V17.5123ZM75.875 13.0904V10.4185H77.4844C77.9063 10.4185 78.25 10.5435 78.5156 10.8091C78.7656 11.0748 78.8906 11.3873 78.8906 11.7466C78.8906 12.106 78.7656 12.4185 78.5156 12.6841C78.25 12.9498 77.9063 13.0904 77.4844 13.0904H75.875ZM85.5586 17.6998C86.3555 17.6998 87.0898 17.4966 87.7461 17.1216C88.3867 16.731 88.9023 16.1998 89.293 15.5435C89.6523 14.8873 89.8398 14.1685 89.8398 13.356C89.8398 12.5591 89.6523 11.8248 89.293 11.1685C88.9023 10.5123 88.3867 9.981 87.7461 9.606C87.0898 9.21538 86.3555 9.02788 85.5586 9.02788C84.7461 9.02788 84.0273 9.21538 83.3555 9.606C82.6992 9.981 82.1836 10.5123 81.8242 11.1685C81.4336 11.8248 81.2461 12.5591 81.2461 13.356C81.2461 14.1685 81.4336 14.8873 81.8242 15.5435C82.1836 16.1998 82.6992 16.731 83.3555 17.1216C84.0273 17.4966 84.7461 17.6998 85.5586 17.6998ZM85.5586 16.4966C84.9961 16.4966 84.4805 16.356 84.0273 16.0904C83.5742 15.8248 83.2148 15.4498 82.9492 14.981C82.6836 14.4966 82.543 13.9654 82.543 13.356C82.543 12.7623 82.6836 12.2154 82.9492 11.731C83.2148 11.2623 83.5742 10.8873 84.0273 10.6216C84.4805 10.356 84.9961 10.231 85.5586 10.231C86.1055 10.231 86.6211 10.356 87.0898 10.6216C87.543 10.8873 87.9023 11.2623 88.168 11.731C88.4336 12.2154 88.5742 12.7623 88.5742 13.356C88.5742 13.9654 88.4336 14.4966 88.168 14.981C87.9023 15.4498 87.543 15.8248 87.0898 16.0904C86.6211 16.356 86.1055 16.4966 85.5586 16.4966ZM91.5313 17.5123H92.7969V12.6998L92.7344 11.106H92.7969L96.7344 17.5123H98.0625V9.21538H96.7969V13.7154L96.8594 15.3091H96.7969L93.0469 9.21538H91.5313V17.5123ZM100.191 17.5123H101.473V9.21538H100.191V17.5123ZM103.582 17.5123H106.832C107.301 17.5123 107.738 17.4029 108.145 17.2154C108.535 17.0123 108.848 16.7466 109.098 16.3873C109.316 16.0435 109.441 15.6373 109.441 15.1841C109.441 14.7154 109.316 14.3091 109.051 13.981C108.801 13.6373 108.457 13.4029 108.02 13.2466V13.1841C108.363 13.0279 108.645 12.7935 108.848 12.481C109.051 12.1841 109.145 11.8248 109.145 11.4185C109.145 11.0123 109.051 10.6216 108.816 10.2935C108.598 9.94975 108.301 9.69975 107.926 9.49663C107.535 9.30913 107.129 9.21538 106.691 9.21538H103.582V17.5123ZM104.863 12.6998V10.3873H106.676C107.035 10.3873 107.348 10.4966 107.566 10.7154C107.785 10.9498 107.91 11.2154 107.91 11.5279C107.91 11.8404 107.785 12.106 107.566 12.3404C107.332 12.5904 107.02 12.6998 106.629 12.6998H104.863ZM104.863 16.3248V13.8404H106.785C107.207 13.8404 107.535 13.9654 107.785 14.2154C108.035 14.4498 108.16 14.7466 108.16 15.0904C108.16 15.4185 108.051 15.7154 107.801 15.9654C107.566 16.1998 107.238 16.3248 106.832 16.3248H104.863ZM111.133 17.5123H115.977V16.3091H112.414V9.21538H111.133V17.5123ZM117.336 17.5123H122.367V16.3091H118.617V13.9654H121.992V12.7623H118.617V10.4185H122.367V9.21538H117.336V17.5123ZM129.078 17.6998C129.531 17.6998 129.984 17.606 130.406 17.4341C130.828 17.2623 131.188 16.981 131.469 16.606C131.734 16.2466 131.875 15.7935 131.875 15.2466C131.875 14.5904 131.672 14.0748 131.281 13.6685C130.906 13.2779 130.344 12.9498 129.641 12.7154L129.109 12.5279C128.609 12.356 128.25 12.1841 128.016 11.981C127.781 11.7935 127.656 11.5591 127.656 11.2779C127.656 10.9654 127.781 10.6998 128.047 10.5123C128.313 10.3091 128.641 10.2154 129.016 10.2154C129.406 10.2154 129.734 10.3091 129.984 10.5123C130.219 10.6998 130.391 10.9498 130.469 11.231L131.609 10.7466C131.469 10.2935 131.156 9.90288 130.734 9.5435C130.297 9.19975 129.719 9.02788 129 9.02788C128.5 9.02788 128.047 9.13725 127.656 9.32475C127.25 9.52788 126.953 9.80913 126.734 10.1529C126.516 10.4966 126.391 10.8873 126.391 11.2935C126.391 11.8716 126.578 12.356 126.969 12.7154C127.328 13.0748 127.797 13.356 128.359 13.5591L128.891 13.7466C129.516 13.9654 129.953 14.1841 130.203 14.4029C130.469 14.6373 130.594 14.9341 130.594 15.2779C130.594 15.6529 130.453 15.9498 130.156 16.1685C129.875 16.3873 129.516 16.4966 129.094 16.4966C128.641 16.4966 128.266 16.3404 127.953 16.0591C127.641 15.7623 127.422 15.3716 127.281 14.9185L126.078 15.4029C126.297 16.1373 126.688 16.6841 127.234 17.0904C127.781 17.4966 128.406 17.6998 129.078 17.6998ZM136.504 17.6998C137.145 17.6998 137.707 17.5591 138.176 17.2623C138.66 16.9966 139.02 16.5904 139.27 16.0904C139.52 15.5748 139.645 14.981 139.645 14.3248V9.21538H138.395V14.3873C138.395 15.0123 138.223 15.5279 137.895 15.9185C137.582 16.2935 137.113 16.4966 136.504 16.4966C135.91 16.4966 135.457 16.2935 135.129 15.9185C134.801 15.5279 134.645 15.0123 134.645 14.3873V9.21538H133.379V14.3248C133.379 14.9966 133.504 15.5904 133.77 16.0904C134.035 16.606 134.395 16.9966 134.879 17.2779C135.348 17.5591 135.895 17.6998 136.504 17.6998ZM141.664 17.5123H142.945V14.2466H143.945L146.164 17.5123H147.633V17.4498L145.352 14.1529L145.367 14.0904C145.914 13.9341 146.367 13.6529 146.727 13.2154C147.086 12.7935 147.258 12.3091 147.258 11.7466C147.258 11.2623 147.133 10.8248 146.898 10.4341C146.664 10.0591 146.352 9.76225 145.945 9.5435C145.539 9.30913 145.07 9.21538 144.57 9.21538H141.664V17.5123ZM142.945 13.0904V10.4029H144.586C145.008 10.4029 145.336 10.5279 145.602 10.7935C145.836 11.0591 145.961 11.3716 145.961 11.731C145.961 12.1216 145.82 12.4498 145.555 12.6998C145.289 12.9498 144.945 13.0904 144.539 13.0904H142.945Z" fill="white"/>
</svg>
