<svg width="180" height="54" viewBox="0 0 180 54" fill="none" xmlns="http://www.w3.org/2000/svg">
<path d="M173.333 53.3333H6.66667C3 53.3333 4.76837e-06 50.3333 4.76837e-06 46.6667V6.66666C4.76837e-06 3 3 -1.90735e-06 6.66667 -1.90735e-06H173.333C177 -1.90735e-06 180 3 180 6.66666V46.6667C180 50.3333 177 53.3333 173.333 53.3333Z" fill="#100F0D"/>
<path d="M173.333 -1.90735e-06H6.66667C3 -1.90735e-06 4.76837e-06 3 4.76837e-06 6.66666V46.6667C4.76837e-06 50.3333 3 53.3333 6.66667 53.3333H173.333C177 53.3333 180 50.3333 180 46.6667V6.66666C180 3 177 -1.90735e-06 173.333 -1.90735e-06ZM173.333 1.06666C176.421 1.06666 178.933 3.57866 178.933 6.66666V46.6667C178.933 49.7547 176.421 52.2672 173.333 52.2672H6.66667C3.57867 52.2672 1.06667 49.7547 1.06667 46.6667V6.66666C1.06667 3.57866 3.57867 1.06666 6.66667 1.06666H173.333Z" fill="#A2A2A1"/>
<path d="M63.2245 13.6579C63.2245 14.7749 62.8937 15.6645 62.2312 16.3281C61.4787 17.1172 60.4979 17.512 59.2921 17.512C58.1375 17.512 57.1557 17.112 56.3484 16.3109C55.5396 15.5104 55.136 14.5177 55.136 13.3333C55.136 12.1484 55.5396 11.1563 56.3484 10.3552C57.1557 9.55468 58.1375 9.15414 59.2921 9.15414C59.8651 9.15414 60.4136 9.26614 60.9344 9.48961C61.4552 9.71361 61.8729 10.0109 62.1855 10.3833L61.4823 11.0869C60.9527 10.4541 60.2235 10.138 59.2921 10.138C58.45 10.138 57.7219 10.4339 57.1073 11.026C56.4927 11.6188 56.1855 12.3875 56.1855 13.3333C56.1855 14.2792 56.4927 15.0479 57.1073 15.6407C57.7219 16.2328 58.45 16.5287 59.2921 16.5287C60.1855 16.5287 60.9303 16.2312 61.5265 15.6355C61.9136 15.2473 62.1375 14.7079 62.1973 14.0151H59.2921V13.0541H63.1688C63.2063 13.2631 63.2245 13.4636 63.2245 13.6579Z" fill="white"/>
<path d="M63.2245 13.6579H63.0912C63.0901 14.7495 62.7713 15.5973 62.1369 16.2339L62.136 16.2349L62.1344 16.236C61.4063 16.9979 60.4693 17.3771 59.2921 17.3787C58.1683 17.3771 57.2276 16.9937 56.4421 16.2167C55.6584 15.438 55.2708 14.4875 55.2693 13.3333C55.2708 12.1787 55.6584 11.2287 56.4421 10.45C57.2276 9.67294 58.1683 9.28907 59.2921 9.28747C59.8479 9.28747 60.3771 9.39587 60.8817 9.61201C61.3869 9.82974 61.786 10.1151 62.0833 10.4693L62.1855 10.3833L62.0912 10.2891L61.388 10.9927L61.4823 11.0869L61.5849 11.0016C61.0307 10.3369 60.2527 10.0027 59.2921 10.0047C58.4188 10.0036 57.6505 10.3156 57.0151 10.9303C56.3735 11.5469 56.0511 12.3588 56.0521 13.3333C56.0511 14.3079 56.3735 15.1197 57.0151 15.7364C57.6505 16.3511 58.4188 16.6631 59.2921 16.662C60.2151 16.6636 61.0016 16.35 61.6208 15.7297C62.0344 15.3151 62.2688 14.7407 62.3303 14.0265L62.3427 13.8817H59.4255V13.1875H63.1688V13.0541L63.0375 13.0776C63.074 13.2797 63.0912 13.4719 63.0912 13.6579H63.2245H63.3579C63.3579 13.4552 63.3391 13.2469 63.3 13.0303L63.2803 12.9208H59.1588V14.0151V14.1484H62.1973V14.0151L62.0645 14.0036C62.0057 14.6745 61.7927 15.1792 61.4323 15.5412C60.8593 16.112 60.1563 16.3937 59.2921 16.3953C58.4812 16.3943 57.7932 16.1151 57.2 15.5448C56.6125 14.9765 56.3203 14.2511 56.3188 13.3333C56.3203 12.4156 56.6125 11.6901 57.2 11.1219C57.7932 10.5516 58.4812 10.2724 59.2921 10.2713C60.1937 10.2735 60.8745 10.5713 61.3803 11.1729L61.474 11.2844L62.2797 10.4776L62.3661 10.3912L62.2875 10.2979C61.9599 9.90734 61.5235 9.59734 60.9869 9.36721C60.4495 9.13641 59.8823 9.02081 59.2921 9.02081C58.1068 9.01974 57.0839 9.43641 56.2541 10.2609C55.4213 11.0839 55.0016 12.1183 55.0027 13.3333C55.0016 14.5479 55.4213 15.5828 56.2541 16.4057C57.0839 17.2303 58.1068 17.6464 59.2921 17.6453C60.5265 17.6464 61.5511 17.2364 62.3276 16.4203L62.2312 16.3281L62.3255 16.4224C63.0161 15.7323 63.3593 14.8 63.3579 13.6579H63.2245Z" fill="white"/>
<path d="M69.3703 10.3161H65.7271V12.8527H69.0125V13.814H65.7271V16.3505H69.3703V17.3333H64.7V9.33334H69.3703V10.3161Z" fill="white"/>
<path d="M69.3703 10.3161V10.1828H65.5937V12.986H68.8792V13.6807H65.5937V16.4839H69.2369V17.2H64.8333V9.46668H69.2369V10.3161H69.3703H69.5036V9.33334V9.20001H64.5667V17.4667H69.5036V16.3505V16.2172H65.8604V13.9473H69.1459V12.8527V12.7193H65.8604V10.4495H69.5036V10.3161H69.3703Z" fill="white"/>
<path d="M73.7052 17.3333H72.6765V10.3161H70.4421V9.33334H75.9396V10.3161H73.7052V17.3333Z" fill="white"/>
<path d="M73.7052 17.3333V17.2H72.8099V10.1828H70.5755V9.46668H75.8063V10.1828H73.5719V17.3333H73.7052H73.8385V10.4495H76.0729V9.33334V9.20001H70.3088V10.3161V10.4495H72.5432V17.4667H73.7052H73.8385V17.3333H73.7052Z" fill="white"/>
<path d="M79.9172 17.3333V9.33334H80.9448V17.3333H79.9172Z" fill="white"/>
<path d="M79.9172 17.3333H80.0505V9.46668H80.8115V17.2H79.9172V17.3333V17.4667H80.9448H81.0781V9.20001H79.9172H79.7839V17.4667H79.9172V17.3333Z" fill="white"/>
<path d="M85.5047 17.3333H84.476V10.3161H82.2417V9.33334H87.7391V10.3161H85.5047V17.3333Z" fill="white"/>
<path d="M85.5047 17.3333V17.2H84.6093V10.1828H82.3751V9.46668H87.6057V10.1828H85.3713V17.3333H85.5047H85.638V10.4495H87.8724V9.33334V9.20001H82.1084V10.3161V10.4495H84.3427V17.4667H85.5047H85.638V17.3333H85.5047Z" fill="white"/>
<path d="M93.0391 15.6297C93.6312 16.2292 94.3557 16.5287 95.2125 16.5287C96.0693 16.5287 96.7943 16.2292 97.3855 15.6297C97.9781 15.0303 98.2751 14.264 98.2751 13.3333C98.2751 12.4027 97.9781 11.6364 97.3855 11.0369C96.7943 10.4375 96.0693 10.138 95.2125 10.138C94.3557 10.138 93.6312 10.4375 93.0391 11.0369C92.4479 11.6364 92.1511 12.4027 92.1511 13.3333C92.1511 14.264 92.4479 15.0303 93.0391 15.6297ZM98.1459 16.2995C97.3593 17.1083 96.3812 17.512 95.2125 17.512C94.0427 17.512 93.0651 17.1083 92.2803 16.2995C91.4932 15.4916 91.1016 14.5027 91.1016 13.3333C91.1016 12.164 91.4932 11.1749 92.2803 10.3672C93.0651 9.55828 94.0427 9.15414 95.2125 9.15414C96.3751 9.15414 97.3505 9.56041 98.1407 10.3724C98.9297 11.1844 99.3245 12.1713 99.3245 13.3333C99.3245 14.5027 98.9307 15.4916 98.1459 16.2995Z" fill="white"/>
<path d="M93.0391 15.6297L92.9443 15.7235C93.5584 16.3469 94.3245 16.6636 95.2125 16.662C96.1 16.6636 96.8672 16.3469 97.4803 15.7235C98.0984 15.0995 98.4093 14.2921 98.4084 13.3333C98.4093 12.3745 98.0984 11.5672 97.4803 10.9432C96.8672 10.3197 96.1 10.0031 95.2125 10.0047C94.3245 10.0031 93.5584 10.3197 92.9443 10.9432C92.3276 11.5672 92.0167 12.3745 92.0177 13.3333C92.0167 14.2921 92.3276 15.0995 92.9443 15.7235L93.0391 15.6297L93.1339 15.536C92.5683 14.9604 92.2855 14.2364 92.2844 13.3333C92.2855 12.4303 92.5683 11.7063 93.1339 11.1307C93.7047 10.5552 94.3864 10.2729 95.2125 10.2713C96.038 10.2729 96.7213 10.5552 97.2907 11.1307C97.8573 11.7063 98.1401 12.4303 98.1417 13.3333C98.1401 14.2364 97.8573 14.9604 97.2907 15.536C96.7213 16.1115 96.038 16.3937 95.2125 16.3953C94.3864 16.3937 93.7047 16.1115 93.1339 15.536L93.0391 15.6297ZM98.1459 16.2995L98.0505 16.2068C97.286 16.9901 96.3511 17.3771 95.2125 17.3787C94.0735 17.3771 93.1385 16.9901 92.3755 16.2068V16.2063C91.6125 15.4208 91.236 14.4729 91.2349 13.3333C91.236 12.1937 91.6125 11.2459 92.3755 10.4604V10.4599C93.1385 9.67654 94.0735 9.28907 95.2125 9.28747C96.3437 9.28907 97.2765 9.67814 98.0453 10.4656C98.8109 11.2552 99.1896 12.2016 99.1912 13.3333C99.1896 14.4729 98.812 15.4208 98.0505 16.2068L98.1459 16.2995L98.2417 16.3921C99.05 15.562 99.4588 14.5323 99.4579 13.3333C99.4588 12.1412 99.0484 11.1136 98.2364 10.2797C97.424 9.44267 96.4063 9.01934 95.2125 9.02081C94.0125 9.01934 92.9917 9.44067 92.1844 10.2745V10.274C91.3745 11.1047 90.9672 12.1344 90.9683 13.3333C90.9672 14.5323 91.3745 15.562 92.1844 16.3927L92.1875 16.3959L92.1844 16.3921C92.9917 17.226 94.0125 17.6464 95.2125 17.6453C96.412 17.6464 97.4323 17.226 98.2417 16.3921L98.1459 16.2995Z" fill="white"/>
<path d="M100.767 17.3333V9.33334H102.018L105.906 15.5568H105.951L105.906 14.0151V9.33334H106.935V17.3333H105.862L101.794 10.8083H101.75L101.794 12.3505V17.3333H100.767Z" fill="white"/>
<path d="M100.767 17.3333H100.901V9.46668H101.944L105.832 15.6901H105.951H106.087L106.04 14.0131V9.46668H106.802V17.2H105.936L101.868 10.6749H101.75H101.613L101.661 12.3521V17.2H100.767V17.3333V17.4667H101.794H101.928V12.3484L101.883 10.8047L101.75 10.8083V10.9416H101.794V10.8083L101.681 10.8792L105.788 17.4667H106.935H107.068V9.20001H105.906H105.773V14.0167L105.817 15.5604L105.951 15.5568V15.4235H105.906V15.5568L106.019 15.486L102.092 9.20001H100.767H100.634V17.4667H100.767V17.3333Z" fill="white"/>
<path d="M142.581 40H145.069V23.3317H142.581V40ZM164.991 29.336L162.139 36.5625H162.053L159.093 29.336H156.413L160.852 39.4364L158.323 45.0547H160.917L167.757 29.336H164.991ZM150.881 38.1068C150.065 38.1068 148.929 37.6995 148.929 36.6912C148.929 35.4047 150.344 34.9115 151.567 34.9115C152.66 34.9115 153.176 35.1473 153.84 35.4693C153.647 37.0131 152.317 38.1068 150.881 38.1068ZM151.181 28.9713C149.38 28.9713 147.513 29.7651 146.741 31.5235L148.951 32.4453C149.423 31.5235 150.301 31.2229 151.224 31.2229C152.511 31.2229 153.819 31.9953 153.84 33.3677V33.5391C153.389 33.2817 152.425 32.8959 151.245 32.8959C148.865 32.8959 146.441 34.2036 146.441 36.6484C146.441 38.8787 148.393 40.3156 150.58 40.3156C152.253 40.3156 153.176 39.5651 153.755 38.686H153.84V39.9724H156.241V33.5817C156.241 30.6229 154.033 28.9713 151.181 28.9713ZM135.805 31.3651H132.267V25.6516H135.805C137.665 25.6516 138.721 27.1916 138.721 28.5083C138.721 29.8 137.665 31.3651 135.805 31.3651ZM135.741 23.3317H129.78V40H132.267V33.6849H135.741C138.499 33.6849 141.209 31.6885 141.209 28.5083C141.209 25.3281 138.499 23.3317 135.741 23.3317ZM103.233 38.1099C101.515 38.1099 100.075 36.6708 100.075 34.6943C100.075 32.6969 101.515 31.236 103.233 31.236C104.93 31.236 106.262 32.6969 106.262 34.6943C106.262 36.6708 104.93 38.1099 103.233 38.1099ZM106.09 30.2693H106.004C105.446 29.6036 104.371 29.0021 103.018 29.0021C100.183 29.0021 97.5839 31.4937 97.5839 34.6943C97.5839 37.8735 100.183 40.3437 103.018 40.3437C104.371 40.3437 105.446 39.7421 106.004 39.0552H106.09V39.8713C106.09 42.0412 104.93 43.2011 103.061 43.2011C101.536 43.2011 100.591 42.1052 100.204 41.1817L98.0349 42.0839C98.6579 43.5875 100.312 45.4349 103.061 45.4349C105.983 45.4349 108.453 43.7161 108.453 39.5276V29.3459H106.09V30.2693ZM110.171 40H112.663V23.3312H110.171V40ZM116.336 34.5011C116.272 32.3099 118.033 31.1932 119.301 31.1932C120.289 31.1932 121.127 31.6869 121.405 32.3964L116.336 34.5011ZM124.069 32.6109C123.597 31.3432 122.157 29.0021 119.215 29.0021C116.293 29.0021 113.866 31.3005 113.866 34.6729C113.866 37.8521 116.272 40.3437 119.494 40.3437C122.093 40.3437 123.597 38.7541 124.22 37.8307L122.287 36.5416C121.641 37.4869 120.761 38.1099 119.494 38.1099C118.227 38.1099 117.325 37.5297 116.744 36.3916L124.327 33.2552L124.069 32.6109ZM63.6584 30.7421V33.1479H69.4151C69.2432 34.5011 68.7921 35.4891 68.1047 36.1765C67.2672 37.0145 65.9568 37.938 63.6584 37.938C60.114 37.938 57.3432 35.0812 57.3432 31.5369C57.3432 27.9927 60.114 25.1355 63.6584 25.1355C65.5703 25.1355 66.9661 25.8875 67.9973 26.8541L69.6943 25.1573C68.2552 23.7823 66.3432 22.7297 63.6584 22.7297C58.8036 22.7297 54.7224 26.6823 54.7224 31.5369C54.7224 36.3916 58.8036 40.3437 63.6584 40.3437C66.2792 40.3437 68.2552 39.4849 69.8016 37.8735C71.3912 36.2839 71.8855 34.05 71.8855 32.2459C71.8855 31.6869 71.8427 31.1719 71.7563 30.7421H63.6584ZM78.4303 38.1099C76.7115 38.1099 75.2292 36.6921 75.2292 34.6729C75.2292 32.6323 76.7115 31.236 78.4303 31.236C80.1484 31.236 81.6307 32.6323 81.6307 34.6729C81.6307 36.6921 80.1484 38.1099 78.4303 38.1099ZM78.4303 29.0021C75.2937 29.0021 72.7375 31.3864 72.7375 34.6729C72.7375 37.938 75.2937 40.3437 78.4303 40.3437C81.5661 40.3437 84.1224 37.938 84.1224 34.6729C84.1224 31.3864 81.5661 29.0021 78.4303 29.0021ZM90.8479 38.1099C89.1297 38.1099 87.6473 36.6921 87.6473 34.6729C87.6473 32.6323 89.1297 31.236 90.8479 31.236C92.5661 31.236 94.0484 32.6323 94.0484 34.6729C94.0484 36.6921 92.5661 38.1099 90.8479 38.1099ZM90.8479 29.0021C87.7115 29.0021 85.1557 31.3864 85.1557 34.6729C85.1557 37.938 87.7115 40.3437 90.8479 40.3437C93.9839 40.3437 96.5401 37.938 96.5401 34.6729C96.5401 31.3864 93.9839 29.0021 90.8479 29.0021Z" fill="white"/>
<path d="M27.6229 25.8989L13.4276 40.9656L13.4303 40.9745C13.8656 42.6104 15.3593 43.8151 17.1328 43.8151C17.8417 43.8151 18.5073 43.6235 19.0781 43.2869L19.1235 43.2599L35.1021 34.0407L27.6229 25.8989Z" fill="#EB3131"/>
<path d="M41.9844 23.3333L41.9708 23.3245L35.0724 19.3245L27.3011 26.2412L35.1 34.0385L41.962 30.0792C43.1645 29.4297 43.9812 28.1615 43.9812 26.6995C43.9812 25.2464 43.1755 23.9855 41.9844 23.3333Z" fill="#F6B60B"/>
<path d="M13.4265 12.3693C13.3417 12.6844 13.2969 13.0145 13.2969 13.3563V39.9797C13.2969 40.3213 13.3412 40.6521 13.4276 40.9651L28.1115 26.2844L13.4265 12.3693Z" fill="#5778C5"/>
<path d="M27.7281 26.6683L35.0745 19.3224L19.1145 10.0688C18.5344 9.72134 17.8573 9.52081 17.1328 9.52081C15.3593 9.52081 13.8631 10.7276 13.4276 12.3656L13.4265 12.3697L27.7281 26.6683Z" fill="#3BAD49"/>
</svg>
