<?xml version="1.0" encoding="UTF-8"?>
<svg width="170px" height="54px" viewBox="0 0 170 54" version="1.1" xmlns="http://www.w3.org/2000/svg" xmlns:xlink="http://www.w3.org/1999/xlink">
    <title>swapcard-en</title>
    <defs>
        <path d="M0,0 L170,0 L170,54 L0,54 L0,0 Z" id="path-1"></path>
    </defs>
    <g id="swapcard-en" stroke="none" fill="none" transform="translate(0, 0.0002)" xlink:href="#path-1" fill-rule="evenodd" stroke-width="1">
        <g id="Group-Copy-3" transform="translate(0, 0.0002)">
            <path d="M156.584724,0 L12.7629575,0 C12.2720992,0 11.7871307,0 11.2975709,0.00263641246 C10.8877638,0.0052705588 10.4812228,0.0129227539 10.0674803,0.0193632417 C9.16863543,0.0297704905 8.2719189,0.10757593 7.38509449,0.252103242 C6.49951496,0.399777437 5.64168425,0.678184315 4.84060945,1.07790812 C4.04051181,1.48101153 3.30944488,2.00481153 2.6739126,2.63028958 C2.03504724,3.25401592 1.50250551,3.97495544 1.09676772,4.76538373 C0.689905512,5.55424471 0.407787165,6.39958178 0.260153543,7.27219544 C0.111116953,8.14371592 0.0309191181,9.02527251 0.0202795276,9.90897592 C0.00785748031,10.3127906 0.00654566929,10.7179486 0,11.1218159 L0,41.5649481 C0.00654566929,41.9738993 0.00785748031,42.3700749 0.0202795276,42.7791579 C0.0309223307,43.662914 0.111120299,44.544431 0.260153543,45.4158067 C0.407378898,46.2890262 0.689514646,47.1348506 1.09676772,47.9239091 C1.5023315,48.7117823 2.03494016,49.4298506 2.6739126,50.0500603 C3.30702205,50.6783042 4.03857087,51.2024993 4.84060945,51.6024945 C5.64168425,52.0032798 6.49942126,52.2834213 7.38509449,52.4333042 C8.27206614,52.5767335 9.16870236,52.6545725 10.0674803,52.6661628 C10.4812228,52.6751189 10.8877638,52.6802554 11.2975709,52.6802554 C11.7871173,52.6828896 12.272126,52.6828896 12.7629575,52.6828896 L156.584724,52.6828896 C157.066614,52.6828896 157.555197,52.6828896 158.035748,52.6802554 C158.444016,52.6802554 158.861654,52.6751189 159.269921,52.6661628 C160.166772,52.655231 161.062283,52.577392 161.947087,52.4333042 C162.835906,52.2823676 163.696614,52.0023579 164.501102,51.6024945 C165.302913,51.2022359 166.03378,50.6781725 166.666929,50.0500603 C167.304094,49.4274798 167.83685,48.7099384 168.247795,47.9239091 C168.652047,47.134192 168.931811,46.2884993 169.076378,45.4158067 C169.226299,44.5442993 169.309291,43.662914 169.325354,42.7791579 C169.330709,42.3700749 169.330709,41.9738993 169.330709,41.5649481 C169.341417,41.0864554 169.341417,40.6105969 169.341417,40.1243335 L169.341417,12.5597832 C169.341417,12.0774579 169.341417,11.5989915 169.330709,11.1218159 C169.330709,10.7179486 169.330709,10.3127906 169.325354,9.90892324 C169.309291,9.0251408 169.226299,8.14378178 169.076378,7.27214275 C168.931811,6.40002958 168.652047,5.55475836 168.247795,4.76533105 C167.42189,3.18099739 166.111417,1.89135885 164.501102,1.07778958 C163.696614,0.67904173 162.835906,0.400708608 161.947087,0.251984705 C161.062283,0.106820588 160.166772,0.028988149 159.269921,0.0191788515 C158.861654,0.0127515344 158.444016,0.00503348563 158.035748,0.00246519295 C157.555197,0 157.066614,0 156.584724,0 Z" id="Path" fill="#A6A6A6" fill-rule="nonzero"></path>
            <path d="M11.3041031,51.5303189 C10.8962772,51.5303189 10.4982764,51.5251823 10.0936496,51.5162262 C9.25540236,51.5054262 8.41910945,51.4336457 7.59165118,51.3014115 C6.82007874,51.1706262 6.07262756,50.9274945 5.37396772,50.5797871 C4.6817063,50.2349774 4.05031024,49.7829579 3.50396772,49.2408506 C2.94971417,48.7051969 2.48826457,48.0838018 2.13793071,47.4015579 C1.78372835,46.7148359 1.5385937,45.9787237 1.41108031,45.2189042 C1.27336827,44.4024506 1.19886276,43.5769091 1.18820094,42.749392 C1.17971433,42.4716213 1.16860409,41.5467725 1.16860409,41.5467725 L1.16860409,11.1216447 C1.16860409,11.1216447 1.18043717,10.2110071 1.18826787,9.94347007 C1.19847724,9.11724373 1.27254504,8.29297983 1.40983543,7.4778169 C1.53758976,6.71591641 1.78291181,5.9776969 2.13731496,5.28870958 C2.48636378,4.60688714 2.94524331,3.98511007 3.49615039,3.44750714 C4.04644173,2.90479397 4.67987244,2.45039056 5.37331181,2.10083934 C6.07036535,1.75429105 6.81639764,1.51279251 7.58641732,1.38443056 C8.41659291,1.25083456 9.25579055,1.17860627 10.0969425,1.16835153 L11.3047724,1.15227007 L158.029055,1.15227007 L159.251181,1.1689969 C160.085118,1.17874192 160.916378,1.25032617 161.739606,1.38313983 C162.517323,1.51312178 163.270945,1.75630617 163.976378,2.10469836 C165.365827,2.80913495 166.495591,3.92360275 167.209055,5.29192324 C167.557087,5.97615592 167.79937,6.70835641 167.925197,7.46367153 C168.064409,8.28552519 168.142047,9.1162691 168.15811,9.94926519 C168.162126,10.3222603 168.162126,10.722914 168.162126,11.1216447 C168.172835,11.6155471 168.172835,12.0856501 168.172835,12.559612 L168.172835,40.1242018 C168.172835,40.6026945 168.172835,41.0695969 168.162126,41.5403189 C168.162126,41.968631 168.162126,42.3609871 168.156772,42.7648018 C168.140709,43.5829676 168.064409,44.3988945 167.927874,45.2059969 C167.803386,45.9713481 167.558425,46.7131237 167.205039,47.4055091 C166.851654,48.0803774 166.393858,48.6963725 165.845039,49.2305774 C165.298898,49.7755823 164.665748,50.2302359 163.972362,50.5772847 C163.269606,50.9276262 162.515984,51.1716798 161.739606,51.3014115 C160.912362,51.4344359 160.075748,51.5062164 159.237795,51.5162262 C158.845591,51.5251823 158.434646,51.5303189 158.035748,51.5303189 L156.584724,51.532953 L11.3041031,51.5303189 Z" id="Path" fill="#000000" fill-rule="nonzero"></path>
        </g>
        <g id="Group" transform="translate(52.7011, 8.75)" fill="#FFFFFF">
            <g id="SwapCard" transform="translate(0, 10.5)" fill-rule="nonzero">
                <path d="M7.03764343,21.3217621 C5.84548442,21.3217621 4.80584208,21.1404037 3.91871643,20.7776871 C3.03159078,20.4149704 2.33239746,19.9005203 1.82113647,19.2343369 C1.30987549,18.5681534 1.02134705,17.7816518 0.955551147,16.8748322 L0.94480896,16.716217 L3.61373901,16.716217 L3.63002014,16.8375702 C3.69078064,17.2752024 3.87392934,17.6553472 4.17946625,17.9780045 C4.48500315,18.3006617 4.89049276,18.5512848 5.39593506,18.7298737 C5.90137736,18.9084625 6.47876994,18.997757 7.12811279,18.997757 C7.76828003,18.997757 8.32648214,18.9048538 8.80271912,18.7190475 C9.2789561,18.5332413 9.64986928,18.2720439 9.91545868,17.9354553 C10.1810481,17.5988668 10.3138428,17.2092946 10.3138428,16.7667389 L10.3138428,16.7559967 C10.3138428,16.1859894 10.096789,15.7276281 9.66268158,15.3809128 C9.22857412,15.0341975 8.51088969,14.7551524 7.5096283,14.5437775 L5.84190369,14.1968384 C4.28965759,13.8718872 3.14337667,13.3447088 2.40306091,12.615303 C1.66274516,11.8858973 1.29258728,10.9431305 1.29258728,9.78700256 L1.29258728,9.77626038 C1.29739889,8.85948181 1.54528046,8.05667114 2.03623199,7.36782837 C2.52718353,6.6789856 3.20450083,6.1416804 4.0681839,5.75591278 C4.93186696,5.37014516 5.92090352,5.17726135 7.03529358,5.17726135 C8.16993713,5.17726135 9.15746307,5.36508179 9.9978714,5.74072266 C10.8382797,6.11636353 11.4993998,6.63534546 11.9812317,7.29766846 C12.4630636,7.95999146 12.7324015,8.7208964 12.7892456,9.5803833 L12.7999878,9.74403381 L10.153717,9.74403381 L10.134079,9.60925293 C10.0702972,9.17945353 9.90314992,8.80789693 9.63263702,8.49458313 C9.36212413,8.18126933 9.00491842,7.93680064 8.5610199,7.76117706 C8.11712138,7.58555349 7.60199992,7.49891663 7.01565552,7.50126648 C6.42819214,7.50126648 5.9134903,7.58863068 5.47154999,7.76335907 C5.02960968,7.93808746 4.68583171,8.18331146 4.44021606,8.49903107 C4.19460042,8.81475067 4.0717926,9.18829346 4.0717926,9.61965942 L4.0717926,9.63040161 C4.0717926,10.1728821 4.28783925,10.6175639 4.71993256,10.964447 C5.15202586,11.3113302 5.84246318,11.5844727 6.79124451,11.7838745 L8.45896912,12.1341705 C9.5416921,12.3577423 10.4233348,12.6593068 11.1038971,13.0388641 C11.7844594,13.4184214 12.2861532,13.8920288 12.6089783,14.4596863 C12.9318034,15.0273438 13.0932159,15.7081858 13.0932159,16.5022125 L13.0932159,16.5129547 C13.0932159,17.4956411 12.8491669,18.3468475 12.3610687,19.0665741 C11.8729706,19.7863007 11.1760712,20.342097 10.2703705,20.733963 C9.3646698,21.1258291 8.28709412,21.3217621 7.03764343,21.3217621 Z" id="Path"></path>
                <polygon id="Path" points="17.3618966 21 14.2255136 9.44644165 16.9105569 9.44644165 18.8476754 18.227005 18.9651681 18.227005 21.2042428 9.44644165 23.757023 9.44644165 26.0085183 18.227005 26.126011 18.227005 28.0631295 9.44644165 30.7067147 9.44644165 27.5810739 21 24.7750131 21 22.5069009 12.5861816 22.3894082 12.5861816 20.1372415 21"></polygon>
                <path d="M35.2189797,21.1941986 C34.469824,21.1941986 33.80641,21.0496826 33.2287377,20.7606506 C32.6510654,20.4716187 32.1989144,20.0657934 31.8722848,19.5431747 C31.5456551,19.0205561 31.3823403,18.413147 31.3823403,17.7209473 L31.3823403,17.7013092 C31.3823403,17.0123545 31.5533481,16.4211426 31.8953637,15.9276733 C32.2373793,15.4342041 32.7353804,15.0453873 33.389367,14.7612228 C34.0433536,14.4770584 34.8362333,14.3070577 35.7680062,14.2512207 L40.1214455,13.9888763 L40.1214455,15.7516022 L36.1463326,16.0053864 C35.4471952,16.0461171 34.9205483,16.202774 34.5663918,16.4753571 C34.2122353,16.7479401 34.0351571,17.1174266 34.0351571,17.5838165 L34.0351571,17.6034546 C34.0351571,18.0841675 34.2185855,18.4618785 34.5854424,18.7365875 C34.9522993,19.0112966 35.4309141,19.1486511 36.0212868,19.1486511 C36.5466469,19.1486511 37.0158623,19.0432994 37.428933,18.8325958 C37.8420037,18.6218923 38.1682417,18.334343 38.407647,17.9699478 C38.6470523,17.6055527 38.766755,17.1951396 38.766755,16.7387085 L38.766755,13.1806946 C38.766755,12.5997213 38.5832706,12.1480459 38.2163018,11.8256683 C37.849333,11.5032908 37.3159442,11.3421021 36.6161355,11.3421021 C35.9929767,11.3421021 35.4895765,11.4626719 35.105935,11.7038116 C34.7222934,11.9449514 34.4751392,12.2677765 34.3644723,12.672287 L34.3465127,12.743454 L31.8474434,12.743454 L31.8581856,12.6358643 C31.9315906,11.9653727 32.1732898,11.3735733 32.5832833,10.860466 C32.9932768,10.3473587 33.5497724,9.94483439 34.2527703,9.65289307 C34.9557681,9.36095174 35.780203,9.21498108 36.726075,9.21498108 C37.7056283,9.21498108 38.5457568,9.37169393 39.2464608,9.68511963 C39.9471647,9.99854533 40.4855609,10.4442622 40.8616494,11.0222702 C41.2377378,11.6002782 41.4257821,12.2859039 41.4257821,13.0791473 L41.4257821,21 L38.766755,21 L38.766755,19.3128052 L38.6492623,19.3128052 C38.4336353,19.7010905 38.1544783,20.0364202 37.8117913,20.3187943 C37.4691043,20.6011683 37.0789447,20.8176626 36.6413125,20.968277 C36.2036802,21.1188914 35.7295693,21.1941986 35.2189797,21.1941986 Z" id="Path"></path>
                <path d="M43.8114946,24.8265686 L43.8114946,9.44644165 L46.4834459,9.44644165 L46.4834459,11.3531799 L46.6027849,11.3531799 C46.8210975,10.9099528 47.1025764,10.5312068 47.4472216,10.2169418 C47.7918667,9.9026769 48.1923209,9.66033427 48.6485842,9.48991394 C49.1048474,9.31949361 49.6047228,9.23428345 50.1482103,9.23428345 C51.1236233,9.23428345 51.9675844,9.47668203 52.6800936,9.96147919 C53.3926027,10.4462763 53.9431958,11.1357066 54.3318727,12.0297699 C54.7205497,12.9238332 54.9148882,13.9860229 54.9148882,15.2163391 L54.9148882,15.2321167 C54.9148882,16.4645589 54.721305,17.527448 54.3341387,18.420784 C53.9469723,19.31412 53.3990089,20.002683 52.6902483,20.4864731 C51.9814877,20.9702632 51.1410234,21.2121582 50.1688555,21.2121582 C49.6310747,21.2121582 49.1306678,21.1265004 48.6676348,20.9551849 C48.2046017,20.7838694 47.7977694,20.5409673 47.4471376,20.2264786 C47.0965059,19.9119898 46.8144396,19.5369364 46.6009386,19.1013184 L46.4834459,19.1013184 L46.4834459,24.8265686 L43.8114946,24.8265686 Z M49.3370073,18.9591522 C49.9280514,18.9591522 50.4368507,18.8083979 50.863405,18.5068893 C51.2899594,18.2053808 51.6182395,17.7757212 51.8482454,17.2179108 C52.0782513,16.6601003 52.1932543,15.9981689 52.1932543,15.2321167 L52.1932543,15.2163391 C52.1932543,14.4405518 52.0779436,13.7743403 51.8473223,13.2177048 C51.6167009,12.6610692 51.2881131,12.2335078 50.8615587,11.9350204 C50.4350044,11.6365331 49.9268206,11.4872894 49.3370073,11.4872894 C48.7598385,11.4872894 48.2549557,11.6387711 47.8223589,11.9417343 C47.389762,12.2446976 47.0543764,12.6742452 46.816202,13.2303772 C46.5780275,13.7865092 46.4589403,14.4485524 46.4589403,15.216507 L46.4589403,15.2322845 C46.4589403,15.9930776 46.5789507,16.6526591 46.8189714,17.2110291 C47.0589922,17.769399 47.3943499,18.2003454 47.8250444,18.5038681 C48.255739,18.8073908 48.7597266,18.9591522 49.3370073,18.9591522 Z" id="Shape"></path>
                <path d="M63.7243469,21.3217621 C62.2525553,21.3217621 60.9774241,20.9947408 59.8989533,20.3406982 C58.8204824,19.6866557 57.9889979,18.756813 57.4044998,17.5511703 C56.8200017,16.3455276 56.5277527,14.9127045 56.5277527,13.2527008 L56.5277527,13.2369232 C56.5277527,11.5745697 56.8202815,10.1415227 57.4053391,8.93778229 C57.9903966,7.73404185 58.8207062,6.80635325 59.8962677,6.15471649 C60.9718292,5.50307973 62.2466807,5.17726135 63.7208221,5.17726135 C64.9045888,5.17726135 65.968485,5.40704346 66.9125107,5.86660767 C67.8565364,6.32617188 68.6258057,6.9605484 69.2203186,7.76973724 C69.8148315,8.57892609 70.1749186,9.51050313 70.3005798,10.5644684 L70.3064545,10.6631622 L67.593045,10.6631622 L67.5589722,10.5319061 C67.4176453,9.92855326 67.1712463,9.40618642 66.8197754,8.9648056 C66.4683044,8.52342478 66.0307561,8.18104553 65.5071304,7.93766785 C64.9835047,7.69429016 64.3880686,7.57260132 63.7208221,7.57260132 C62.8316823,7.57260132 62.0600352,7.80277507 61.4058807,8.26312256 C60.7517263,8.72347005 60.2464239,9.37619781 59.8899735,10.2213058 C59.5335231,11.0664139 59.3552979,12.0704447 59.3552979,13.2333984 L59.3552979,13.2493439 C59.3552979,14.4086049 59.5335231,15.413503 59.8899735,16.2640381 C60.2464239,17.1145732 60.7526494,17.7709376 61.4086502,18.2331314 C62.064651,18.6953252 62.8376689,18.9264221 63.7277039,18.9264221 C64.3874532,18.9264221 64.9785812,18.8113632 65.501088,18.5812454 C66.0235947,18.3511276 66.4625977,18.0198822 66.8180969,17.5875092 C67.1735962,17.1551361 67.4257579,16.6368815 67.5745819,16.0327454 L67.5982483,15.9471436 L70.3151825,15.9471436 L70.3057831,16.0461731 C70.1720652,17.0919698 69.8096563,18.0108185 69.2185562,18.8027191 C68.6274562,19.5946198 67.8621872,20.2124354 66.9227493,20.6561661 C65.9833115,21.0998967 64.9171773,21.3217621 63.7243469,21.3217621 Z" id="Path"></path>
                <path d="M75.614994,21.1941986 C74.8658383,21.1941986 74.2024243,21.0496826 73.624752,20.7606506 C73.0470797,20.4716187 72.5949287,20.0657934 72.268299,19.5431747 C71.9416694,19.0205561 71.7783546,18.413147 71.7783546,17.7209473 L71.7783546,17.7013092 C71.7783546,17.0123545 71.9493624,16.4211426 72.291378,15.9276733 C72.6333936,15.4342041 73.1313946,15.0453873 73.7853813,14.7612228 C74.4393679,14.4770584 75.2322476,14.3070577 76.1640205,14.2512207 L80.5174598,13.9888763 L80.5174598,15.7516022 L76.5423469,16.0053864 C75.8432095,16.0461171 75.3165626,16.202774 74.9624061,16.4753571 C74.6082496,16.7479401 74.4311714,17.1174266 74.4311714,17.5838165 L74.4311714,17.6034546 C74.4311714,18.0841675 74.6145998,18.4618785 74.9814567,18.7365875 C75.3483136,19.0112966 75.8269284,19.1486511 76.4173011,19.1486511 C76.9426612,19.1486511 77.4118766,19.0432994 77.8249473,18.8325958 C78.238018,18.6218923 78.564256,18.334343 78.8036613,17.9699478 C79.0430666,17.6055527 79.1627693,17.1951396 79.1627693,16.7387085 L79.1627693,13.1806946 C79.1627693,12.5997213 78.9792849,12.1480459 78.6123161,11.8256683 C78.2453473,11.5032908 77.7119585,11.3421021 77.0121498,11.3421021 C76.388991,11.3421021 75.8855908,11.4626719 75.5019493,11.7038116 C75.1183077,11.9449514 74.8711535,12.2677765 74.7604865,12.672287 L74.742527,12.743454 L72.2434577,12.743454 L72.2541999,12.6358643 C72.3276049,11.9653727 72.5693041,11.3735733 72.9792976,10.860466 C73.3892911,10.3473587 73.9457867,9.94483439 74.6487846,9.65289307 C75.3517824,9.36095174 76.1762173,9.21498108 77.1220893,9.21498108 C78.1016426,9.21498108 78.9417711,9.37169393 79.6424751,9.68511963 C80.343179,9.99854533 80.8815752,10.4442622 81.2576637,11.0222702 C81.6337521,11.6002782 81.8217964,12.2859039 81.8217964,13.0791473 L81.8217964,21 L79.1627693,21 L79.1627693,19.3128052 L79.0452766,19.3128052 C78.8296496,19.7010905 78.5504925,20.0364202 78.2078056,20.3187943 C77.8651186,20.6011683 77.474959,20.8176626 77.0373268,20.968277 C76.5996945,21.1188914 76.1255836,21.1941986 75.614994,21.1941986 Z" id="Path"></path>
                <path d="M84.2075089,21 L84.2075089,9.44644165 L86.8794602,9.44644165 L86.8794602,11.3321991 L86.9969529,11.3321991 C87.1844936,10.6723378 87.5213059,10.1577199 88.0073899,9.78834534 C88.4934739,9.41897074 89.0916235,9.23428345 89.8018388,9.23428345 C89.9875891,9.23428345 90.1653108,9.24547323 90.3350037,9.26785278 C90.5046967,9.29023234 90.6472825,9.31697591 90.762761,9.3480835 L90.762761,11.7541656 C90.6027472,11.7073924 90.4198502,11.6704381 90.2140702,11.6433029 C90.0082902,11.6161677 89.7900335,11.6026001 89.5593003,11.6026001 C89.013351,11.6026001 88.5392681,11.7097422 88.1370515,11.9240265 C87.7348349,12.1383108 87.4246822,12.4458059 87.2065934,12.8465118 C86.9885046,13.2472178 86.8794602,13.7281545 86.8794602,14.2893219 L86.8794602,21 L84.2075089,21 Z" id="Path"></path>
                <path d="M96.1245164,21.2121582 C95.1549221,21.2121582 94.3130031,20.9697316 93.5987596,20.4848785 C92.884516,20.0000254 92.3330837,19.309728 91.9444627,18.4139862 C91.5558417,17.5182444 91.3615312,16.4563344 91.3615312,15.2282562 L91.3615312,15.2124786 C91.3615312,13.9788055 91.5557018,12.915301 91.9440431,12.021965 C92.3323843,11.128629 92.8821661,10.4406815 93.5933885,9.95812225 C94.3046108,9.47556305 95.1456346,9.23428345 96.1164598,9.23428345 C96.6555833,9.23428345 97.1554307,9.32022095 97.616002,9.49209595 C98.0765733,9.66397095 98.4833777,9.90810394 98.8364152,10.2244949 C99.1894527,10.5408859 99.4703162,10.9191844 99.6790055,11.3593903 L99.7964982,11.3593903 L99.7964982,5.12757874 L102.46845,5.12757874 L102.46845,21 L99.7964982,21 L99.7964982,19.1112213 L99.6790055,19.1112213 C99.4644975,19.5497487 99.1839697,19.924914 98.8374223,20.2367172 C98.4908748,20.5485204 98.0894695,20.7890447 97.6332063,20.9582901 C97.1769431,21.1275355 96.6740464,21.2121582 96.1245164,21.2121582 Z M96.9392442,18.9591522 C97.5187628,18.9591522 98.0245408,18.8076706 98.4565782,18.5047073 C98.8886155,18.2017441 99.2234417,17.7706858 99.4610566,17.2115326 C99.6986716,16.6523794 99.8174791,15.9924062 99.8174791,15.2316132 L99.8174791,15.2158356 C99.8174791,14.4504547 99.6974407,13.7894465 99.457364,13.232811 C99.2172873,12.6761754 98.8821814,12.2460963 98.4520463,11.9425735 C98.0219112,11.6390508 97.5176438,11.4872894 96.9392442,11.4872894 C96.3528998,11.4872894 95.8456112,11.6374283 95.4173783,11.937706 C94.9891455,12.2379837 94.6597184,12.6658249 94.4290971,13.2212296 C94.1984758,13.7766342 94.0831651,14.4403839 94.0831651,15.2124786 L94.0831651,15.2282562 C94.0831651,15.9978892 94.198168,16.6622823 94.4281739,17.2214355 C94.6581798,17.7805888 94.9873272,18.2099965 95.415616,18.5096588 C95.8439047,18.8093211 96.3517808,18.9591522 96.9392442,18.9591522 Z" id="Shape"></path>
            </g>
            <g id="Available-on" transform="translate(0.2989, 0)" fill-rule="nonzero">
                <path d="M0.443840027,12 L3.74977875,2.84033203 L4.902771,2.84033203 L4.902771,4.44857025 L4.46755981,4.44857025 L1.94258118,12 L0.443840027,12 Z M2.03759766,9.52510834 L2.43502045,8.38391876 L6.60860443,8.38391876 L7.00592804,9.52510834 L2.03759766,9.52510834 Z M7.09876251,12 L4.57378387,4.44857025 L4.57378387,2.84033203 L5.29166412,2.84033203 L8.59760284,12 L7.09876251,12 Z" id="Shape"></path>
                <polygon id="Path" points="11.3101089 12 8.81458731 5.10366821 10.2828795 5.10366821 11.9994246 10.6007385 12.1056487 10.6007385 13.8176314 5.10366821 15.2707488 5.10366821 12.781079 12"></polygon>
                <path d="M18.5485976,12.1171341 C18.1131219,12.1171341 17.7231213,12.0332591 17.3785956,11.865509 C17.03407,11.697759 16.7624762,11.4595896 16.5638144,11.151001 C16.3651526,10.8424123 16.2658217,10.4792074 16.2658217,10.0613861 L16.2658217,10.0486908 C16.2658217,9.6378123 16.3658634,9.28550084 16.5659468,8.99175644 C16.7660303,8.69801203 17.0580886,8.46744665 17.4421218,8.30006027 C17.826155,8.1326739 18.2919804,8.03340912 18.839598,8.00226593 L21.3847106,7.84873199 L21.3847106,8.82180786 L19.0252669,8.97306061 C18.5505151,9.00030263 18.2015428,9.09984843 17.9783499,9.271698 C17.7551571,9.44354757 17.6435607,9.68363444 17.6435607,9.99195862 L17.6435607,10.0046539 C17.6435607,10.3213755 17.7640835,10.5686366 18.0051291,10.7464371 C18.2461748,10.9242376 18.5516061,11.0131378 18.9214232,11.0131378 C19.2647256,11.0131378 19.570157,10.9446195 19.8377173,10.8075829 C20.1052776,10.6705462 20.3158413,10.4843979 20.4694083,10.2491379 C20.6229753,10.0138779 20.6997588,9.74806976 20.6997588,9.45171356 L20.6997588,7.28398895 C20.6997588,6.90425364 20.5820296,6.61398061 20.3465712,6.41316986 C20.1111129,6.21235911 19.7613967,6.11195374 19.2974227,6.11195374 C18.9149103,6.11195374 18.6021725,6.17893473 18.3592093,6.31289673 C18.1162462,6.44685872 17.953042,6.63626353 17.8695967,6.88111115 L17.8620589,6.90253448 L16.5341094,6.90253448 L16.540457,6.85631561 C16.5958007,6.47796885 16.747103,6.1480395 16.994364,5.86652756 C17.2416251,5.58501561 17.5667441,5.36565781 17.9697211,5.20845413 C18.3726981,5.05125046 18.8353331,4.97264862 19.3576262,4.97264862 C19.9387674,4.97264862 20.4310744,5.06459045 20.8345473,5.24847412 C21.2380202,5.43235779 21.5447244,5.69695918 21.7546599,6.04227829 C21.9645954,6.3875974 22.0695632,6.80150096 22.0695632,7.28398895 L22.0695632,12 L20.6997588,12 L20.6997588,11.0221634 L20.5935347,11.0221634 C20.4597711,11.2532578 20.2916243,11.4509277 20.0890944,11.6151733 C19.8865645,11.7794189 19.6560322,11.9041405 19.3974974,11.9893379 C19.1389627,12.0745354 18.8559961,12.1171341 18.5485976,12.1171341 Z" id="Path"></path>
                <path d="M24.2832714,12 L24.2832714,5.10366821 L25.6623989,5.10366821 L25.6623989,12 L24.2832714,12 Z M24.977943,3.87410736 C24.742683,3.87410736 24.5396572,3.78968684 24.3688656,3.62084579 C24.198074,3.45200475 24.1126781,3.24995422 24.1126781,3.01469421 C24.1126781,2.77513631 24.198074,2.57179642 24.3688656,2.40467453 C24.5396572,2.23755264 24.742683,2.1539917 24.977943,2.1539917 C25.2175009,2.1539917 25.4216178,2.23755264 25.5902935,2.40467453 C25.7589692,2.57179642 25.8433071,2.77513631 25.8433071,3.01469421 C25.8433071,3.24995422 25.7589692,3.45200475 25.5902935,3.62084579 C25.4216178,3.78968684 25.2175009,3.87410736 24.977943,3.87410736 Z" id="Shape"></path>
                <polygon id="Path" points="27.9776309 12 27.9776309 2.40313721 29.3567584 2.40313721 29.3567584 12"></polygon>
                <path d="M33.5393791,12.1171341 C33.1039035,12.1171341 32.7139028,12.0332591 32.3693771,11.865509 C32.0248515,11.697759 31.7532578,11.4595896 31.5545959,11.151001 C31.3559341,10.8424123 31.2566032,10.4792074 31.2566032,10.0613861 L31.2566032,10.0486908 C31.2566032,9.6378123 31.3566449,9.28550084 31.5567284,8.99175644 C31.7568118,8.69801203 32.0488701,8.46744665 32.4329033,8.30006027 C32.8169365,8.1326739 33.2827619,8.03340912 33.8303795,8.00226593 L36.3754921,7.84873199 L36.3754921,8.82180786 L34.0160484,8.97306061 C33.5412966,9.00030263 33.1923243,9.09984843 32.9691315,9.271698 C32.7459386,9.44354757 32.6343422,9.68363444 32.6343422,9.99195862 L32.6343422,10.0046539 C32.6343422,10.3213755 32.754865,10.5686366 32.9959106,10.7464371 C33.2369563,10.9242376 33.5423876,11.0131378 33.9122047,11.0131378 C34.2555072,11.0131378 34.5609385,10.9446195 34.8284988,10.8075829 C35.0960592,10.6705462 35.3066228,10.4843979 35.4601898,10.2491379 C35.6137568,10.0138779 35.6905403,9.74806976 35.6905403,9.45171356 L35.6905403,7.28398895 C35.6905403,6.90425364 35.5728111,6.61398061 35.3373528,6.41316986 C35.1018944,6.21235911 34.7521782,6.11195374 34.2882042,6.11195374 C33.9056918,6.11195374 33.592954,6.17893473 33.3499908,6.31289673 C33.1070277,6.44685872 32.9438235,6.63626353 32.8603783,6.88111115 L32.8528404,6.90253448 L31.5248909,6.90253448 L31.5312386,6.85631561 C31.5865822,6.47796885 31.7378845,6.1480395 31.9851456,5.86652756 C32.2324066,5.58501561 32.5575256,5.36565781 32.9605026,5.20845413 C33.3634796,5.05125046 33.8261147,4.97264862 34.3484077,4.97264862 C34.9295489,4.97264862 35.4218559,5.06459045 35.8253288,5.24847412 C36.2288017,5.43235779 36.5355059,5.69695918 36.7454414,6.04227829 C36.9553769,6.3875974 37.0603447,6.80150096 37.0603447,7.28398895 L37.0603447,12 L35.6905403,12 L35.6905403,11.0221634 L35.5843163,11.0221634 C35.4505526,11.2532578 35.2824059,11.4509277 35.0798759,11.6151733 C34.877346,11.7794189 34.6468137,11.9041405 34.388279,11.9893379 C34.1297442,12.0745354 33.8467776,12.1171341 33.5393791,12.1171341 Z" id="Path"></path>
                <path d="M42.9197896,12.1171341 C42.5985718,12.1171341 42.3023478,12.0688489 42.0311177,11.9722786 C41.7598877,11.8757083 41.5204124,11.7378947 41.312692,11.5588379 C41.1049716,11.3797811 40.9347916,11.16406 40.802152,10.9116745 L40.6959279,10.9116745 L40.6959279,12 L39.3168004,12 L39.3168004,2.40313721 L40.6959279,2.40313721 L40.6959279,6.19675446 L40.802152,6.19675446 C40.9259974,5.94741058 41.0932185,5.73309453 41.3038152,5.5538063 C41.5144119,5.37451808 41.7575238,5.23515066 42.033151,5.13570404 C42.3087781,5.03625743 42.6043243,4.98653412 42.9197896,4.98653412 C43.5034434,4.98653412 44.008859,5.13175329 44.4360364,5.42219162 C44.8632138,5.71262995 45.1935565,6.12388865 45.4270643,6.65596771 C45.660572,7.18804677 45.7773259,7.81788635 45.7773259,8.54548645 L45.7773259,8.55818176 C45.7773259,9.28075663 45.6599935,9.90894318 45.4253286,10.4427414 C45.1906636,10.9765396 44.8597425,11.3890546 44.432565,11.6802864 C44.0053876,11.9715182 43.5011291,12.1171341 42.9197896,12.1171341 Z M42.5274251,10.9347839 C42.9129791,10.9347839 43.2428093,10.8395195 43.5169156,10.6489906 C43.791022,10.4584618 44.0018005,10.1852976 44.1492513,9.82949829 C44.2967021,9.47369893 44.3704274,9.04992676 44.3704274,8.55818176 L44.3704274,8.54548645 C44.3704274,8.0510966 44.2967021,7.62684504 44.1492513,7.27273178 C44.0018005,6.91861852 43.791022,6.64613215 43.5169156,6.45527267 C43.2428093,6.2644132 42.9129791,6.16898346 42.5274251,6.16898346 C42.1460368,6.16898346 41.8163719,6.26509094 41.5384305,6.45730591 C41.2604891,6.64952087 41.0467351,6.92266846 40.8971685,7.27674866 C40.7476018,7.63082886 40.6728185,8.05413818 40.6728185,8.54667664 L40.6728185,8.55937195 C40.6728185,9.04761251 40.7474035,9.469649 40.8965734,9.82548141 C41.0457433,10.1813138 41.2593155,10.4551557 41.5372899,10.647007 C41.8152644,10.8388583 42.1453094,10.9347839 42.5274251,10.9347839 Z" id="Shape"></path>
                <polygon id="Path" points="47.7278838 12 47.7278838 2.40313721 49.1070113 2.40313721 49.1070113 12"></polygon>
                <path d="M54.2968266,12.1311188 C53.6241734,12.1311188 53.0462887,11.9860649 52.5631726,11.6959572 C52.0800564,11.4058495 51.7083383,10.9944585 51.4480183,10.4617844 C51.1876983,9.92911021 51.0575382,9.29936981 51.0575382,8.57256317 L51.0575382,8.56621552 C51.0575382,7.84635162 51.1874999,7.21748734 51.4474232,6.67962265 C51.7073465,6.14175797 52.0751138,5.72279612 52.5507252,5.42273712 C53.0263366,5.12267812 53.5843352,4.97264862 54.2247212,4.97264862 C54.8676859,4.97264862 55.4213205,5.11710739 55.8856251,5.40602493 C56.3499297,5.69494247 56.7068697,6.09861374 56.956445,6.61703873 C57.2060203,7.13546371 57.3308079,7.73999532 57.3308079,8.43063354 L57.3308079,8.91464233 L51.7591526,8.91464233 L51.7591526,7.92986298 L56.6459553,7.92986298 L55.981435,8.84313202 L55.981435,8.29455566 C55.981435,7.80056254 55.9070319,7.39227931 55.7582257,7.06970596 C55.6094194,6.74713262 55.4037322,6.50559107 55.141164,6.34508133 C54.8785959,6.18457158 54.5756275,6.10431671 54.232259,6.10431671 C53.8897501,6.10431671 53.5844179,6.18802643 53.3162625,6.35544586 C53.048107,6.5228653 52.8361879,6.76959737 52.680505,7.09564209 C52.5248221,7.42168681 52.4469807,7.82132467 52.4469807,8.29455566 L52.4469807,8.84541321 C52.4469807,9.2979482 52.5230864,9.68462626 52.675298,10.0054474 C52.8275095,10.3262685 53.04452,10.5721245 53.3263294,10.7430153 C53.6081389,10.9139061 53.9416554,10.9993515 54.3268788,10.9993515 C54.6218464,10.9993515 54.8765957,10.9580091 55.0911267,10.8753242 C55.3056576,10.7926394 55.4811604,10.689771 55.617635,10.5667191 C55.7541096,10.4436671 55.8488947,10.3233592 55.9019902,10.2057953 L55.9250004,10.1557083 L57.2576115,10.1545181 L57.243726,10.2111511 C57.1867954,10.4384766 57.0841915,10.6649755 56.9359143,10.8906479 C56.787637,11.1163203 56.5922978,11.3227844 56.3498966,11.5100403 C56.1074955,11.6972961 55.8151231,11.8476232 55.4727795,11.9610214 C55.1304358,12.0744197 54.7384515,12.1311188 54.2968266,12.1311188 Z" id="Path"></path>
                <path d="M65.929101,12.1311188 C65.2568445,12.1311188 64.676844,11.9873212 64.1890993,11.6997261 C63.7013547,11.412131 63.325785,11.0011368 63.0623903,10.4667435 C62.7989957,9.93235016 62.6672983,9.29576619 62.6672983,8.55699158 L62.6672983,8.54429626 C62.6672983,7.80525716 62.7995742,7.16872279 63.064126,6.63469315 C63.3286778,6.1006635 63.704826,5.69014867 64.1925707,5.40314865 C64.6803153,5.11614863 65.2591588,4.97264862 65.929101,4.97264862 C66.6033411,4.97264862 67.1834574,5.11595027 67.6694498,5.40255356 C68.1554422,5.68915685 68.5305325,6.09947332 68.7947206,6.63350296 C69.0589088,7.1675326 69.1910028,7.8044637 69.1910028,8.54429626 L69.1910028,8.55699158 C69.1910028,9.29576619 69.0595039,9.93235016 68.7965059,10.4667435 C68.533508,11.0011368 68.1589963,11.412131 67.6729708,11.6997261 C67.1869453,11.9873212 66.6056554,12.1311188 65.929101,12.1311188 Z M65.929101,10.97892 C66.3235153,10.97892 66.6579574,10.882796 66.9324274,10.6905479 C67.2068974,10.4982999 67.4166842,10.2218297 67.5617876,9.86113739 C67.7068911,9.50044505 67.7794428,9.06612651 67.7794428,8.55818176 L67.7794428,8.54548645 C67.7794428,8.03483073 67.7066927,7.59935506 67.5611925,7.23905945 C67.4156923,6.87876383 67.2057072,6.60297139 66.9312372,6.41168213 C66.6567672,6.22039286 66.3227218,6.12474823 65.929101,6.12474823 C65.5362736,6.12474823 65.2024431,6.22039286 64.9276094,6.41168213 C64.6527758,6.60297139 64.4425923,6.87876383 64.2970591,7.23905945 C64.1515258,7.59935506 64.0787592,8.03483073 64.0787592,8.54548645 L64.0787592,8.55818176 C64.0787592,9.06691996 64.1513275,9.50163523 64.296464,9.86232758 C64.4416005,10.2230199 64.6515856,10.4992917 64.9264193,10.691143 C65.2012529,10.8829943 65.5354802,10.97892 65.929101,10.97892 Z" id="Shape"></path>
                <path d="M71.0780873,12 L71.0780873,5.10366821 L72.4572148,5.10366821 L72.4572148,6.15063477 L72.5634388,6.15063477 C72.7322468,5.78128052 72.9819048,5.49261093 73.3124127,5.28462601 C73.6429206,5.07664108 74.0592045,4.97264862 74.5612645,4.97264862 C75.3345545,4.97264862 75.926523,5.19473394 76.3371701,5.63890457 C76.7478172,6.08307521 76.9531407,6.71567535 76.9531407,7.53670502 L76.9531407,12 L75.5740132,12 L75.5740132,7.8603363 C75.5740132,7.28752645 75.453573,6.86010106 75.2126927,6.57806015 C74.9718124,6.29601924 74.5982263,6.15499878 74.0919346,6.15499878 C73.756699,6.15499878 73.4670376,6.22824478 73.2229504,6.37473679 C72.9788632,6.52122879 72.7902188,6.72827148 72.6570172,6.99586487 C72.5238156,7.26345825 72.4572148,7.58272552 72.4572148,7.95366669 L72.4572148,12 L71.0780873,12 Z" id="Path"></path>
            </g>
        </g>
        <g id="Group-Copy-4" transform="translate(8, 17.5)">
            <path d="M35.3511534,6.78396951 C35.124818,6.78396951 34.916834,6.66774319 34.8006077,6.47811077 C33.7301021,4.73471594 31.8337779,3.67032751 29.7845243,3.67032751 C28.0655982,3.67032751 26.4261953,4.42274002 25.3067523,5.73181544 L17.1647926,15.268491 C16.7977621,15.7456307 16.3879114,16.1799501 15.9413577,16.5836836 C14.1857285,18.1435632 11.9162566,19.0060849 9.56726146,19 C4.29425674,19 1.42108547e-14,14.7362968 1.42108547e-14,9.5 C1.42108547e-14,4.26369347 4.29425674,0 9.56726146,0 C12.3811619,-0.00609456933 15.0482501,1.22957475 16.8711682,3.36446877 L18.7919611,5.62170629 C18.8898359,5.73793261 18.8898359,5.90309633 18.7919611,6.01932266 L16.7671763,8.38666932 C16.7060045,8.45395825 16.6203641,8.49677847 16.5347236,8.49677847 C16.442966,8.49677847 16.3573255,8.46007542 16.2961538,8.38666932 L14.0450335,5.74404979 L14.0450335,5.74404979 L14.0450335,5.74404979 C12.9255905,4.43497437 11.2861876,3.67644469 9.56726146,3.68256186 C6.33127597,3.68256186 3.70089078,6.29459552 3.70089078,9.50611232 C3.70089078,12.7176291 6.33127597,15.3296628 9.56726146,15.3296628 C11.0109147,15.3296628 12.3995134,14.8035857 13.4761362,13.8493065 C13.5862453,13.7514317 23.0801007,2.71604824 23.4104281,2.42242385 C25.1660573,0.862544259 27.4355292,0 29.7906415,0.00613978037 C33.7851567,0.00613978037 37.2168918,2.45300972 38.6483107,5.91533068 C38.727834,6.11108028 38.7033653,6.33741575 38.5871389,6.51481382 C38.4647954,6.69221189 38.2690458,6.79620386 38.0488276,6.79620386 L35.3511534,6.78396951 L35.3511534,6.78396951 Z" id="Path" fill="#FFFFFF"></path>
            <path d="M29.7906415,18.9938731 C26.9767411,18.9999677 24.3096528,17.7642984 22.4867347,15.6232872 L20.5537075,13.3599325 C20.4558327,13.2437062 20.4558327,13.0785424 20.5537075,12.9623161 L22.5784924,10.5949694 C22.6396641,10.5276805 22.7253046,10.4848603 22.8170622,10.4848603 C22.9088198,10.4848603 22.9944603,10.5215633 23.0495148,10.5949694 L25.3128695,13.2498233 C26.4323125,14.5650159 28.0655982,15.3174284 29.7906415,15.3174284 C31.8398951,15.3174284 33.7362193,14.25304 34.8067249,12.5096452 C34.9229512,12.3200127 35.1309352,12.2037864 35.3572706,12.2037864 L38.0488276,12.2037864 C38.2629287,12.2037864 38.4647954,12.3077784 38.5871389,12.4851765 C38.7094824,12.6625745 38.727834,12.88891 38.6483107,13.0846596 C37.2168918,16.5469806 33.7851567,18.9938731 29.7906415,18.9938731 L29.7906415,18.9938731 Z" id="Path" fill="#59B570" fill-rule="nonzero"></path>
        </g>
    </g>
</svg>