<?xml version="1.0" encoding="UTF-8"?>
<svg width="170px" height="54px" viewBox="0 0 170 54" version="1.1" xmlns="http://www.w3.org/2000/svg" xmlns:xlink="http://www.w3.org/1999/xlink">
    <title>swapcard-fr</title>
    <defs>
        <path d="M0,0 L170,0 L170,54 L0,54 L0,0 Z" id="path-1"></path>
    </defs>
    <g id="swapcard-fr" stroke="none" fill="none" transform="translate(0, 0.0002)" xlink:href="#path-1" fill-rule="evenodd" stroke-width="1">
        <g id="Group-Copy-3" transform="translate(0, 0.0002)">
            <path d="M156.584724,0 L12.7629575,0 C12.2720992,0 11.7871307,0 11.2975709,0.00263641246 C10.8877638,0.0052705588 10.4812228,0.0129227539 10.0674803,0.0193632417 C9.16863543,0.0297704905 8.2719189,0.10757593 7.38509449,0.252103242 C6.49951496,0.399777437 5.64168425,0.678184315 4.84060945,1.07790812 C4.04051181,1.48101153 3.30944488,2.00481153 2.6739126,2.63028958 C2.03504724,3.25401592 1.50250551,3.97495544 1.09676772,4.76538373 C0.689905512,5.55424471 0.407787165,6.39958178 0.260153543,7.27219544 C0.111116953,8.14371592 0.0309191181,9.02527251 0.0202795276,9.90897592 C0.00785748031,10.3127906 0.00654566929,10.7179486 0,11.1218159 L0,41.5649481 C0.00654566929,41.9738993 0.00785748031,42.3700749 0.0202795276,42.7791579 C0.0309223307,43.662914 0.111120299,44.544431 0.260153543,45.4158067 C0.407378898,46.2890262 0.689514646,47.1348506 1.09676772,47.9239091 C1.5023315,48.7117823 2.03494016,49.4298506 2.6739126,50.0500603 C3.30702205,50.6783042 4.03857087,51.2024993 4.84060945,51.6024945 C5.64168425,52.0032798 6.49942126,52.2834213 7.38509449,52.4333042 C8.27206614,52.5767335 9.16870236,52.6545725 10.0674803,52.6661628 C10.4812228,52.6751189 10.8877638,52.6802554 11.2975709,52.6802554 C11.7871173,52.6828896 12.272126,52.6828896 12.7629575,52.6828896 L156.584724,52.6828896 C157.066614,52.6828896 157.555197,52.6828896 158.035748,52.6802554 C158.444016,52.6802554 158.861654,52.6751189 159.269921,52.6661628 C160.166772,52.655231 161.062283,52.577392 161.947087,52.4333042 C162.835906,52.2823676 163.696614,52.0023579 164.501102,51.6024945 C165.302913,51.2022359 166.03378,50.6781725 166.666929,50.0500603 C167.304094,49.4274798 167.83685,48.7099384 168.247795,47.9239091 C168.652047,47.134192 168.931811,46.2884993 169.076378,45.4158067 C169.226299,44.5442993 169.309291,43.662914 169.325354,42.7791579 C169.330709,42.3700749 169.330709,41.9738993 169.330709,41.5649481 C169.341417,41.0864554 169.341417,40.6105969 169.341417,40.1243335 L169.341417,12.5597832 C169.341417,12.0774579 169.341417,11.5989915 169.330709,11.1218159 C169.330709,10.7179486 169.330709,10.3127906 169.325354,9.90892324 C169.309291,9.0251408 169.226299,8.14378178 169.076378,7.27214275 C168.931811,6.40002958 168.652047,5.55475836 168.247795,4.76533105 C167.42189,3.18099739 166.111417,1.89135885 164.501102,1.07778958 C163.696614,0.67904173 162.835906,0.400708608 161.947087,0.251984705 C161.062283,0.106820588 160.166772,0.028988149 159.269921,0.0191788515 C158.861654,0.0127515344 158.444016,0.00503348563 158.035748,0.00246519295 C157.555197,0 157.066614,0 156.584724,0 Z" id="Path" fill="#A6A6A6" fill-rule="nonzero"></path>
            <path d="M11.3041031,51.5303189 C10.8962772,51.5303189 10.4982764,51.5251823 10.0936496,51.5162262 C9.25540236,51.5054262 8.41910945,51.4336457 7.59165118,51.3014115 C6.82007874,51.1706262 6.07262756,50.9274945 5.37396772,50.5797871 C4.6817063,50.2349774 4.05031024,49.7829579 3.50396772,49.2408506 C2.94971417,48.7051969 2.48826457,48.0838018 2.13793071,47.4015579 C1.78372835,46.7148359 1.5385937,45.9787237 1.41108031,45.2189042 C1.27336827,44.4024506 1.19886276,43.5769091 1.18820094,42.749392 C1.17971433,42.4716213 1.16860409,41.5467725 1.16860409,41.5467725 L1.16860409,11.1216447 C1.16860409,11.1216447 1.18043717,10.2110071 1.18826787,9.94347007 C1.19847724,9.11724373 1.27254504,8.29297983 1.40983543,7.4778169 C1.53758976,6.71591641 1.78291181,5.9776969 2.13731496,5.28870958 C2.48636378,4.60688714 2.94524331,3.98511007 3.49615039,3.44750714 C4.04644173,2.90479397 4.67987244,2.45039056 5.37331181,2.10083934 C6.07036535,1.75429105 6.81639764,1.51279251 7.58641732,1.38443056 C8.41659291,1.25083456 9.25579055,1.17860627 10.0969425,1.16835153 L11.3047724,1.15227007 L158.029055,1.15227007 L159.251181,1.1689969 C160.085118,1.17874192 160.916378,1.25032617 161.739606,1.38313983 C162.517323,1.51312178 163.270945,1.75630617 163.976378,2.10469836 C165.365827,2.80913495 166.495591,3.92360275 167.209055,5.29192324 C167.557087,5.97615592 167.79937,6.70835641 167.925197,7.46367153 C168.064409,8.28552519 168.142047,9.1162691 168.15811,9.94926519 C168.162126,10.3222603 168.162126,10.722914 168.162126,11.1216447 C168.172835,11.6155471 168.172835,12.0856501 168.172835,12.559612 L168.172835,40.1242018 C168.172835,40.6026945 168.172835,41.0695969 168.162126,41.5403189 C168.162126,41.968631 168.162126,42.3609871 168.156772,42.7648018 C168.140709,43.5829676 168.064409,44.3988945 167.927874,45.2059969 C167.803386,45.9713481 167.558425,46.7131237 167.205039,47.4055091 C166.851654,48.0803774 166.393858,48.6963725 165.845039,49.2305774 C165.298898,49.7755823 164.665748,50.2302359 163.972362,50.5772847 C163.269606,50.9276262 162.515984,51.1716798 161.739606,51.3014115 C160.912362,51.4344359 160.075748,51.5062164 159.237795,51.5162262 C158.845591,51.5251823 158.434646,51.5303189 158.035748,51.5303189 L156.584724,51.532953 L11.3041031,51.5303189 Z" id="Path" fill="#000000" fill-rule="nonzero"></path>
        </g>
        <g id="Group" transform="translate(52.7011, 8.75)" fill="#FFFFFF">
            <g id="SwapCard" transform="translate(0, 10.5)" fill-rule="nonzero">
                <path d="M7.03764343,21.3217621 C5.84548442,21.3217621 4.80584208,21.1404037 3.91871643,20.7776871 C3.03159078,20.4149704 2.33239746,19.9005203 1.82113647,19.2343369 C1.30987549,18.5681534 1.02134705,17.7816518 0.955551147,16.8748322 L0.94480896,16.716217 L3.61373901,16.716217 L3.63002014,16.8375702 C3.69078064,17.2752024 3.87392934,17.6553472 4.17946625,17.9780045 C4.48500315,18.3006617 4.89049276,18.5512848 5.39593506,18.7298737 C5.90137736,18.9084625 6.47876994,18.997757 7.12811279,18.997757 C7.76828003,18.997757 8.32648214,18.9048538 8.80271912,18.7190475 C9.2789561,18.5332413 9.64986928,18.2720439 9.91545868,17.9354553 C10.1810481,17.5988668 10.3138428,17.2092946 10.3138428,16.7667389 L10.3138428,16.7559967 C10.3138428,16.1859894 10.096789,15.7276281 9.66268158,15.3809128 C9.22857412,15.0341975 8.51088969,14.7551524 7.5096283,14.5437775 L5.84190369,14.1968384 C4.28965759,13.8718872 3.14337667,13.3447088 2.40306091,12.615303 C1.66274516,11.8858973 1.29258728,10.9431305 1.29258728,9.78700256 L1.29258728,9.77626038 C1.29739889,8.85948181 1.54528046,8.05667114 2.03623199,7.36782837 C2.52718353,6.6789856 3.20450083,6.1416804 4.0681839,5.75591278 C4.93186696,5.37014516 5.92090352,5.17726135 7.03529358,5.17726135 C8.16993713,5.17726135 9.15746307,5.36508179 9.9978714,5.74072266 C10.8382797,6.11636353 11.4993998,6.63534546 11.9812317,7.29766846 C12.4630636,7.95999146 12.7324015,8.7208964 12.7892456,9.5803833 L12.7999878,9.74403381 L10.153717,9.74403381 L10.134079,9.60925293 C10.0702972,9.17945353 9.90314992,8.80789693 9.63263702,8.49458313 C9.36212413,8.18126933 9.00491842,7.93680064 8.5610199,7.76117706 C8.11712138,7.58555349 7.60199992,7.49891663 7.01565552,7.50126648 C6.42819214,7.50126648 5.9134903,7.58863068 5.47154999,7.76335907 C5.02960968,7.93808746 4.68583171,8.18331146 4.44021606,8.49903107 C4.19460042,8.81475067 4.0717926,9.18829346 4.0717926,9.61965942 L4.0717926,9.63040161 C4.0717926,10.1728821 4.28783925,10.6175639 4.71993256,10.964447 C5.15202586,11.3113302 5.84246318,11.5844727 6.79124451,11.7838745 L8.45896912,12.1341705 C9.5416921,12.3577423 10.4233348,12.6593068 11.1038971,13.0388641 C11.7844594,13.4184214 12.2861532,13.8920288 12.6089783,14.4596863 C12.9318034,15.0273438 13.0932159,15.7081858 13.0932159,16.5022125 L13.0932159,16.5129547 C13.0932159,17.4956411 12.8491669,18.3468475 12.3610687,19.0665741 C11.8729706,19.7863007 11.1760712,20.342097 10.2703705,20.733963 C9.3646698,21.1258291 8.28709412,21.3217621 7.03764343,21.3217621 Z" id="Path"></path>
                <polygon id="Path" points="17.3618966 21 14.2255136 9.44644165 16.9105569 9.44644165 18.8476754 18.227005 18.9651681 18.227005 21.2042428 9.44644165 23.757023 9.44644165 26.0085183 18.227005 26.126011 18.227005 28.0631295 9.44644165 30.7067147 9.44644165 27.5810739 21 24.7750131 21 22.5069009 12.5861816 22.3894082 12.5861816 20.1372415 21"></polygon>
                <path d="M35.2189797,21.1941986 C34.469824,21.1941986 33.80641,21.0496826 33.2287377,20.7606506 C32.6510654,20.4716187 32.1989144,20.0657934 31.8722848,19.5431747 C31.5456551,19.0205561 31.3823403,18.413147 31.3823403,17.7209473 L31.3823403,17.7013092 C31.3823403,17.0123545 31.5533481,16.4211426 31.8953637,15.9276733 C32.2373793,15.4342041 32.7353804,15.0453873 33.389367,14.7612228 C34.0433536,14.4770584 34.8362333,14.3070577 35.7680062,14.2512207 L40.1214455,13.9888763 L40.1214455,15.7516022 L36.1463326,16.0053864 C35.4471952,16.0461171 34.9205483,16.202774 34.5663918,16.4753571 C34.2122353,16.7479401 34.0351571,17.1174266 34.0351571,17.5838165 L34.0351571,17.6034546 C34.0351571,18.0841675 34.2185855,18.4618785 34.5854424,18.7365875 C34.9522993,19.0112966 35.4309141,19.1486511 36.0212868,19.1486511 C36.5466469,19.1486511 37.0158623,19.0432994 37.428933,18.8325958 C37.8420037,18.6218923 38.1682417,18.334343 38.407647,17.9699478 C38.6470523,17.6055527 38.766755,17.1951396 38.766755,16.7387085 L38.766755,13.1806946 C38.766755,12.5997213 38.5832706,12.1480459 38.2163018,11.8256683 C37.849333,11.5032908 37.3159442,11.3421021 36.6161355,11.3421021 C35.9929767,11.3421021 35.4895765,11.4626719 35.105935,11.7038116 C34.7222934,11.9449514 34.4751392,12.2677765 34.3644723,12.672287 L34.3465127,12.743454 L31.8474434,12.743454 L31.8581856,12.6358643 C31.9315906,11.9653727 32.1732898,11.3735733 32.5832833,10.860466 C32.9932768,10.3473587 33.5497724,9.94483439 34.2527703,9.65289307 C34.9557681,9.36095174 35.780203,9.21498108 36.726075,9.21498108 C37.7056283,9.21498108 38.5457568,9.37169393 39.2464608,9.68511963 C39.9471647,9.99854533 40.4855609,10.4442622 40.8616494,11.0222702 C41.2377378,11.6002782 41.4257821,12.2859039 41.4257821,13.0791473 L41.4257821,21 L38.766755,21 L38.766755,19.3128052 L38.6492623,19.3128052 C38.4336353,19.7010905 38.1544783,20.0364202 37.8117913,20.3187943 C37.4691043,20.6011683 37.0789447,20.8176626 36.6413125,20.968277 C36.2036802,21.1188914 35.7295693,21.1941986 35.2189797,21.1941986 Z" id="Path"></path>
                <path d="M43.8114946,24.8265686 L43.8114946,9.44644165 L46.4834459,9.44644165 L46.4834459,11.3531799 L46.6027849,11.3531799 C46.8210975,10.9099528 47.1025764,10.5312068 47.4472216,10.2169418 C47.7918667,9.9026769 48.1923209,9.66033427 48.6485842,9.48991394 C49.1048474,9.31949361 49.6047228,9.23428345 50.1482103,9.23428345 C51.1236233,9.23428345 51.9675844,9.47668203 52.6800936,9.96147919 C53.3926027,10.4462763 53.9431958,11.1357066 54.3318727,12.0297699 C54.7205497,12.9238332 54.9148882,13.9860229 54.9148882,15.2163391 L54.9148882,15.2321167 C54.9148882,16.4645589 54.721305,17.527448 54.3341387,18.420784 C53.9469723,19.31412 53.3990089,20.002683 52.6902483,20.4864731 C51.9814877,20.9702632 51.1410234,21.2121582 50.1688555,21.2121582 C49.6310747,21.2121582 49.1306678,21.1265004 48.6676348,20.9551849 C48.2046017,20.7838694 47.7977694,20.5409673 47.4471376,20.2264786 C47.0965059,19.9119898 46.8144396,19.5369364 46.6009386,19.1013184 L46.4834459,19.1013184 L46.4834459,24.8265686 L43.8114946,24.8265686 Z M49.3370073,18.9591522 C49.9280514,18.9591522 50.4368507,18.8083979 50.863405,18.5068893 C51.2899594,18.2053808 51.6182395,17.7757212 51.8482454,17.2179108 C52.0782513,16.6601003 52.1932543,15.9981689 52.1932543,15.2321167 L52.1932543,15.2163391 C52.1932543,14.4405518 52.0779436,13.7743403 51.8473223,13.2177048 C51.6167009,12.6610692 51.2881131,12.2335078 50.8615587,11.9350204 C50.4350044,11.6365331 49.9268206,11.4872894 49.3370073,11.4872894 C48.7598385,11.4872894 48.2549557,11.6387711 47.8223589,11.9417343 C47.389762,12.2446976 47.0543764,12.6742452 46.816202,13.2303772 C46.5780275,13.7865092 46.4589403,14.4485524 46.4589403,15.216507 L46.4589403,15.2322845 C46.4589403,15.9930776 46.5789507,16.6526591 46.8189714,17.2110291 C47.0589922,17.769399 47.3943499,18.2003454 47.8250444,18.5038681 C48.255739,18.8073908 48.7597266,18.9591522 49.3370073,18.9591522 Z" id="Shape"></path>
                <path d="M63.7243469,21.3217621 C62.2525553,21.3217621 60.9774241,20.9947408 59.8989533,20.3406982 C58.8204824,19.6866557 57.9889979,18.756813 57.4044998,17.5511703 C56.8200017,16.3455276 56.5277527,14.9127045 56.5277527,13.2527008 L56.5277527,13.2369232 C56.5277527,11.5745697 56.8202815,10.1415227 57.4053391,8.93778229 C57.9903966,7.73404185 58.8207062,6.80635325 59.8962677,6.15471649 C60.9718292,5.50307973 62.2466807,5.17726135 63.7208221,5.17726135 C64.9045888,5.17726135 65.968485,5.40704346 66.9125107,5.86660767 C67.8565364,6.32617188 68.6258057,6.9605484 69.2203186,7.76973724 C69.8148315,8.57892609 70.1749186,9.51050313 70.3005798,10.5644684 L70.3064545,10.6631622 L67.593045,10.6631622 L67.5589722,10.5319061 C67.4176453,9.92855326 67.1712463,9.40618642 66.8197754,8.9648056 C66.4683044,8.52342478 66.0307561,8.18104553 65.5071304,7.93766785 C64.9835047,7.69429016 64.3880686,7.57260132 63.7208221,7.57260132 C62.8316823,7.57260132 62.0600352,7.80277507 61.4058807,8.26312256 C60.7517263,8.72347005 60.2464239,9.37619781 59.8899735,10.2213058 C59.5335231,11.0664139 59.3552979,12.0704447 59.3552979,13.2333984 L59.3552979,13.2493439 C59.3552979,14.4086049 59.5335231,15.413503 59.8899735,16.2640381 C60.2464239,17.1145732 60.7526494,17.7709376 61.4086502,18.2331314 C62.064651,18.6953252 62.8376689,18.9264221 63.7277039,18.9264221 C64.3874532,18.9264221 64.9785812,18.8113632 65.501088,18.5812454 C66.0235947,18.3511276 66.4625977,18.0198822 66.8180969,17.5875092 C67.1735962,17.1551361 67.4257579,16.6368815 67.5745819,16.0327454 L67.5982483,15.9471436 L70.3151825,15.9471436 L70.3057831,16.0461731 C70.1720652,17.0919698 69.8096563,18.0108185 69.2185562,18.8027191 C68.6274562,19.5946198 67.8621872,20.2124354 66.9227493,20.6561661 C65.9833115,21.0998967 64.9171773,21.3217621 63.7243469,21.3217621 Z" id="Path"></path>
                <path d="M75.614994,21.1941986 C74.8658383,21.1941986 74.2024243,21.0496826 73.624752,20.7606506 C73.0470797,20.4716187 72.5949287,20.0657934 72.268299,19.5431747 C71.9416694,19.0205561 71.7783546,18.413147 71.7783546,17.7209473 L71.7783546,17.7013092 C71.7783546,17.0123545 71.9493624,16.4211426 72.291378,15.9276733 C72.6333936,15.4342041 73.1313946,15.0453873 73.7853813,14.7612228 C74.4393679,14.4770584 75.2322476,14.3070577 76.1640205,14.2512207 L80.5174598,13.9888763 L80.5174598,15.7516022 L76.5423469,16.0053864 C75.8432095,16.0461171 75.3165626,16.202774 74.9624061,16.4753571 C74.6082496,16.7479401 74.4311714,17.1174266 74.4311714,17.5838165 L74.4311714,17.6034546 C74.4311714,18.0841675 74.6145998,18.4618785 74.9814567,18.7365875 C75.3483136,19.0112966 75.8269284,19.1486511 76.4173011,19.1486511 C76.9426612,19.1486511 77.4118766,19.0432994 77.8249473,18.8325958 C78.238018,18.6218923 78.564256,18.334343 78.8036613,17.9699478 C79.0430666,17.6055527 79.1627693,17.1951396 79.1627693,16.7387085 L79.1627693,13.1806946 C79.1627693,12.5997213 78.9792849,12.1480459 78.6123161,11.8256683 C78.2453473,11.5032908 77.7119585,11.3421021 77.0121498,11.3421021 C76.388991,11.3421021 75.8855908,11.4626719 75.5019493,11.7038116 C75.1183077,11.9449514 74.8711535,12.2677765 74.7604865,12.672287 L74.742527,12.743454 L72.2434577,12.743454 L72.2541999,12.6358643 C72.3276049,11.9653727 72.5693041,11.3735733 72.9792976,10.860466 C73.3892911,10.3473587 73.9457867,9.94483439 74.6487846,9.65289307 C75.3517824,9.36095174 76.1762173,9.21498108 77.1220893,9.21498108 C78.1016426,9.21498108 78.9417711,9.37169393 79.6424751,9.68511963 C80.343179,9.99854533 80.8815752,10.4442622 81.2576637,11.0222702 C81.6337521,11.6002782 81.8217964,12.2859039 81.8217964,13.0791473 L81.8217964,21 L79.1627693,21 L79.1627693,19.3128052 L79.0452766,19.3128052 C78.8296496,19.7010905 78.5504925,20.0364202 78.2078056,20.3187943 C77.8651186,20.6011683 77.474959,20.8176626 77.0373268,20.968277 C76.5996945,21.1188914 76.1255836,21.1941986 75.614994,21.1941986 Z" id="Path"></path>
                <path d="M84.2075089,21 L84.2075089,9.44644165 L86.8794602,9.44644165 L86.8794602,11.3321991 L86.9969529,11.3321991 C87.1844936,10.6723378 87.5213059,10.1577199 88.0073899,9.78834534 C88.4934739,9.41897074 89.0916235,9.23428345 89.8018388,9.23428345 C89.9875891,9.23428345 90.1653108,9.24547323 90.3350037,9.26785278 C90.5046967,9.29023234 90.6472825,9.31697591 90.762761,9.3480835 L90.762761,11.7541656 C90.6027472,11.7073924 90.4198502,11.6704381 90.2140702,11.6433029 C90.0082902,11.6161677 89.7900335,11.6026001 89.5593003,11.6026001 C89.013351,11.6026001 88.5392681,11.7097422 88.1370515,11.9240265 C87.7348349,12.1383108 87.4246822,12.4458059 87.2065934,12.8465118 C86.9885046,13.2472178 86.8794602,13.7281545 86.8794602,14.2893219 L86.8794602,21 L84.2075089,21 Z" id="Path"></path>
                <path d="M96.1245164,21.2121582 C95.1549221,21.2121582 94.3130031,20.9697316 93.5987596,20.4848785 C92.884516,20.0000254 92.3330837,19.309728 91.9444627,18.4139862 C91.5558417,17.5182444 91.3615312,16.4563344 91.3615312,15.2282562 L91.3615312,15.2124786 C91.3615312,13.9788055 91.5557018,12.915301 91.9440431,12.021965 C92.3323843,11.128629 92.8821661,10.4406815 93.5933885,9.95812225 C94.3046108,9.47556305 95.1456346,9.23428345 96.1164598,9.23428345 C96.6555833,9.23428345 97.1554307,9.32022095 97.616002,9.49209595 C98.0765733,9.66397095 98.4833777,9.90810394 98.8364152,10.2244949 C99.1894527,10.5408859 99.4703162,10.9191844 99.6790055,11.3593903 L99.7964982,11.3593903 L99.7964982,5.12757874 L102.46845,5.12757874 L102.46845,21 L99.7964982,21 L99.7964982,19.1112213 L99.6790055,19.1112213 C99.4644975,19.5497487 99.1839697,19.924914 98.8374223,20.2367172 C98.4908748,20.5485204 98.0894695,20.7890447 97.6332063,20.9582901 C97.1769431,21.1275355 96.6740464,21.2121582 96.1245164,21.2121582 Z M96.9392442,18.9591522 C97.5187628,18.9591522 98.0245408,18.8076706 98.4565782,18.5047073 C98.8886155,18.2017441 99.2234417,17.7706858 99.4610566,17.2115326 C99.6986716,16.6523794 99.8174791,15.9924062 99.8174791,15.2316132 L99.8174791,15.2158356 C99.8174791,14.4504547 99.6974407,13.7894465 99.457364,13.232811 C99.2172873,12.6761754 98.8821814,12.2460963 98.4520463,11.9425735 C98.0219112,11.6390508 97.5176438,11.4872894 96.9392442,11.4872894 C96.3528998,11.4872894 95.8456112,11.6374283 95.4173783,11.937706 C94.9891455,12.2379837 94.6597184,12.6658249 94.4290971,13.2212296 C94.1984758,13.7766342 94.0831651,14.4403839 94.0831651,15.2124786 L94.0831651,15.2282562 C94.0831651,15.9978892 94.198168,16.6622823 94.4281739,17.2214355 C94.6581798,17.7805888 94.9873272,18.2099965 95.415616,18.5096588 C95.8439047,18.8093211 96.3517808,18.9591522 96.9392442,18.9591522 Z" id="Shape"></path>
            </g>
            <g id="Disponible-sur" transform="translate(0.2989, 0)" fill-rule="nonzero">
                <path d="M1.14704132,12 L1.14704132,2.84033203 L4.45783997,2.84033203 C5.36502584,2.84033203 6.14031601,3.01968638 6.78371048,3.37839508 C7.42710495,3.73710378 7.91921361,4.25556183 8.26003647,4.93376923 C8.60085932,5.61197662 8.77127075,6.43062592 8.77127075,7.3897171 L8.77127075,7.40241241 C8.77127075,8.37234751 8.60125605,9.20038605 8.26122665,9.88652802 C7.92119726,10.57267 7.43032837,11.0964508 6.78862,11.4578705 C6.14691162,11.8192902 5.36998494,12 4.45783997,12 L1.14704132,12 Z M2.57357788,10.7691498 L4.29904938,10.7691498 C4.93771617,10.7691498 5.48196157,10.6382294 5.93178558,10.3763885 C6.3816096,10.1145477 6.72454834,9.73350652 6.96060181,9.23326492 C7.19665527,8.73302333 7.31468201,8.12928518 7.31468201,7.42205048 L7.31468201,7.40935516 C7.31468201,6.70727793 7.19521713,6.1069781 6.95628738,5.60845566 C6.71735764,5.10993322 6.37278239,4.72909037 5.92256165,4.46592712 C5.4723409,4.20276388 4.93117015,4.07118225 4.29904938,4.07118225 L2.57357788,4.07118225 L2.57357788,10.7691498 Z" id="Shape"></path>
                <path d="M10.8049231,12 L10.8049231,5.10366821 L12.1840506,5.10366821 L12.1840506,12 L10.8049231,12 Z M11.4995948,3.87410736 C11.2643348,3.87410736 11.0613089,3.78968684 10.8905173,3.62084579 C10.7197257,3.45200475 10.6343299,3.24995422 10.6343299,3.01469421 C10.6343299,2.77513631 10.7197257,2.57179642 10.8905173,2.40467453 C11.0613089,2.23755264 11.2643348,2.1539917 11.4995948,2.1539917 C11.7391527,2.1539917 11.9432695,2.23755264 12.1119452,2.40467453 C12.280621,2.57179642 12.3649588,2.77513631 12.3649588,3.01469421 C12.3649588,3.24995422 12.280621,3.45200475 12.1119452,3.62084579 C11.9432695,3.78968684 11.7391527,3.87410736 11.4995948,3.87410736 Z" id="Shape"></path>
                <path d="M16.9415434,12.1311188 C16.3879087,12.1311188 15.9059662,12.0500043 15.4957159,11.8877754 C15.0854655,11.7255465 14.759801,11.4993451 14.5187223,11.2091713 C14.2776436,10.9189974 14.1355487,10.5817286 14.0924375,10.1973648 L14.0912473,10.1868515 L15.4749372,10.1868515 L15.4784086,10.1961746 C15.5652921,10.4549077 15.7336703,10.6648102 15.9835432,10.825882 C16.233416,10.9869537 16.5630974,11.0674896 16.9725874,11.0674896 C17.2559177,11.0674896 17.5045342,11.026858 17.718437,10.9455948 C17.9323398,10.8643316 18.1006023,10.7524872 18.2232244,10.6100616 C18.3458466,10.4676361 18.4071577,10.3024648 18.4071577,10.1145477 L18.4071577,10.1030426 C18.4071577,9.88656108 18.3202741,9.70423126 18.146507,9.55605316 C17.97274,9.40787506 17.6866656,9.28726959 17.2882841,9.19423676 L16.189842,8.94261169 C15.7562177,8.84342957 15.3979884,8.70946757 15.1151541,8.54072571 C14.8323197,8.37198385 14.6225991,8.16360219 14.4859922,7.91558075 C14.3493854,7.66755931 14.2810819,7.37672424 14.2810819,7.04307556 L14.2810819,7.03672791 C14.2810819,6.6341807 14.3958522,6.27781932 14.6253927,5.96764374 C14.8549332,5.65746816 15.1719524,5.41409175 15.5764501,5.2375145 C15.9809479,5.06093725 16.4422275,4.97264862 16.9602888,4.97264862 C17.4874087,4.97264862 17.9465724,5.05376307 18.3377798,5.21599197 C18.7289872,5.37822088 19.0385676,5.60288493 19.2665212,5.88998413 C19.4944748,6.17708333 19.6292138,6.50762431 19.670738,6.88160706 L19.670738,6.88973999 L18.3513181,6.88973999 L18.3489378,6.87922668 C18.2855935,6.6378835 18.1349358,6.43684133 17.8969648,6.27610016 C17.6589938,6.11535899 17.3450493,6.0349884 16.9551313,6.0349884 C16.7052585,6.0349884 16.4830574,6.07390086 16.2885282,6.15172577 C16.093999,6.22955068 15.9406138,6.3376592 15.8283727,6.47605133 C15.7161316,6.61444346 15.6600111,6.77667236 15.6600111,6.96273804 L15.6600111,6.97424316 C15.6600111,7.115743 15.6971052,7.24087779 15.7712934,7.34964752 C15.8454817,7.45841726 15.9625662,7.55354945 16.1225469,7.6350441 C16.2825277,7.71653875 16.4907606,7.78882599 16.7472456,7.85190582 L17.8405302,8.10353088 C18.5047198,8.25772603 18.9977542,8.48315048 19.3196333,8.77980423 C19.6415123,9.07645798 19.8024519,9.47488912 19.8024519,9.97509766 L19.8024519,9.98660278 C19.8024519,10.4122925 19.6779618,10.7866554 19.4289816,11.1096916 C19.1800014,11.4327278 18.8404844,11.6837247 18.4104307,11.8626823 C17.980377,12.04164 17.4907479,12.1311188 16.9415434,12.1311188 Z" id="Path"></path>
                <path d="M21.6941576,14.2967606 L21.6941576,5.10366821 L23.0732851,5.10366821 L23.0732851,6.19199371 L23.1795091,6.19199371 C23.3121487,5.93888092 23.4823287,5.72297796 23.6900491,5.54428482 C23.8977696,5.36559168 24.1372448,5.22795995 24.4084749,5.13138962 C24.679705,5.03481929 24.9759289,4.98653412 25.2971468,4.98653412 C25.8784863,4.98653412 26.3827448,5.13300959 26.8099222,5.42596054 C27.2370996,5.71891149 27.5680208,6.13122813 27.8026857,6.66291046 C28.0373506,7.19459279 28.1546831,7.82211812 28.1546831,8.54548645 L28.1546831,8.55818176 C28.1546831,9.28578186 28.0379292,9.91562144 27.8044214,10.4477005 C27.5709136,10.9797796 27.240571,11.3910383 26.8133936,11.6814766 C26.3862161,11.9719149 25.8808005,12.1171341 25.2971468,12.1171341 C24.9816815,12.1171341 24.6861353,12.0674108 24.4105081,11.9679642 C24.134881,11.8685176 23.8917691,11.7289518 23.6811723,11.5492668 C23.4705756,11.3695819 23.3033546,11.1554642 23.1795091,10.9069138 L23.0732851,10.9069138 L23.0732851,14.2967606 L21.6941576,14.2967606 Z M24.9047823,10.9347839 C25.2903363,10.9347839 25.6201664,10.8393377 25.8942728,10.6484451 C26.1683791,10.4575526 26.3791577,10.1841901 26.5266084,9.8283577 C26.6740592,9.47252528 26.7477846,9.0491333 26.7477846,8.55818176 L26.7477846,8.54548645 C26.7477846,8.05030314 26.6740592,7.62567139 26.5266084,7.27159119 C26.3791577,6.91751099 26.1683791,6.64522298 25.8942728,6.45472717 C25.6201664,6.26423136 25.2903363,6.16898346 24.9047823,6.16898346 C24.5226666,6.16898346 24.1926215,6.26489258 23.9146471,6.45671082 C23.6366726,6.64852905 23.4231004,6.92129644 23.2739305,7.27501297 C23.1247606,7.6287295 23.0501756,8.05182393 23.0501756,8.54429626 L23.0501756,8.55699158 C23.0501756,9.04529826 23.124959,9.46754964 23.2745256,9.82374573 C23.4240923,10.1799418 23.6378463,10.4541639 23.9157877,10.6464119 C24.1937291,10.8386599 24.5233939,10.9347839 24.9047823,10.9347839 Z" id="Shape"></path>
                <path d="M32.9699711,12.1311188 C32.2977146,12.1311188 31.7177141,11.9873212 31.2299694,11.6997261 C30.7422248,11.412131 30.3666551,11.0011368 30.1032604,10.4667435 C29.8398658,9.93235016 29.7081684,9.29576619 29.7081684,8.55699158 L29.7081684,8.54429626 C29.7081684,7.80525716 29.8404443,7.16872279 30.1049961,6.63469315 C30.3695479,6.1006635 30.7456962,5.69014867 31.2334408,5.40314865 C31.7211855,5.11614863 32.3000289,4.97264862 32.9699711,4.97264862 C33.6442112,4.97264862 34.2243275,5.11595027 34.7103199,5.40255356 C35.1963124,5.68915685 35.5714026,6.09947332 35.8355908,6.63350296 C36.0997789,7.1675326 36.231873,7.8044637 36.231873,8.54429626 L36.231873,8.55699158 C36.231873,9.29576619 36.100374,9.93235016 35.837376,10.4667435 C35.5743781,11.0011368 35.1998664,11.412131 34.7138409,11.6997261 C34.2278154,11.9873212 33.6465255,12.1311188 32.9699711,12.1311188 Z M32.9699711,10.97892 C33.3643854,10.97892 33.6988275,10.882796 33.9732975,10.6905479 C34.2477675,10.4982999 34.4575543,10.2218297 34.6026577,9.86113739 C34.7477612,9.50044505 34.8203129,9.06612651 34.8203129,8.55818176 L34.8203129,8.54548645 C34.8203129,8.03483073 34.7475628,7.59935506 34.6020626,7.23905945 C34.4565624,6.87876383 34.2465774,6.60297139 33.9721073,6.41168213 C33.6976373,6.22039286 33.3635919,6.12474823 32.9699711,6.12474823 C32.5771438,6.12474823 32.2433132,6.22039286 31.9684796,6.41168213 C31.6936459,6.60297139 31.4834624,6.87876383 31.3379292,7.23905945 C31.1923959,7.59935506 31.1196293,8.03483073 31.1196293,8.54548645 L31.1196293,8.55818176 C31.1196293,9.06691996 31.1921976,9.50163523 31.3373341,9.86232758 C31.4824706,10.2230199 31.6924557,10.4992917 31.9672894,10.691143 C32.2421231,10.8829943 32.5763503,10.97892 32.9699711,10.97892 Z" id="Shape"></path>
                <path d="M38.1189574,12 L38.1189574,5.10366821 L39.4980849,5.10366821 L39.4980849,6.15063477 L39.604309,6.15063477 C39.7731169,5.78128052 40.0227749,5.49261093 40.3532828,5.28462601 C40.6837907,5.07664108 41.1000746,4.97264862 41.6021346,4.97264862 C42.3754246,4.97264862 42.9673931,5.19473394 43.3780402,5.63890457 C43.7886873,6.08307521 43.9940108,6.71567535 43.9940108,7.53670502 L43.9940108,12 L42.6148833,12 L42.6148833,7.8603363 C42.6148833,7.28752645 42.4944431,6.86010106 42.2535628,6.57806015 C42.0126825,6.29601924 41.6390965,6.15499878 41.1328048,6.15499878 C40.7975692,6.15499878 40.5079077,6.22824478 40.2638205,6.37473679 C40.0197333,6.52122879 39.8310889,6.72827148 39.6978873,6.99586487 C39.5646857,7.26345825 39.4980849,7.58272552 39.4980849,7.95366669 L39.4980849,12 L38.1189574,12 Z" id="Path"></path>
                <path d="M46.1822912,12 L46.1822912,5.10366821 L47.5614187,5.10366821 L47.5614187,12 L46.1822912,12 Z M46.8769629,3.87410736 C46.6417028,3.87410736 46.438677,3.78968684 46.2678854,3.62084579 C46.0970938,3.45200475 46.011698,3.24995422 46.011698,3.01469421 C46.011698,2.77513631 46.0970938,2.57179642 46.2678854,2.40467453 C46.438677,2.23755264 46.6417028,2.1539917 46.8769629,2.1539917 C47.1165208,2.1539917 47.3206376,2.23755264 47.4893133,2.40467453 C47.6579891,2.57179642 47.7423269,2.77513631 47.7423269,3.01469421 C47.7423269,3.24995422 47.6579891,3.45200475 47.4893133,3.62084579 C47.3206376,3.78968684 47.1165208,3.87410736 46.8769629,3.87410736 Z" id="Shape"></path>
                <path d="M53.4796399,12.1171341 C53.1584221,12.1171341 52.8621981,12.0688489 52.590968,11.9722786 C52.319738,11.8757083 52.0802627,11.7378947 51.8725423,11.5588379 C51.6648218,11.3797811 51.4946418,11.16406 51.3620023,10.9116745 L51.2557782,10.9116745 L51.2557782,12 L49.8766507,12 L49.8766507,2.40313721 L51.2557782,2.40313721 L51.2557782,6.19675446 L51.3620023,6.19675446 C51.4858477,5.94741058 51.6530688,5.73309453 51.8636655,5.5538063 C52.0742622,5.37451808 52.3173741,5.23515066 52.5930013,5.13570404 C52.8686284,5.03625743 53.1641746,4.98653412 53.4796399,4.98653412 C54.0632937,4.98653412 54.5687093,5.13175329 54.9958867,5.42219162 C55.4230641,5.71262995 55.7534067,6.12388865 55.9869145,6.65596771 C56.2204223,7.18804677 56.3371762,7.81788635 56.3371762,8.54548645 L56.3371762,8.55818176 C56.3371762,9.28075663 56.2198438,9.90894318 55.9851789,10.4427414 C55.7505139,10.9765396 55.4195928,11.3890546 54.9924153,11.6802864 C54.5652379,11.9715182 54.0609794,12.1171341 53.4796399,12.1171341 Z M53.0872754,10.9347839 C53.4728294,10.9347839 53.8026596,10.8395195 54.0767659,10.6489906 C54.3508723,10.4584618 54.5616508,10.1852976 54.7091016,9.82949829 C54.8565523,9.47369893 54.9302777,9.04992676 54.9302777,8.55818176 L54.9302777,8.54548645 C54.9302777,8.0510966 54.8565523,7.62684504 54.7091016,7.27273178 C54.5616508,6.91861852 54.3508723,6.64613215 54.0767659,6.45527267 C53.8026596,6.2644132 53.4728294,6.16898346 53.0872754,6.16898346 C52.7058871,6.16898346 52.3762222,6.26509094 52.0982808,6.45730591 C51.8203394,6.64952087 51.6065854,6.92266846 51.4570188,7.27674866 C51.3074521,7.63082886 51.2326688,8.05413818 51.2326688,8.54667664 L51.2326688,8.55937195 C51.2326688,9.04761251 51.3072537,9.469649 51.4564237,9.82548141 C51.6055936,10.1813138 51.8191658,10.4551557 52.0971402,10.647007 C52.3751147,10.8388583 52.7051597,10.9347839 53.0872754,10.9347839 Z" id="Shape"></path>
                <polygon id="Path" points="58.2877341 12 58.2877341 2.40313721 59.6668616 2.40313721 59.6668616 12"></polygon>
                <path d="M64.8566769,12.1311188 C64.1840237,12.1311188 63.606139,11.9860649 63.1230228,11.6959572 C62.6399067,11.4058495 62.2681886,10.9944585 62.0078686,10.4617844 C61.7475485,9.92911021 61.6173885,9.29936981 61.6173885,8.57256317 L61.6173885,8.56621552 C61.6173885,7.84635162 61.7473502,7.21748734 62.0072735,6.67962265 C62.2671968,6.14175797 62.6349641,5.72279612 63.1105755,5.42273712 C63.5861869,5.12267812 64.1441855,4.97264862 64.7845715,4.97264862 C65.4275361,4.97264862 65.9811708,5.11710739 66.4454754,5.40602493 C66.90978,5.69494247 67.2667199,6.09861374 67.5162952,6.61703873 C67.7658705,7.13546371 67.8906582,7.73999532 67.8906582,8.43063354 L67.8906582,8.91464233 L62.3190029,8.91464233 L62.3190029,7.92986298 L67.2058056,7.92986298 L66.5412853,8.84313202 L66.5412853,8.29455566 C66.5412853,7.80056254 66.4668822,7.39227931 66.3180759,7.06970596 C66.1692697,6.74713262 65.9635825,6.50559107 65.7010143,6.34508133 C65.4384462,6.18457158 65.1354778,6.10431671 64.7921093,6.10431671 C64.4496003,6.10431671 64.1442682,6.18802643 63.8761127,6.35544586 C63.6079573,6.5228653 63.3960382,6.76959737 63.2403553,7.09564209 C63.0846724,7.42168681 63.006831,7.82132467 63.006831,8.29455566 L63.006831,8.84541321 C63.006831,9.2979482 63.0829367,9.68462626 63.2351482,10.0054474 C63.3873597,10.3262685 63.6043702,10.5721245 63.8861797,10.7430153 C64.1679892,10.9139061 64.5015057,10.9993515 64.886729,10.9993515 C65.1816967,10.9993515 65.436446,10.9580091 65.6509769,10.8753242 C65.8655079,10.7926394 66.0410107,10.689771 66.1774853,10.5667191 C66.3139599,10.4436671 66.4087449,10.3233592 66.4618404,10.2057953 L66.4848507,10.1557083 L67.8174618,10.1545181 L67.8035763,10.2111511 C67.7466457,10.4384766 67.6440418,10.6649755 67.4957645,10.8906479 C67.3474873,11.1163203 67.1521481,11.3227844 66.9097469,11.5100403 C66.6673458,11.6972961 66.3749734,11.8476232 66.0326298,11.9610214 C65.6902861,12.0744197 65.2983018,12.1311188 64.8566769,12.1311188 Z" id="Path"></path>
                <path d="M76.0768495,12.1311188 C75.5232149,12.1311188 75.0412724,12.0500043 74.631022,11.8877754 C74.2207717,11.7255465 73.8951072,11.4993451 73.6540285,11.2091713 C73.4129498,10.9189974 73.2708549,10.5817286 73.2277437,10.1973648 L73.2265535,10.1868515 L74.6102434,10.1868515 L74.6137148,10.1961746 C74.7005983,10.4549077 74.8689765,10.6648102 75.1188493,10.825882 C75.3687222,10.9869537 75.6984036,11.0674896 76.1078935,11.0674896 C76.3912238,11.0674896 76.6398404,11.026858 76.8537431,10.9455948 C77.0676459,10.8643316 77.2359084,10.7524872 77.3585306,10.6100616 C77.4811528,10.4676361 77.5424639,10.3024648 77.5424639,10.1145477 L77.5424639,10.1030426 C77.5424639,9.88656108 77.4555803,9.70423126 77.2818132,9.55605316 C77.1080461,9.40787506 76.8219718,9.28726959 76.4235903,9.19423676 L75.3251482,8.94261169 C74.8915239,8.84342957 74.5332946,8.70946757 74.2504602,8.54072571 C73.9676258,8.37198385 73.7579052,8.16360219 73.6212984,7.91558075 C73.4846915,7.66755931 73.4163881,7.37672424 73.4163881,7.04307556 L73.4163881,7.03672791 C73.4163881,6.6341807 73.5311584,6.27781932 73.7606989,5.96764374 C73.9902394,5.65746816 74.3072585,5.41409175 74.7117563,5.2375145 C75.1162541,5.06093725 75.5775336,4.97264862 76.095595,4.97264862 C76.6227149,4.97264862 77.0818786,5.05376307 77.473086,5.21599197 C77.8642933,5.37822088 78.1738738,5.60288493 78.4018274,5.88998413 C78.629781,6.17708333 78.7645199,6.50762431 78.8060442,6.88160706 L78.8060442,6.88973999 L77.4866243,6.88973999 L77.4842439,6.87922668 C77.4208996,6.6378835 77.270242,6.43684133 77.032271,6.27610016 C76.7943,6.11535899 76.4803555,6.0349884 76.0904375,6.0349884 C75.8405646,6.0349884 75.6183636,6.07390086 75.4238344,6.15172577 C75.2293052,6.22955068 75.07592,6.3376592 74.9636789,6.47605133 C74.8514378,6.61444346 74.7953172,6.77667236 74.7953172,6.96273804 L74.7953172,6.97424316 C74.7953172,7.115743 74.8324114,7.24087779 74.9065996,7.34964752 C74.9807878,7.45841726 75.0978723,7.55354945 75.2578531,7.6350441 C75.4178339,7.71653875 75.6260668,7.78882599 75.8825517,7.85190582 L76.9758363,8.10353088 C77.640026,8.25772603 78.1330604,8.48315048 78.4549394,8.77980423 C78.7768185,9.07645798 78.937758,9.47488912 78.937758,9.97509766 L78.937758,9.98660278 C78.937758,10.4122925 78.8132679,10.7866554 78.5642877,11.1096916 C78.3153075,11.4327278 77.9757906,11.6837247 77.5457369,11.8626823 C77.1156832,12.04164 76.626054,12.1311188 76.0768495,12.1311188 Z" id="Path"></path>
                <path d="M83.1267202,12.1311188 C82.6089234,12.1311188 82.1742081,12.0313581 81.8225744,11.8318367 C81.4709407,11.6323153 81.2069344,11.3408686 81.0305555,10.9574966 C80.8541766,10.5741247 80.7659872,10.1106135 80.7659872,9.5669632 L80.7659872,5.10366821 L82.1451147,5.10366821 L82.1451147,9.24333191 C82.1451147,9.81270345 82.2568929,10.2392693 82.4804495,10.5230293 C82.704006,10.8067894 83.0689632,10.9486694 83.575321,10.9486694 C83.8493943,10.9486694 84.0916631,10.9069633 84.3021276,10.8235512 C84.5125921,10.740139 84.6893181,10.6204758 84.8323057,10.4645615 C84.9752933,10.3086472 85.0826414,10.1198705 85.1543501,9.89823151 C85.2260587,9.67659251 85.2619131,9.42718252 85.2619131,9.15000153 L85.2619131,5.10366821 L86.6410406,5.10366821 L86.6410406,12 L85.2619131,12 L85.2619131,10.9582901 L85.155689,10.9582901 C85.0479772,11.2033361 84.8989065,11.4138832 84.7084768,11.5899315 C84.5180471,11.7659798 84.2901927,11.9001897 84.0249136,11.9925613 C83.7596344,12.084933 83.4602367,12.1311188 83.1267202,12.1311188 Z" id="Path"></path>
                <path d="M88.8720685,12 L88.8720685,5.10366821 L90.251196,5.10366821 L90.251196,6.14607239 L90.3574201,6.14607239 C90.4815961,5.77863566 90.6987058,5.4935201 91.0087491,5.29072571 C91.3187924,5.08793132 91.7028918,4.98653412 92.1610471,4.98653412 C92.2746437,4.98653412 92.3865707,4.99279912 92.4968282,5.00532913 C92.6070856,5.01785914 92.696333,5.03186035 92.7645703,5.04733276 L92.7645703,6.31904602 C92.6417829,6.29325867 92.5202186,6.27371979 92.3998776,6.26042938 C92.2795367,6.24713898 92.1537407,6.24049377 92.0224896,6.24049377 C91.6712527,6.24049377 91.3627467,6.30818558 91.0969716,6.44356918 C90.8311966,6.57895279 90.6237902,6.76915105 90.4747525,7.01416397 C90.3257148,7.25917689 90.251196,7.54804484 90.251196,7.88076782 L90.251196,12 L88.8720685,12 Z" id="Path"></path>
            </g>
        </g>
        <g id="Group-Copy-2" transform="translate(8, 17.5)">
            <path d="M35.3511534,6.78396951 C35.124818,6.78396951 34.916834,6.66774319 34.8006077,6.47811077 C33.7301021,4.73471594 31.8337779,3.67032751 29.7845243,3.67032751 C28.0655982,3.67032751 26.4261953,4.42274002 25.3067523,5.73181544 L17.1647926,15.268491 C16.7977621,15.7456307 16.3879114,16.1799501 15.9413577,16.5836836 C14.1857285,18.1435632 11.9162566,19.0060849 9.56726146,19 C4.29425674,19 0,14.7362968 0,9.5 C0,4.26369347 4.29425674,0 9.56726146,0 C12.3811619,-0.00609456933 15.0482501,1.22957475 16.8711682,3.36446877 L18.7919611,5.62170629 C18.8898359,5.73793261 18.8898359,5.90309633 18.7919611,6.01932266 L16.7671763,8.38666932 C16.7060045,8.45395825 16.6203641,8.49677847 16.5347236,8.49677847 C16.442966,8.49677847 16.3573255,8.46007542 16.2961538,8.38666932 L14.0450335,5.74404979 L14.0450335,5.74404979 L14.0450335,5.74404979 C12.9255905,4.43497437 11.2861876,3.67644469 9.56726146,3.68256186 C6.33127597,3.68256186 3.70089078,6.29459552 3.70089078,9.50611232 C3.70089078,12.7176291 6.33127597,15.3296628 9.56726146,15.3296628 C11.0109147,15.3296628 12.3995134,14.8035857 13.4761362,13.8493065 C13.5862453,13.7514317 23.0801007,2.71604824 23.4104281,2.42242385 C25.1660573,0.862544259 27.4355292,0 29.7906415,0.00613978037 C33.7851567,0.00613978037 37.2168918,2.45300972 38.6483107,5.91533068 C38.727834,6.11108028 38.7033653,6.33741575 38.5871389,6.51481382 C38.4647954,6.69221189 38.2690458,6.79620386 38.0488276,6.79620386 L35.3511534,6.78396951 L35.3511534,6.78396951 Z" id="Path" fill="#FFFFFF"></path>
            <path d="M29.7906415,18.9938731 C26.9767411,18.9999677 24.3096528,17.7642984 22.4867347,15.6232872 L20.5537075,13.3599325 C20.4558327,13.2437062 20.4558327,13.0785424 20.5537075,12.9623161 L22.5784924,10.5949694 C22.6396641,10.5276805 22.7253046,10.4848603 22.8170622,10.4848603 C22.9088198,10.4848603 22.9944603,10.5215633 23.0495148,10.5949694 L25.3128695,13.2498233 C26.4323125,14.5650159 28.0655982,15.3174284 29.7906415,15.3174284 C31.8398951,15.3174284 33.7362193,14.25304 34.8067249,12.5096452 C34.9229512,12.3200127 35.1309352,12.2037864 35.3572706,12.2037864 L38.0488276,12.2037864 C38.2629287,12.2037864 38.4647954,12.3077784 38.5871389,12.4851765 C38.7094824,12.6625745 38.727834,12.88891 38.6483107,13.0846596 C37.2168918,16.5469806 33.7851567,18.9938731 29.7906415,18.9938731 L29.7906415,18.9938731 Z" id="Path" fill="#59B570" fill-rule="nonzero"></path>
        </g>
    </g>
</svg>