<?xml version="1.0" encoding="UTF-8"?>
<svg width="180px" height="54px" viewBox="0 0 180 54" version="1.1" xmlns="http://www.w3.org/2000/svg" xmlns:xlink="http://www.w3.org/1999/xlink">
    <title>swapcard-fr copy</title>
    <defs>
        <path d="M0,0 L180,0 L180,54 L0,54 L0,0 Z" id="path-1"></path>
    </defs>
    <g id="swapcard-fr-copy" stroke="none" fill="none" transform="translate(0, 0.0002)" xlink:href="#path-1" fill-rule="evenodd" stroke-width="1">
        <g id="Group-Copy-3" transform="translate(0, 0.0002)">
            <path d="M166.440383,0 L13.5662757,0 C13.0445221,0 12.529029,0 12.0086556,0.00263641246 C11.5730547,0.0052705588 11.1409255,0.0129227539 10.7011414,0.0193632417 C9.74572201,0.0297704905 8.7925649,0.10757593 7.84992253,0.252103242 C6.90860341,0.399777437 5.99677965,0.678184315 5.14528409,1.07790812 C4.2948272,1.48101153 3.51774591,2.00481153 2.84221235,2.63028958 C2.16313593,3.25401592 1.59707528,3.97495544 1.16579979,4.76538373 C0.733329118,5.55424471 0.433453853,6.39958178 0.276527967,7.27219544 C0.118110807,8.14371592 0.0328652101,9.02527251 0.021555949,9.90897592 C0.00835204098,10.3127906 0.00695766276,10.7179486 0,11.1218159 L0,41.5649481 C0.00695766276,41.9738993 0.00835204098,42.3700749 0.021555949,42.7791579 C0.0328686249,43.662914 0.118114364,44.544431 0.276527967,45.4158067 C0.433019888,46.2890262 0.73291365,47.1348506 1.16579979,47.9239091 C1.59689032,48.7117823 2.1630221,49.4298506 2.84221235,50.0500603 C3.51517058,50.6783042 4.29276409,51.2024993 5.14528409,51.6024945 C5.99677965,52.0032798 6.90850381,52.2834213 7.84992253,52.4333042 C8.79272141,52.5767335 9.74579315,52.6545725 10.7011414,52.6661628 C11.1409255,52.6751189 11.5730547,52.6802554 12.0086556,52.6802554 C12.5290148,52.6828896 13.0445505,52.6828896 13.5662757,52.6828896 L166.440383,52.6828896 C166.952604,52.6828896 167.471939,52.6828896 167.982736,52.6802554 C168.416701,52.6802554 168.860625,52.6751189 169.29459,52.6661628 C170.247889,52.655231 171.199766,52.577392 172.14026,52.4333042 C173.085022,52.2823676 173.999905,52.0023579 174.855029,51.6024945 C175.707307,51.2022359 176.484175,50.6781725 177.157176,50.0500603 C177.834445,49.4274798 178.400734,48.7099384 178.837544,47.9239091 C179.26724,47.134192 179.564613,46.2884993 179.718279,45.4158067 C179.877636,44.5442993 179.965852,43.662914 179.982926,42.7791579 C179.988617,42.3700749 179.988617,41.9738993 179.988617,41.5649481 C180,41.0864554 180,40.6105969 180,40.1243335 L180,12.5597832 C180,12.0774579 180,11.5989915 179.988617,11.1218159 C179.988617,10.7179486 179.988617,10.3127906 179.982926,9.90892324 C179.965852,9.0251408 179.877636,8.14378178 179.718279,7.27214275 C179.564613,6.40002958 179.26724,5.55475836 178.837544,4.76533105 C177.959655,3.18099739 176.566699,1.89135885 174.855029,1.07778958 C173.999905,0.67904173 173.085022,0.400708608 172.14026,0.251984705 C171.199766,0.106820588 170.247889,0.028988149 169.29459,0.0191788515 C168.860625,0.0127515344 168.416701,0.00503348563 167.982736,0.00246519295 C167.471939,0 166.952604,0 166.440383,0 Z" id="Path" fill="#A6A6A6" fill-rule="nonzero"></path>
            <path d="M12.015599,51.5303189 C11.5821039,51.5303189 11.1590524,51.5251823 10.7289579,51.5162262 C9.83795017,51.5054262 8.94901982,51.4336457 8.06948019,51.3014115 C7.24934392,51.1706262 6.45484712,50.9274945 5.71221267,50.5797871 C4.97637936,50.2349774 4.30524236,49.7829579 3.72451228,49.2408506 C3.13537326,48.7051969 2.64487938,48.0838018 2.27249502,47.4015579 C1.89599867,46.7148359 1.63543491,45.9787237 1.49989566,45.2189042 C1.35351583,44.4024506 1.27432083,43.5769091 1.26298795,42.749392 C1.25396718,42.4716213 1.24215765,41.5467725 1.24215765,41.5467725 L1.24215765,11.1216447 C1.24215765,11.1216447 1.25473551,10.2110071 1.2630591,9.94347007 C1.27391106,9.11724373 1.35264078,8.29297983 1.49857242,7.4778169 C1.63436779,6.71591641 1.89513074,5.9776969 2.27184052,5.28870958 C2.64285895,4.60688714 3.13062099,3.98511007 3.71620293,3.44750714 C4.30113036,2.90479397 4.97443008,2.45039056 5.71151548,2.10083934 C6.45244253,1.75429105 7.24543112,1.51279251 8.06391691,1.38443056 C8.9463449,1.25083456 9.83836279,1.17860627 10.732458,1.16835153 L12.0163104,1.15227007 L167.975622,1.15227007 L169.27467,1.1689969 C170.161097,1.17874192 171.044677,1.25032617 171.91972,1.38313983 C172.746388,1.51312178 173.547444,1.75630617 174.297278,2.10469836 C175.77418,2.80913495 176.975053,3.92360275 177.733424,5.29192324 C178.103361,5.97615592 178.360894,6.70835641 178.494641,7.46367153 C178.642615,8.28552519 178.72514,9.1162691 178.742214,9.94926519 C178.746482,10.3222603 178.746482,10.722914 178.746482,11.1216447 C178.757865,11.6155471 178.757865,12.0856501 178.757865,12.559612 L178.757865,40.1242018 C178.757865,40.6026945 178.757865,41.0695969 178.746482,41.5403189 C178.746482,41.968631 178.746482,42.3609871 178.740791,42.7648018 C178.723717,43.5829676 178.642615,44.3988945 178.497486,45.2059969 C178.365163,45.9713481 178.104784,46.7131237 177.729155,47.4055091 C177.353527,48.0803774 176.866918,48.6963725 176.283555,49.2305774 C175.703039,49.7755823 175.030038,50.2302359 174.293009,50.5772847 C173.546021,50.9276262 172.744965,51.1716798 171.91972,51.3014115 C171.040409,51.4344359 170.151137,51.5062164 169.260442,51.5162262 C168.843551,51.5251823 168.406741,51.5303189 167.982736,51.5303189 L166.440383,51.532953 L12.015599,51.5303189 Z" id="Path" fill="#000000" fill-rule="nonzero"></path>
        </g>
        <g id="Group" transform="translate(51.7011, 7.75)" fill="#FFFFFF">
            <g id="Swapcard" transform="translate(0, 12.5)" fill-rule="nonzero">
                <path d="M7.03764343,21.3217621 C5.84548442,21.3217621 4.80584208,21.1404037 3.91871643,20.7776871 C3.03159078,20.4149704 2.33239746,19.9005203 1.82113647,19.2343369 C1.30987549,18.5681534 1.02134705,17.7816518 0.955551147,16.8748322 L0.94480896,16.716217 L3.61373901,16.716217 L3.63002014,16.8375702 C3.69078064,17.2752024 3.87392934,17.6553472 4.17946625,17.9780045 C4.48500315,18.3006617 4.89049276,18.5512848 5.39593506,18.7298737 C5.90137736,18.9084625 6.47876994,18.997757 7.12811279,18.997757 C7.76828003,18.997757 8.32648214,18.9048538 8.80271912,18.7190475 C9.2789561,18.5332413 9.64986928,18.2720439 9.91545868,17.9354553 C10.1810481,17.5988668 10.3138428,17.2092946 10.3138428,16.7667389 L10.3138428,16.7559967 C10.3138428,16.1859894 10.096789,15.7276281 9.66268158,15.3809128 C9.22857412,15.0341975 8.51088969,14.7551524 7.5096283,14.5437775 L5.84190369,14.1968384 C4.28965759,13.8718872 3.14337667,13.3447088 2.40306091,12.615303 C1.66274516,11.8858973 1.29258728,10.9431305 1.29258728,9.78700256 L1.29258728,9.77626038 C1.29739889,8.85948181 1.54528046,8.05667114 2.03623199,7.36782837 C2.52718353,6.6789856 3.20450083,6.1416804 4.0681839,5.75591278 C4.93186696,5.37014516 5.92090352,5.17726135 7.03529358,5.17726135 C8.16993713,5.17726135 9.15746307,5.36508179 9.9978714,5.74072266 C10.8382797,6.11636353 11.4993998,6.63534546 11.9812317,7.29766846 C12.4630636,7.95999146 12.7324015,8.7208964 12.7892456,9.5803833 L12.7999878,9.74403381 L10.153717,9.74403381 L10.134079,9.60925293 C10.0702972,9.17945353 9.90314992,8.80789693 9.63263702,8.49458313 C9.36212413,8.18126933 9.00491842,7.93680064 8.5610199,7.76117706 C8.11712138,7.58555349 7.60199992,7.49891663 7.01565552,7.50126648 C6.42819214,7.50126648 5.9134903,7.58863068 5.47154999,7.76335907 C5.02960968,7.93808746 4.68583171,8.18331146 4.44021606,8.49903107 C4.19460042,8.81475067 4.0717926,9.18829346 4.0717926,9.61965942 L4.0717926,9.63040161 C4.0717926,10.1728821 4.28783925,10.6175639 4.71993256,10.964447 C5.15202586,11.3113302 5.84246318,11.5844727 6.79124451,11.7838745 L8.45896912,12.1341705 C9.5416921,12.3577423 10.4233348,12.6593068 11.1038971,13.0388641 C11.7844594,13.4184214 12.2861532,13.8920288 12.6089783,14.4596863 C12.9318034,15.0273438 13.0932159,15.7081858 13.0932159,16.5022125 L13.0932159,16.5129547 C13.0932159,17.4956411 12.8491669,18.3468475 12.3610687,19.0665741 C11.8729706,19.7863007 11.1760712,20.342097 10.2703705,20.733963 C9.3646698,21.1258291 8.28709412,21.3217621 7.03764343,21.3217621 Z" id="Path"></path>
                <polygon id="Path" points="17.3618966 21 14.2255136 9.44644165 16.9105569 9.44644165 18.8476754 18.227005 18.9651681 18.227005 21.2042428 9.44644165 23.757023 9.44644165 26.0085183 18.227005 26.126011 18.227005 28.0631295 9.44644165 30.7067147 9.44644165 27.5810739 21 24.7750131 21 22.5069009 12.5861816 22.3894082 12.5861816 20.1372415 21"></polygon>
                <path d="M35.2189797,21.1941986 C34.469824,21.1941986 33.80641,21.0496826 33.2287377,20.7606506 C32.6510654,20.4716187 32.1989144,20.0657934 31.8722848,19.5431747 C31.5456551,19.0205561 31.3823403,18.413147 31.3823403,17.7209473 L31.3823403,17.7013092 C31.3823403,17.0123545 31.5533481,16.4211426 31.8953637,15.9276733 C32.2373793,15.4342041 32.7353804,15.0453873 33.389367,14.7612228 C34.0433536,14.4770584 34.8362333,14.3070577 35.7680062,14.2512207 L40.1214455,13.9888763 L40.1214455,15.7516022 L36.1463326,16.0053864 C35.4471952,16.0461171 34.9205483,16.202774 34.5663918,16.4753571 C34.2122353,16.7479401 34.0351571,17.1174266 34.0351571,17.5838165 L34.0351571,17.6034546 C34.0351571,18.0841675 34.2185855,18.4618785 34.5854424,18.7365875 C34.9522993,19.0112966 35.4309141,19.1486511 36.0212868,19.1486511 C36.5466469,19.1486511 37.0158623,19.0432994 37.428933,18.8325958 C37.8420037,18.6218923 38.1682417,18.334343 38.407647,17.9699478 C38.6470523,17.6055527 38.766755,17.1951396 38.766755,16.7387085 L38.766755,13.1806946 C38.766755,12.5997213 38.5832706,12.1480459 38.2163018,11.8256683 C37.849333,11.5032908 37.3159442,11.3421021 36.6161355,11.3421021 C35.9929767,11.3421021 35.4895765,11.4626719 35.105935,11.7038116 C34.7222934,11.9449514 34.4751392,12.2677765 34.3644723,12.672287 L34.3465127,12.743454 L31.8474434,12.743454 L31.8581856,12.6358643 C31.9315906,11.9653727 32.1732898,11.3735733 32.5832833,10.860466 C32.9932768,10.3473587 33.5497724,9.94483439 34.2527703,9.65289307 C34.9557681,9.36095174 35.780203,9.21498108 36.726075,9.21498108 C37.7056283,9.21498108 38.5457568,9.37169393 39.2464608,9.68511963 C39.9471647,9.99854533 40.4855609,10.4442622 40.8616494,11.0222702 C41.2377378,11.6002782 41.4257821,12.2859039 41.4257821,13.0791473 L41.4257821,21 L38.766755,21 L38.766755,19.3128052 L38.6492623,19.3128052 C38.4336353,19.7010905 38.1544783,20.0364202 37.8117913,20.3187943 C37.4691043,20.6011683 37.0789447,20.8176626 36.6413125,20.968277 C36.2036802,21.1188914 35.7295693,21.1941986 35.2189797,21.1941986 Z" id="Path"></path>
                <path d="M43.8114946,24.8265686 L43.8114946,9.44644165 L46.4834459,9.44644165 L46.4834459,11.3531799 L46.6027849,11.3531799 C46.8210975,10.9099528 47.1025764,10.5312068 47.4472216,10.2169418 C47.7918667,9.9026769 48.1923209,9.66033427 48.6485842,9.48991394 C49.1048474,9.31949361 49.6047228,9.23428345 50.1482103,9.23428345 C51.1236233,9.23428345 51.9675844,9.47668203 52.6800936,9.96147919 C53.3926027,10.4462763 53.9431958,11.1357066 54.3318727,12.0297699 C54.7205497,12.9238332 54.9148882,13.9860229 54.9148882,15.2163391 L54.9148882,15.2321167 C54.9148882,16.4645589 54.721305,17.527448 54.3341387,18.420784 C53.9469723,19.31412 53.3990089,20.002683 52.6902483,20.4864731 C51.9814877,20.9702632 51.1410234,21.2121582 50.1688555,21.2121582 C49.6310747,21.2121582 49.1306678,21.1265004 48.6676348,20.9551849 C48.2046017,20.7838694 47.7977694,20.5409673 47.4471376,20.2264786 C47.0965059,19.9119898 46.8144396,19.5369364 46.6009386,19.1013184 L46.4834459,19.1013184 L46.4834459,24.8265686 L43.8114946,24.8265686 Z M49.3370073,18.9591522 C49.9280514,18.9591522 50.4368507,18.8083979 50.863405,18.5068893 C51.2899594,18.2053808 51.6182395,17.7757212 51.8482454,17.2179108 C52.0782513,16.6601003 52.1932543,15.9981689 52.1932543,15.2321167 L52.1932543,15.2163391 C52.1932543,14.4405518 52.0779436,13.7743403 51.8473223,13.2177048 C51.6167009,12.6610692 51.2881131,12.2335078 50.8615587,11.9350204 C50.4350044,11.6365331 49.9268206,11.4872894 49.3370073,11.4872894 C48.7598385,11.4872894 48.2549557,11.6387711 47.8223589,11.9417343 C47.389762,12.2446976 47.0543764,12.6742452 46.816202,13.2303772 C46.5780275,13.7865092 46.4589403,14.4485524 46.4589403,15.216507 L46.4589403,15.2322845 C46.4589403,15.9930776 46.5789507,16.6526591 46.8189714,17.2110291 C47.0589922,17.769399 47.3943499,18.2003454 47.8250444,18.5038681 C48.255739,18.8073908 48.7597266,18.9591522 49.3370073,18.9591522 Z" id="Shape"></path>
                <path d="M61.8694733,21.2314606 C60.7199473,21.2314606 59.7299876,20.9892019 58.8995941,20.5046844 C58.0692006,20.020167 57.4306839,19.3275197 56.9840439,18.4267426 C56.5374039,17.5259654 56.3140839,16.4527537 56.3140839,15.2071075 L56.3140839,15.19133 C56.3140839,13.956426 56.5381312,12.8926697 56.9862259,12.000061 C57.4343206,11.1074524 58.0725856,10.4201202 58.9010208,9.93806458 C59.7294561,9.45600891 60.7134013,9.21498108 61.8528564,9.21498108 C62.8564677,9.21498108 63.7226964,9.39726257 64.4515427,9.76182556 C65.1803889,10.1263885 65.7549561,10.6206411 66.1752441,11.2445831 C66.5955322,11.8685252 66.8437215,12.5722504 66.919812,13.3557587 L66.9240082,13.4183655 L64.4032867,13.4183655 L64.3886841,13.3574371 C64.2754435,12.7957102 64.0077281,12.3256276 63.5855377,11.9471893 C63.1633474,11.568751 62.5921651,11.3795319 61.871991,11.3795319 C61.2876607,11.3795319 60.7834213,11.5324122 60.3592728,11.8381729 C59.9351242,12.1439336 59.6084946,12.5815938 59.3793839,13.1511536 C59.1502731,13.7207133 59.0357178,14.4039612 59.0357178,15.2008972 L59.0357178,15.2166748 C59.0357178,16.0271505 59.1511963,16.7196859 59.3821533,17.294281 C59.6131104,17.8688761 59.9413345,18.3079631 60.3668259,18.6115417 C60.7923172,18.9151204 61.2966126,19.0669098 61.8797119,19.0669098 C62.5666524,19.0669098 63.1205744,18.8958181 63.541478,18.5536346 C63.9623815,18.2114512 64.2443919,17.7372843 64.3875092,17.131134 L64.4071472,17.0614777 L66.9282043,17.0564423 L66.9191406,17.1356659 C66.8224609,17.9291331 66.5602565,18.6341171 66.1325272,19.250618 C65.7047979,19.8671188 65.1315175,20.3513845 64.4126862,20.7034149 C63.6938548,21.0554454 62.8461172,21.2314606 61.8694733,21.2314606 Z" id="Path"></path>
                <path d="M72.0064596,21.1941986 C71.2573039,21.1941986 70.5938899,21.0496826 70.0162176,20.7606506 C69.4385453,20.4716187 68.9863943,20.0657934 68.6597646,19.5431747 C68.333135,19.0205561 68.1698202,18.413147 68.1698202,17.7209473 L68.1698202,17.7013092 C68.1698202,17.0123545 68.340828,16.4211426 68.6828436,15.9276733 C69.0248591,15.4342041 69.5228602,15.0453873 70.1768469,14.7612228 C70.8308335,14.4770584 71.6237132,14.3070577 72.5554861,14.2512207 L76.9089254,13.9888763 L76.9089254,15.7516022 L72.9338125,16.0053864 C72.2346751,16.0461171 71.7080282,16.202774 71.3538717,16.4753571 C70.9997152,16.7479401 70.822637,17.1174266 70.822637,17.5838165 L70.822637,17.6034546 C70.822637,18.0841675 71.0060654,18.4618785 71.3729223,18.7365875 C71.7397792,19.0112966 72.218394,19.1486511 72.8087667,19.1486511 C73.3341268,19.1486511 73.8033422,19.0432994 74.2164129,18.8325958 C74.6294836,18.6218923 74.9557216,18.334343 75.1951269,17.9699478 C75.4345322,17.6055527 75.5542349,17.1951396 75.5542349,16.7387085 L75.5542349,13.1806946 C75.5542349,12.5997213 75.3707505,12.1480459 75.0037817,11.8256683 C74.6368129,11.5032908 74.1034241,11.3421021 73.4036154,11.3421021 C72.7804566,11.3421021 72.2770564,11.4626719 71.8934148,11.7038116 C71.5097733,11.9449514 71.2626191,12.2677765 71.1519521,12.672287 L71.1339925,12.743454 L68.6349233,12.743454 L68.6456655,12.6358643 C68.7190705,11.9653727 68.9607697,11.3735733 69.3707632,10.860466 C69.7807567,10.3473587 70.3372523,9.94483439 71.0402502,9.65289307 C71.743248,9.36095174 72.5676829,9.21498108 73.5135549,9.21498108 C74.4931081,9.21498108 75.3332367,9.37169393 76.0339407,9.68511963 C76.7346446,9.99854533 77.2730408,10.4442622 77.6491293,11.0222702 C78.0252177,11.6002782 78.213262,12.2859039 78.213262,13.0791473 L78.213262,21 L75.5542349,21 L75.5542349,19.3128052 L75.4367422,19.3128052 C75.2211151,19.7010905 74.9419581,20.0364202 74.5992712,20.3187943 C74.2565842,20.6011683 73.8664246,20.8176626 73.4287924,20.968277 C72.9911601,21.1188914 72.5170492,21.1941986 72.0064596,21.1941986 Z" id="Path"></path>
                <path d="M80.5989745,21 L80.5989745,9.44644165 L83.2709258,9.44644165 L83.2709258,11.3321991 L83.3884185,11.3321991 C83.5759592,10.6723378 83.9127715,10.1577199 84.3988555,9.78834534 C84.8849395,9.41897074 85.4830891,9.23428345 86.1933044,9.23428345 C86.3790547,9.23428345 86.5567763,9.24547323 86.7264693,9.26785278 C86.8961623,9.29023234 87.0387481,9.31697591 87.1542266,9.3480835 L87.1542266,11.7541656 C86.9942128,11.7073924 86.8113158,11.6704381 86.6055358,11.6433029 C86.3997558,11.6161677 86.1814991,11.6026001 85.9507659,11.6026001 C85.4048166,11.6026001 84.9307337,11.7097422 84.5285171,11.9240265 C84.1263005,12.1383108 83.8161478,12.4458059 83.598059,12.8465118 C83.3799702,13.2472178 83.2709258,13.7281545 83.2709258,14.2893219 L83.2709258,21 L80.5989745,21 Z" id="Path"></path>
                <path d="M92.515982,21.2121582 C91.5463877,21.2121582 90.7044687,20.9697316 89.9902252,20.4848785 C89.2759816,20.0000254 88.7245493,19.309728 88.3359283,18.4139862 C87.9473073,17.5182444 87.7529968,16.4563344 87.7529968,15.2282562 L87.7529968,15.2124786 C87.7529968,13.9788055 87.9471674,12.915301 88.3355087,12.021965 C88.7238499,11.128629 89.2736317,10.4406815 89.9848541,9.95812225 C90.6960764,9.47556305 91.5371002,9.23428345 92.5079254,9.23428345 C93.0470489,9.23428345 93.5468963,9.32022095 94.0074676,9.49209595 C94.4680389,9.66397095 94.8748433,9.90810394 95.2278808,10.2244949 C95.5809183,10.5408859 95.8617818,10.9191844 96.0704711,11.3593903 L96.1879638,11.3593903 L96.1879638,5.12757874 L98.8599151,5.12757874 L98.8599151,21 L96.1879638,21 L96.1879638,19.1112213 L96.0704711,19.1112213 C95.8559631,19.5497487 95.5754353,19.924914 95.2288879,20.2367172 C94.8823404,20.5485204 94.4809351,20.7890447 94.0246719,20.9582901 C93.5684087,21.1275355 93.065512,21.2121582 92.515982,21.2121582 Z M93.3307098,18.9591522 C93.9102284,18.9591522 94.4160064,18.8076706 94.8480438,18.5047073 C95.2800811,18.2017441 95.6149073,17.7706858 95.8525222,17.2115326 C96.0901372,16.6523794 96.2089446,15.9924062 96.2089446,15.2316132 L96.2089446,15.2158356 C96.2089446,14.4504547 96.0889063,13.7894465 95.8488296,13.232811 C95.6087529,12.6761754 95.273647,12.2460963 94.8435119,11.9425735 C94.4133768,11.6390508 93.9091094,11.4872894 93.3307098,11.4872894 C92.7443654,11.4872894 92.2370768,11.6374283 91.8088439,11.937706 C91.3806111,12.2379837 91.051184,12.6658249 90.8205627,13.2212296 C90.5899414,13.7766342 90.4746307,14.4403839 90.4746307,15.2124786 L90.4746307,15.2282562 C90.4746307,15.9978892 90.5896336,16.6622823 90.8196395,17.2214355 C91.0496454,17.7805888 91.3787928,18.2099965 91.8070815,18.5096588 C92.2353703,18.8093211 92.7432464,18.9591522 93.3307098,18.9591522 Z" id="Shape"></path>
            </g>
            <g id="Via-l'appli-web" transform="translate(0.2989, 0)" fill-rule="nonzero">
                <polygon id="Path" points="3.70207214 12 0.443840027 2.84033203 1.99385834 2.84033203 4.43968964 10.2823639 4.5459137 10.2823639 6.991745 2.84033203 8.54176331 2.84033203 5.28353119 12"></polygon>
                <path d="M10.2462348,12 L10.2462348,5.10366821 L11.6253623,5.10366821 L11.6253623,12 L10.2462348,12 Z M10.9409065,3.87410736 C10.7056465,3.87410736 10.5026206,3.78968684 10.331829,3.62084579 C10.1610374,3.45200475 10.0756416,3.24995422 10.0756416,3.01469421 C10.0756416,2.77513631 10.1610374,2.57179642 10.331829,2.40467453 C10.5026206,2.23755264 10.7056465,2.1539917 10.9409065,2.1539917 C11.1804644,2.1539917 11.3845812,2.23755264 11.5532569,2.40467453 C11.7219327,2.57179642 11.8062706,2.77513631 11.8062706,3.01469421 C11.8062706,3.24995422 11.7219327,3.45200475 11.5532569,3.62084579 C11.3845812,3.78968684 11.1804644,3.87410736 10.9409065,3.87410736 Z" id="Shape"></path>
                <path d="M15.765248,12.1171341 C15.3297723,12.1171341 14.9397716,12.0332591 14.595246,11.865509 C14.2507203,11.697759 13.9791266,11.4595896 13.7804648,11.151001 C13.581803,10.8424123 13.4824721,10.4792074 13.4824721,10.0613861 L13.4824721,10.0486908 C13.4824721,9.6378123 13.5825138,9.28550084 13.7825972,8.99175644 C13.9826806,8.69801203 14.2747389,8.46744665 14.6587721,8.30006027 C15.0428053,8.1326739 15.5086307,8.03340912 16.0562483,8.00226593 L18.6013609,7.84873199 L18.6013609,8.82180786 L16.2419173,8.97306061 C15.7671655,9.00030263 15.4181932,9.09984843 15.1950003,9.271698 C14.9718075,9.44354757 14.860211,9.68363444 14.860211,9.99195862 L14.860211,10.0046539 C14.860211,10.3213755 14.9807339,10.5686366 15.2217795,10.7464371 C15.4628251,10.9242376 15.7682565,11.0131378 16.1380736,11.0131378 C16.481376,11.0131378 16.7868074,10.9446195 17.0543677,10.8075829 C17.321928,10.6705462 17.5324917,10.4843979 17.6860587,10.2491379 C17.8396257,10.0138779 17.9164092,9.74806976 17.9164092,9.45171356 L17.9164092,7.28398895 C17.9164092,6.90425364 17.79868,6.61398061 17.5632216,6.41316986 C17.3277632,6.21235911 16.978047,6.11195374 16.514073,6.11195374 C16.1315606,6.11195374 15.8188228,6.17893473 15.5758597,6.31289673 C15.3328965,6.44685872 15.1696923,6.63626353 15.0862471,6.88111115 L15.0787093,6.90253448 L13.7507597,6.90253448 L13.7571074,6.85631561 C13.812451,6.47796885 13.9637534,6.1480395 14.2110144,5.86652756 C14.4582755,5.58501561 14.7833945,5.36565781 15.1863715,5.20845413 C15.5893485,5.05125046 16.0519835,4.97264862 16.5742766,4.97264862 C17.1554177,4.97264862 17.6477248,5.06459045 18.0511977,5.24847412 C18.4546706,5.43235779 18.7613748,5.69695918 18.9713103,6.04227829 C19.1812458,6.3875974 19.2862135,6.80150096 19.2862135,7.28398895 L19.2862135,12 L17.9164092,12 L17.9164092,11.0221634 L17.8101851,11.0221634 C17.6764215,11.2532578 17.5082747,11.4509277 17.3057448,11.6151733 C17.1032149,11.7794189 16.8726826,11.9041405 16.6141478,11.9893379 C16.3556131,12.0745354 16.0726464,12.1171341 15.765248,12.1171341 Z" id="Path"></path>
                <polygon id="Path" points="25.3360187 12 25.3360187 2.40313721 26.7151462 2.40313721 26.7151462 12"></polygon>
                <polygon id="Path" points="29.5237969 6.56967926 29.3718499 2.84033203 30.7666482 2.84033203 30.6147012 6.56967926"></polygon>
                <path d="M35.2480489,12.1171341 C34.8125732,12.1171341 34.4225725,12.0332591 34.0780469,11.865509 C33.7335212,11.697759 33.4619275,11.4595896 33.2632657,11.151001 C33.0646039,10.8424123 32.965273,10.4792074 32.965273,10.0613861 L32.965273,10.0486908 C32.965273,9.6378123 33.0653147,9.28550084 33.2653981,8.99175644 C33.4654815,8.69801203 33.7575398,8.46744665 34.141573,8.30006027 C34.5256062,8.1326739 34.9914316,8.03340912 35.5390492,8.00226593 L38.0841618,7.84873199 L38.0841618,8.82180786 L35.7247182,8.97306061 C35.2499664,9.00030263 34.9009941,9.09984843 34.6778012,9.271698 C34.4546084,9.44354757 34.3430119,9.68363444 34.3430119,9.99195862 L34.3430119,10.0046539 C34.3430119,10.3213755 34.4635347,10.5686366 34.7045804,10.7464371 C34.945626,10.9242376 35.2510574,11.0131378 35.6208745,11.0131378 C35.9641769,11.0131378 36.2696083,10.9446195 36.5371686,10.8075829 C36.8047289,10.6705462 37.0152926,10.4843979 37.1688596,10.2491379 C37.3224265,10.0138779 37.39921,9.74806976 37.39921,9.45171356 L37.39921,7.28398895 C37.39921,6.90425364 37.2814809,6.61398061 37.0460225,6.41316986 C36.8105641,6.21235911 36.4608479,6.11195374 35.9968739,6.11195374 C35.6143615,6.11195374 35.3016237,6.17893473 35.0586606,6.31289673 C34.8156974,6.44685872 34.6524932,6.63626353 34.569048,6.88111115 L34.5615102,6.90253448 L33.2335606,6.90253448 L33.2399083,6.85631561 C33.2952519,6.47796885 33.4465543,6.1480395 33.6938153,5.86652756 C33.9410764,5.58501561 34.2661954,5.36565781 34.6691724,5.20845413 C35.0721493,5.05125046 35.5347844,4.97264862 36.0570775,4.97264862 C36.6382186,4.97264862 37.1305257,5.06459045 37.5339986,5.24847412 C37.9374715,5.43235779 38.2441757,5.69695918 38.4541112,6.04227829 C38.6640467,6.3875974 38.7690144,6.80150096 38.7690144,7.28398895 L38.7690144,12 L37.39921,12 L37.39921,11.0221634 L37.292986,11.0221634 C37.1592224,11.2532578 36.9910756,11.4509277 36.7885457,11.6151733 C36.5860158,11.7794189 36.3554834,11.9041405 36.0969487,11.9893379 C35.8384139,12.0745354 35.5554473,12.1171341 35.2480489,12.1171341 Z" id="Path"></path>
                <path d="M40.9619936,14.2967606 L40.9619936,5.10366821 L42.3411211,5.10366821 L42.3411211,6.19199371 L42.4473452,6.19199371 C42.5799847,5.93888092 42.7501647,5.72297796 42.9578852,5.54428482 C43.1656056,5.36559168 43.4050809,5.22795995 43.6763109,5.13138962 C43.947541,5.03481929 44.2437649,4.98653412 44.5649828,4.98653412 C45.1463223,4.98653412 45.6505808,5.13300959 46.0777582,5.42596054 C46.5049356,5.71891149 46.8358568,6.13122813 47.0705217,6.66291046 C47.3051867,7.19459279 47.4225191,7.82211812 47.4225191,8.54548645 L47.4225191,8.55818176 C47.4225191,9.28578186 47.3057652,9.91562144 47.0722574,10.4477005 C46.8387496,10.9797796 46.508407,11.3910383 46.0812296,11.6814766 C45.6540522,11.9719149 45.1486366,12.1171341 44.5649828,12.1171341 C44.2495175,12.1171341 43.9539713,12.0674108 43.6783442,11.9679642 C43.402717,11.8685176 43.1596051,11.7289518 42.9490084,11.5492668 C42.7384116,11.3695819 42.5711906,11.1554642 42.4473452,10.9069138 L42.3411211,10.9069138 L42.3411211,14.2967606 L40.9619936,14.2967606 Z M44.1726183,10.9347839 C44.5581723,10.9347839 44.8880025,10.8393377 45.1621088,10.6484451 C45.4362151,10.4575526 45.6469937,10.1841901 45.7944445,9.8283577 C45.9418952,9.47252528 46.0156206,9.0491333 46.0156206,8.55818176 L46.0156206,8.54548645 C46.0156206,8.05030314 45.9418952,7.62567139 45.7944445,7.27159119 C45.6469937,6.91751099 45.4362151,6.64522298 45.1621088,6.45472717 C44.8880025,6.26423136 44.5581723,6.16898346 44.1726183,6.16898346 C43.7905026,6.16898346 43.4604575,6.26489258 43.1824831,6.45671082 C42.9045087,6.64852905 42.6909365,6.92129644 42.5417665,7.27501297 C42.3925966,7.6287295 42.3180117,8.05182393 42.3180117,8.54429626 L42.3180117,8.55699158 C42.3180117,9.04529826 42.392795,9.46754964 42.5423616,9.82374573 C42.6919283,10.1799418 42.9056823,10.4541639 43.1836237,10.6464119 C43.4615651,10.8386599 43.7912299,10.9347839 44.1726183,10.9347839 Z" id="Shape"></path>
                <path d="M49.3199681,14.2967606 L49.3199681,5.10366821 L50.6990956,5.10366821 L50.6990956,6.19199371 L50.8053196,6.19199371 C50.9379592,5.93888092 51.1081392,5.72297796 51.3158597,5.54428482 C51.5235801,5.36559168 51.7630553,5.22795995 52.0342854,5.13138962 C52.3055155,5.03481929 52.6017394,4.98653412 52.9229573,4.98653412 C53.5042968,4.98653412 54.0085553,5.13300959 54.4357327,5.42596054 C54.8629101,5.71891149 55.1938313,6.13122813 55.4284962,6.66291046 C55.6631611,7.19459279 55.7804936,7.82211812 55.7804936,8.54548645 L55.7804936,8.55818176 C55.7804936,9.28578186 55.6637397,9.91562144 55.4302319,10.4477005 C55.1967241,10.9797796 54.8663815,11.3910383 54.4392041,11.6814766 C54.0120266,11.9719149 53.506611,12.1171341 52.9229573,12.1171341 C52.607492,12.1171341 52.3119458,12.0674108 52.0363186,11.9679642 C51.7606915,11.8685176 51.5175796,11.7289518 51.3069829,11.5492668 C51.0963861,11.3695819 50.9291651,11.1554642 50.8053196,10.9069138 L50.6990956,10.9069138 L50.6990956,14.2967606 L49.3199681,14.2967606 Z M52.5305928,10.9347839 C52.9161468,10.9347839 53.2459769,10.8393377 53.5200833,10.6484451 C53.7941896,10.4575526 54.0049682,10.1841901 54.1524189,9.8283577 C54.2998697,9.47252528 54.3735951,9.0491333 54.3735951,8.55818176 L54.3735951,8.54548645 C54.3735951,8.05030314 54.2998697,7.62567139 54.1524189,7.27159119 C54.0049682,6.91751099 53.7941896,6.64522298 53.5200833,6.45472717 C53.2459769,6.26423136 52.9161468,6.16898346 52.5305928,6.16898346 C52.1484771,6.16898346 51.818432,6.26489258 51.5404576,6.45671082 C51.2624831,6.64852905 51.048911,6.92129644 50.899741,7.27501297 C50.7505711,7.6287295 50.6759861,8.05182393 50.6759861,8.54429626 L50.6759861,8.55699158 C50.6759861,9.04529826 50.7507695,9.46754964 50.9003361,9.82374573 C51.0499028,10.1799418 51.2636568,10.4541639 51.5415982,10.6464119 C51.8195396,10.8386599 52.1492044,10.9347839 52.5305928,10.9347839 Z" id="Shape"></path>
                <polygon id="Path" points="57.7414191 12 57.7414191 2.40313721 59.1205466 2.40313721 59.1205466 12"></polygon>
                <path d="M61.4357662,12 L61.4357662,5.10366821 L62.8148937,5.10366821 L62.8148937,12 L61.4357662,12 Z M62.1304379,3.87410736 C61.8951778,3.87410736 61.692152,3.78968684 61.5213604,3.62084579 C61.3505688,3.45200475 61.265173,3.24995422 61.265173,3.01469421 C61.265173,2.77513631 61.3505688,2.57179642 61.5213604,2.40467453 C61.692152,2.23755264 61.8951778,2.1539917 62.1304379,2.1539917 C62.3699958,2.1539917 62.5741126,2.23755264 62.7427883,2.40467453 C62.9114641,2.57179642 62.9958019,2.77513631 62.9958019,3.01469421 C62.9958019,3.24995422 62.9114641,3.45200475 62.7427883,3.62084579 C62.5741126,3.78968684 62.3699958,3.87410736 62.1304379,3.87410736 Z" id="Shape"></path>
                <polygon id="Path" points="70.1825923 12 68.2842463 5.10366821 69.6692256 5.10366821 70.9031505 10.4251862 71.0093745 10.4251862 72.4274806 5.10366821 73.7378749 5.10366821 75.1593532 10.4251862 75.2655772 10.4251862 76.4996013 5.10366821 77.8677196 5.10366821 75.9716548 12 74.546606 12 73.119276 6.85968781 73.0130519 6.85968781 71.5931605 12"></polygon>
                <path d="M82.152814,12.1311188 C81.4801608,12.1311188 80.9022761,11.9860649 80.41916,11.6959572 C79.9360438,11.4058495 79.5643257,10.9944585 79.3040057,10.4617844 C79.0436857,9.92911021 78.9135257,9.29936981 78.9135257,8.57256317 L78.9135257,8.56621552 C78.9135257,7.84635162 79.0434873,7.21748734 79.3034106,6.67962265 C79.5633339,6.14175797 79.9311013,5.72279612 80.4067126,5.42273712 C80.882324,5.12267812 81.4403227,4.97264862 82.0807086,4.97264862 C82.7236733,4.97264862 83.2773079,5.11710739 83.7416125,5.40602493 C84.2059171,5.69494247 84.5628571,6.09861374 84.8124324,6.61703873 C85.0620077,7.13546371 85.1867953,7.73999532 85.1867953,8.43063354 L85.1867953,8.91464233 L79.6151401,8.91464233 L79.6151401,7.92986298 L84.5019427,7.92986298 L83.8374225,8.84313202 L83.8374225,8.29455566 C83.8374225,7.80056254 83.7630193,7.39227931 83.6142131,7.06970596 C83.4654068,6.74713262 83.2597196,6.50559107 82.9971515,6.34508133 C82.7345833,6.18457158 82.431615,6.10431671 82.0882464,6.10431671 C81.7457375,6.10431671 81.4404053,6.18802643 81.1722499,6.35544586 C80.9040945,6.5228653 80.6921753,6.76959737 80.5364924,7.09564209 C80.3808096,7.42168681 80.3029681,7.82132467 80.3029681,8.29455566 L80.3029681,8.84541321 C80.3029681,9.2979482 80.3790739,9.68462626 80.5312854,10.0054474 C80.6834969,10.3262685 80.9005074,10.5721245 81.1823169,10.7430153 C81.4641264,10.9139061 81.7976428,10.9993515 82.1828662,10.9993515 C82.4778338,10.9993515 82.7325831,10.9580091 82.9471141,10.8753242 C83.161645,10.7926394 83.3371478,10.689771 83.4736224,10.5667191 C83.610097,10.4436671 83.7048821,10.3233592 83.7579776,10.2057953 L83.7809878,10.1557083 L85.1135989,10.1545181 L85.0997134,10.2111511 C85.0427829,10.4384766 84.940179,10.6649755 84.7919017,10.8906479 C84.6436244,11.1163203 84.4482852,11.3227844 84.2058841,11.5100403 C83.963483,11.6972961 83.6711106,11.8476232 83.3287669,11.9610214 C82.9864233,12.0744197 82.594439,12.1311188 82.152814,12.1311188 Z" id="Path"></path>
                <path d="M90.7403657,12.1171341 C90.4191478,12.1171341 90.1229239,12.0688489 89.8516938,11.9722786 C89.5804637,11.8757083 89.3409885,11.7378947 89.133268,11.5588379 C88.9255476,11.3797811 88.7553676,11.16406 88.622728,10.9116745 L88.516504,10.9116745 L88.516504,12 L87.1373765,12 L87.1373765,2.40313721 L88.516504,2.40313721 L88.516504,6.19675446 L88.622728,6.19675446 C88.7465735,5.94741058 88.9137945,5.73309453 89.1243912,5.5538063 C89.334988,5.37451808 89.5780999,5.23515066 89.853727,5.13570404 C90.1293542,5.03625743 90.4249004,4.98653412 90.7403657,4.98653412 C91.3240194,4.98653412 91.829435,5.13175329 92.2566125,5.42219162 C92.6837899,5.71262995 93.0141325,6.12388865 93.2476403,6.65596771 C93.4811481,7.18804677 93.597902,7.81788635 93.597902,8.54548645 L93.597902,8.55818176 C93.597902,9.28075663 93.4805695,9.90894318 93.2459046,10.4427414 C93.0112397,10.9765396 92.6803185,11.3890546 92.2531411,11.6802864 C91.8259637,11.9715182 91.3217052,12.1171341 90.7403657,12.1171341 Z M90.3480012,10.9347839 C90.7335552,10.9347839 91.0633853,10.8395195 91.3374917,10.6489906 C91.611598,10.4584618 91.8223766,10.1852976 91.9698273,9.82949829 C92.1172781,9.47369893 92.1910035,9.04992676 92.1910035,8.55818176 L92.1910035,8.54548645 C92.1910035,8.0510966 92.1172781,7.62684504 91.9698273,7.27273178 C91.8223766,6.91861852 91.611598,6.64613215 91.3374917,6.45527267 C91.0633853,6.2644132 90.7335552,6.16898346 90.3480012,6.16898346 C89.9666128,6.16898346 89.636948,6.26509094 89.3590066,6.45730591 C89.0810652,6.64952087 88.8673112,6.92266846 88.7177445,7.27674866 C88.5681779,7.63082886 88.4933945,8.05413818 88.4933945,8.54667664 L88.4933945,8.55937195 C88.4933945,9.04761251 88.5679795,9.469649 88.7171494,9.82548141 C88.8663193,10.1813138 89.0798915,10.4551557 89.357866,10.647007 C89.6358404,10.8388583 89.9658855,10.9347839 90.3480012,10.9347839 Z" id="Shape"></path>
            </g>
        </g>
        <g id="Group-Copy-2" transform="translate(9, 17.5)">
            <path d="M31.6299794,6.06986746 C31.4274687,6.06986746 31.2413778,5.96587549 31.1373858,5.79620437 C30.179565,4.23632479 28.4828539,3.28397725 26.6493112,3.28397725 C25.1113247,3.28397725 23.6444906,3.95718844 22.6428837,5.12846644 L15.3579723,13.6612814 C15.0295766,14.0881959 14.6628681,14.4767974 14.26332,14.8380327 C12.6924939,16.2337144 10.6619138,17.0054443 8.56018131,17 C3.84222972,17 0,13.1851077 0,8.5 C0,3.81488364 3.84222972,0 8.56018131,0 C11.0778817,-0.00545303571 13.4642238,1.10014583 15.0952558,3.01031416 L16.81386,5.02994773 C16.9014321,5.13393971 16.9014321,5.28171777 16.81386,5.38570974 L15.0022103,7.50386203 C14.9474777,7.5640679 14.8708521,7.60238074 14.7942264,7.60238074 C14.7121275,7.60238074 14.6355018,7.56954117 14.5807692,7.50386203 L12.5666089,5.13941297 L12.5666089,5.13941297 L12.5666089,5.13941297 C11.565002,3.96813496 10.0981678,3.28945051 8.56018131,3.29492377 C5.66482587,3.29492377 3.31132333,5.63200652 3.31132333,8.50546892 C3.31132333,11.3789313 5.66482587,13.7160141 8.56018131,13.7160141 C9.85187107,13.7160141 11.0943015,13.2453136 12.0575955,12.3914847 C12.1561142,12.3039125 20.6506164,2.43014842 20.9461725,2.16743186 C22.5169987,0.771750127 24.5475788,0 26.6547845,0.0054934877 C30.2288244,0.0054934877 33.2993242,2.19479817 34.5800675,5.2926643 C34.6512199,5.46780867 34.6293268,5.67031935 34.5253348,5.82904394 C34.4158696,5.98776853 34.2407252,6.08081398 34.0436878,6.08081398 L31.6299794,6.06986746 L31.6299794,6.06986746 Z" id="Path" fill="#FFFFFF"></path>
            <path d="M26.6547845,16.994518 C24.1370841,16.9999711 21.750742,15.8943722 20.11971,13.9787306 L18.3901593,11.9536238 C18.3025871,11.8496318 18.3025871,11.7018538 18.3901593,11.5978618 L20.201809,9.4797095 C20.2565416,9.41950362 20.3331672,9.38119079 20.4152662,9.38119079 C20.4973651,9.38119079 20.5739908,9.41403036 20.6232501,9.4797095 L22.6483569,11.8551051 C23.6499638,13.0318563 25.1113247,13.7050675 26.6547845,13.7050675 C28.4883272,13.7050675 30.1850383,12.75272 31.1428591,11.1928404 C31.2468511,11.0231693 31.432942,10.9191773 31.6354527,10.9191773 L34.0436878,10.9191773 C34.235252,10.9191773 34.4158696,11.0122228 34.5253348,11.1709474 C34.6348001,11.329672 34.6512199,11.5321826 34.5800675,11.707327 C33.2993242,14.8051931 30.2288244,16.994518 26.6547845,16.994518 L26.6547845,16.994518 Z" id="Path" fill="#59B570" fill-rule="nonzero"></path>
        </g>
    </g>
</svg>