<?xml version="1.0" encoding="UTF-8"?>
<svg width="180px" height="54px" viewBox="0 0 180 54" version="1.1" xmlns="http://www.w3.org/2000/svg" xmlns:xlink="http://www.w3.org/1999/xlink">
    <title>swapcard-en copy</title>
    <defs>
        <path d="M0,0 L180,0 L180,54 L0,54 L0,0 Z" id="path-1"></path>
    </defs>
    <g id="swapcard-en-copy" stroke="none" fill="none" transform="translate(0, 0.0002)" xlink:href="#path-1" fill-rule="evenodd" stroke-width="1">
        <g id="Group-Copy-3" transform="translate(0, 0.0002)">
            <path d="M166.440383,0 L13.5662757,0 C13.0445221,0 12.529029,0 12.0086556,0.00263641246 C11.5730547,0.0052705588 11.1409255,0.0129227539 10.7011414,0.0193632417 C9.74572201,0.0297704905 8.7925649,0.10757593 7.84992253,0.252103242 C6.90860341,0.399777437 5.99677965,0.678184315 5.14528409,1.07790812 C4.2948272,1.48101153 3.51774591,2.00481153 2.84221235,2.63028958 C2.16313593,3.25401592 1.59707528,3.97495544 1.16579979,4.76538373 C0.733329118,5.55424471 0.433453853,6.39958178 0.276527967,7.27219544 C0.118110807,8.14371592 0.0328652101,9.02527251 0.021555949,9.90897592 C0.00835204098,10.3127906 0.00695766276,10.7179486 0,11.1218159 L0,41.5649481 C0.00695766276,41.9738993 0.00835204098,42.3700749 0.021555949,42.7791579 C0.0328686249,43.662914 0.118114364,44.544431 0.276527967,45.4158067 C0.433019888,46.2890262 0.73291365,47.1348506 1.16579979,47.9239091 C1.59689032,48.7117823 2.1630221,49.4298506 2.84221235,50.0500603 C3.51517058,50.6783042 4.29276409,51.2024993 5.14528409,51.6024945 C5.99677965,52.0032798 6.90850381,52.2834213 7.84992253,52.4333042 C8.79272141,52.5767335 9.74579315,52.6545725 10.7011414,52.6661628 C11.1409255,52.6751189 11.5730547,52.6802554 12.0086556,52.6802554 C12.5290148,52.6828896 13.0445505,52.6828896 13.5662757,52.6828896 L166.440383,52.6828896 C166.952604,52.6828896 167.471939,52.6828896 167.982736,52.6802554 C168.416701,52.6802554 168.860625,52.6751189 169.29459,52.6661628 C170.247889,52.655231 171.199766,52.577392 172.14026,52.4333042 C173.085022,52.2823676 173.999905,52.0023579 174.855029,51.6024945 C175.707307,51.2022359 176.484175,50.6781725 177.157176,50.0500603 C177.834445,49.4274798 178.400734,48.7099384 178.837544,47.9239091 C179.26724,47.134192 179.564613,46.2884993 179.718279,45.4158067 C179.877636,44.5442993 179.965852,43.662914 179.982926,42.7791579 C179.988617,42.3700749 179.988617,41.9738993 179.988617,41.5649481 C180,41.0864554 180,40.6105969 180,40.1243335 L180,12.5597832 C180,12.0774579 180,11.5989915 179.988617,11.1218159 C179.988617,10.7179486 179.988617,10.3127906 179.982926,9.90892324 C179.965852,9.0251408 179.877636,8.14378178 179.718279,7.27214275 C179.564613,6.40002958 179.26724,5.55475836 178.837544,4.76533105 C177.959655,3.18099739 176.566699,1.89135885 174.855029,1.07778958 C173.999905,0.67904173 173.085022,0.400708608 172.14026,0.251984705 C171.199766,0.106820588 170.247889,0.028988149 169.29459,0.0191788515 C168.860625,0.0127515344 168.416701,0.00503348563 167.982736,0.00246519295 C167.471939,0 166.952604,0 166.440383,0 Z" id="Path" fill="#A6A6A6" fill-rule="nonzero"></path>
            <path d="M12.015599,51.5303189 C11.5821039,51.5303189 11.1590524,51.5251823 10.7289579,51.5162262 C9.83795017,51.5054262 8.94901982,51.4336457 8.06948019,51.3014115 C7.24934392,51.1706262 6.45484712,50.9274945 5.71221267,50.5797871 C4.97637936,50.2349774 4.30524236,49.7829579 3.72451228,49.2408506 C3.13537326,48.7051969 2.64487938,48.0838018 2.27249502,47.4015579 C1.89599867,46.7148359 1.63543491,45.9787237 1.49989566,45.2189042 C1.35351583,44.4024506 1.27432083,43.5769091 1.26298795,42.749392 C1.25396718,42.4716213 1.24215765,41.5467725 1.24215765,41.5467725 L1.24215765,11.1216447 C1.24215765,11.1216447 1.25473551,10.2110071 1.2630591,9.94347007 C1.27391106,9.11724373 1.35264078,8.29297983 1.49857242,7.4778169 C1.63436779,6.71591641 1.89513074,5.9776969 2.27184052,5.28870958 C2.64285895,4.60688714 3.13062099,3.98511007 3.71620293,3.44750714 C4.30113036,2.90479397 4.97443008,2.45039056 5.71151548,2.10083934 C6.45244253,1.75429105 7.24543112,1.51279251 8.06391691,1.38443056 C8.9463449,1.25083456 9.83836279,1.17860627 10.732458,1.16835153 L12.0163104,1.15227007 L167.975622,1.15227007 L169.27467,1.1689969 C170.161097,1.17874192 171.044677,1.25032617 171.91972,1.38313983 C172.746388,1.51312178 173.547444,1.75630617 174.297278,2.10469836 C175.77418,2.80913495 176.975053,3.92360275 177.733424,5.29192324 C178.103361,5.97615592 178.360894,6.70835641 178.494641,7.46367153 C178.642615,8.28552519 178.72514,9.1162691 178.742214,9.94926519 C178.746482,10.3222603 178.746482,10.722914 178.746482,11.1216447 C178.757865,11.6155471 178.757865,12.0856501 178.757865,12.559612 L178.757865,40.1242018 C178.757865,40.6026945 178.757865,41.0695969 178.746482,41.5403189 C178.746482,41.968631 178.746482,42.3609871 178.740791,42.7648018 C178.723717,43.5829676 178.642615,44.3988945 178.497486,45.2059969 C178.365163,45.9713481 178.104784,46.7131237 177.729155,47.4055091 C177.353527,48.0803774 176.866918,48.6963725 176.283555,49.2305774 C175.703039,49.7755823 175.030038,50.2302359 174.293009,50.5772847 C173.546021,50.9276262 172.744965,51.1716798 171.91972,51.3014115 C171.040409,51.4344359 170.151137,51.5062164 169.260442,51.5162262 C168.843551,51.5251823 168.406741,51.5303189 167.982736,51.5303189 L166.440383,51.532953 L12.015599,51.5303189 Z" id="Path" fill="#000000" fill-rule="nonzero"></path>
        </g>
        <g id="Group" transform="translate(51.7011, 7.7515)" fill="#FFFFFF">
            <text id="Swapcard" font-family="SFPro-Semibold, SF Pro" font-size="22" font-weight="500">
                <tspan x="0" y="33.4969597">Swapcard</tspan>
            </text>
            <text id="Using-the-webapp" font-family="SFPro-Medium, SF Pro" font-size="12" font-weight="400" letter-spacing="0.3">
                <tspan x="0.298863712" y="11">Using the webapp</tspan>
            </text>
        </g>
        <g id="Group-Copy-4" transform="translate(9, 17.5)">
            <path d="M31.6299794,6.06986746 C31.4274687,6.06986746 31.2413778,5.96587549 31.1373858,5.79620437 C30.179565,4.23632479 28.4828539,3.28397725 26.6493112,3.28397725 C25.1113247,3.28397725 23.6444906,3.95718844 22.6428837,5.12846644 L15.3579723,13.6612814 C15.0295766,14.0881959 14.6628681,14.4767974 14.26332,14.8380327 C12.6924939,16.2337144 10.6619138,17.0054443 8.56018131,17 C3.84222972,17 0,13.1851077 0,8.5 C0,3.81488364 3.84222972,0 8.56018131,0 C11.0778817,-0.00545303571 13.4642238,1.10014583 15.0952558,3.01031416 L16.81386,5.02994773 C16.9014321,5.13393971 16.9014321,5.28171777 16.81386,5.38570974 L15.0022103,7.50386203 C14.9474777,7.5640679 14.8708521,7.60238074 14.7942264,7.60238074 C14.7121275,7.60238074 14.6355018,7.56954117 14.5807692,7.50386203 L12.5666089,5.13941297 L12.5666089,5.13941297 L12.5666089,5.13941297 C11.565002,3.96813496 10.0981678,3.28945051 8.56018131,3.29492377 C5.66482587,3.29492377 3.31132333,5.63200652 3.31132333,8.50546892 C3.31132333,11.3789313 5.66482587,13.7160141 8.56018131,13.7160141 C9.85187107,13.7160141 11.0943015,13.2453136 12.0575955,12.3914847 C12.1561142,12.3039125 20.6506164,2.43014842 20.9461725,2.16743186 C22.5169987,0.771750127 24.5475788,0 26.6547845,0.0054934877 C30.2288244,0.0054934877 33.2993242,2.19479817 34.5800675,5.2926643 C34.6512199,5.46780867 34.6293268,5.67031935 34.5253348,5.82904394 C34.4158696,5.98776853 34.2407252,6.08081398 34.0436878,6.08081398 L31.6299794,6.06986746 L31.6299794,6.06986746 Z" id="Path" fill="#FFFFFF"></path>
            <path d="M26.6547845,16.994518 C24.1370841,16.9999711 21.750742,15.8943722 20.11971,13.9787306 L18.3901593,11.9536238 C18.3025871,11.8496318 18.3025871,11.7018538 18.3901593,11.5978618 L20.201809,9.4797095 C20.2565416,9.41950362 20.3331672,9.38119079 20.4152662,9.38119079 C20.4973651,9.38119079 20.5739908,9.41403036 20.6232501,9.4797095 L22.6483569,11.8551051 C23.6499638,13.0318563 25.1113247,13.7050675 26.6547845,13.7050675 C28.4883272,13.7050675 30.1850383,12.75272 31.1428591,11.1928404 C31.2468511,11.0231693 31.432942,10.9191773 31.6354527,10.9191773 L34.0436878,10.9191773 C34.235252,10.9191773 34.4158696,11.0122228 34.5253348,11.1709474 C34.6348001,11.329672 34.6512199,11.5321826 34.5800675,11.707327 C33.2993242,14.8051931 30.2288244,16.994518 26.6547845,16.994518 L26.6547845,16.994518 Z" id="Path" fill="#59B570" fill-rule="nonzero"></path>
        </g>
    </g>
</svg>