<?xml version="1.0" encoding="UTF-8"?>
<svg width="180px" height="54px" viewBox="0 0 180 54" version="1.1" xmlns="http://www.w3.org/2000/svg" xmlns:xlink="http://www.w3.org/1999/xlink">
    <title>swapcard-en copy</title>
    <defs>
        <path d="M0,0 L180,0 L180,54 L0,54 L0,0 Z" id="path-1"></path>
    </defs>
    <g id="swapcard-en-copy" stroke="none" fill="none" transform="translate(0, 0.0002)" xlink:href="#path-1" fill-rule="evenodd" stroke-width="1">
        <g id="Group-Copy-3" transform="translate(0, 0.0002)">
            <path d="M166.440383,0 L13.5662757,0 C13.0445221,0 12.529029,0 12.0086556,0.00263641246 C11.5730547,0.0052705588 11.1409255,0.0129227539 10.7011414,0.0193632417 C9.74572201,0.0297704905 8.7925649,0.10757593 7.84992253,0.252103242 C6.90860341,0.399777437 5.99677965,0.678184315 5.14528409,1.07790812 C4.2948272,1.48101153 3.51774591,2.00481153 2.84221235,2.63028958 C2.16313593,3.25401592 1.59707528,3.97495544 1.16579979,4.76538373 C0.733329118,5.55424471 0.433453853,6.39958178 0.276527967,7.27219544 C0.118110807,8.14371592 0.0328652101,9.02527251 0.021555949,9.90897592 C0.00835204098,10.3127906 0.00695766276,10.7179486 0,11.1218159 L0,41.5649481 C0.00695766276,41.9738993 0.00835204098,42.3700749 0.021555949,42.7791579 C0.0328686249,43.662914 0.118114364,44.544431 0.276527967,45.4158067 C0.433019888,46.2890262 0.73291365,47.1348506 1.16579979,47.9239091 C1.59689032,48.7117823 2.1630221,49.4298506 2.84221235,50.0500603 C3.51517058,50.6783042 4.29276409,51.2024993 5.14528409,51.6024945 C5.99677965,52.0032798 6.90850381,52.2834213 7.84992253,52.4333042 C8.79272141,52.5767335 9.74579315,52.6545725 10.7011414,52.6661628 C11.1409255,52.6751189 11.5730547,52.6802554 12.0086556,52.6802554 C12.5290148,52.6828896 13.0445505,52.6828896 13.5662757,52.6828896 L166.440383,52.6828896 C166.952604,52.6828896 167.471939,52.6828896 167.982736,52.6802554 C168.416701,52.6802554 168.860625,52.6751189 169.29459,52.6661628 C170.247889,52.655231 171.199766,52.577392 172.14026,52.4333042 C173.085022,52.2823676 173.999905,52.0023579 174.855029,51.6024945 C175.707307,51.2022359 176.484175,50.6781725 177.157176,50.0500603 C177.834445,49.4274798 178.400734,48.7099384 178.837544,47.9239091 C179.26724,47.134192 179.564613,46.2884993 179.718279,45.4158067 C179.877636,44.5442993 179.965852,43.662914 179.982926,42.7791579 C179.988617,42.3700749 179.988617,41.9738993 179.988617,41.5649481 C180,41.0864554 180,40.6105969 180,40.1243335 L180,12.5597832 C180,12.0774579 180,11.5989915 179.988617,11.1218159 C179.988617,10.7179486 179.988617,10.3127906 179.982926,9.90892324 C179.965852,9.0251408 179.877636,8.14378178 179.718279,7.27214275 C179.564613,6.40002958 179.26724,5.55475836 178.837544,4.76533105 C177.959655,3.18099739 176.566699,1.89135885 174.855029,1.07778958 C173.999905,0.67904173 173.085022,0.400708608 172.14026,0.251984705 C171.199766,0.106820588 170.247889,0.028988149 169.29459,0.0191788515 C168.860625,0.0127515344 168.416701,0.00503348563 167.982736,0.00246519295 C167.471939,0 166.952604,0 166.440383,0 Z" id="Path" fill="#A6A6A6" fill-rule="nonzero"></path>
            <path d="M12.015599,51.5303189 C11.5821039,51.5303189 11.1590524,51.5251823 10.7289579,51.5162262 C9.83795017,51.5054262 8.94901982,51.4336457 8.06948019,51.3014115 C7.24934392,51.1706262 6.45484712,50.9274945 5.71221267,50.5797871 C4.97637936,50.2349774 4.30524236,49.7829579 3.72451228,49.2408506 C3.13537326,48.7051969 2.64487938,48.0838018 2.27249502,47.4015579 C1.89599867,46.7148359 1.63543491,45.9787237 1.49989566,45.2189042 C1.35351583,44.4024506 1.27432083,43.5769091 1.26298795,42.749392 C1.25396718,42.4716213 1.24215765,41.5467725 1.24215765,41.5467725 L1.24215765,11.1216447 C1.24215765,11.1216447 1.25473551,10.2110071 1.2630591,9.94347007 C1.27391106,9.11724373 1.35264078,8.29297983 1.49857242,7.4778169 C1.63436779,6.71591641 1.89513074,5.9776969 2.27184052,5.28870958 C2.64285895,4.60688714 3.13062099,3.98511007 3.71620293,3.44750714 C4.30113036,2.90479397 4.97443008,2.45039056 5.71151548,2.10083934 C6.45244253,1.75429105 7.24543112,1.51279251 8.06391691,1.38443056 C8.9463449,1.25083456 9.83836279,1.17860627 10.732458,1.16835153 L12.0163104,1.15227007 L167.975622,1.15227007 L169.27467,1.1689969 C170.161097,1.17874192 171.044677,1.25032617 171.91972,1.38313983 C172.746388,1.51312178 173.547444,1.75630617 174.297278,2.10469836 C175.77418,2.80913495 176.975053,3.92360275 177.733424,5.29192324 C178.103361,5.97615592 178.360894,6.70835641 178.494641,7.46367153 C178.642615,8.28552519 178.72514,9.1162691 178.742214,9.94926519 C178.746482,10.3222603 178.746482,10.722914 178.746482,11.1216447 C178.757865,11.6155471 178.757865,12.0856501 178.757865,12.559612 L178.757865,40.1242018 C178.757865,40.6026945 178.757865,41.0695969 178.746482,41.5403189 C178.746482,41.968631 178.746482,42.3609871 178.740791,42.7648018 C178.723717,43.5829676 178.642615,44.3988945 178.497486,45.2059969 C178.365163,45.9713481 178.104784,46.7131237 177.729155,47.4055091 C177.353527,48.0803774 176.866918,48.6963725 176.283555,49.2305774 C175.703039,49.7755823 175.030038,50.2302359 174.293009,50.5772847 C173.546021,50.9276262 172.744965,51.1716798 171.91972,51.3014115 C171.040409,51.4344359 170.151137,51.5062164 169.260442,51.5162262 C168.843551,51.5251823 168.406741,51.5303189 167.982736,51.5303189 L166.440383,51.532953 L12.015599,51.5303189 Z" id="Path" fill="#000000" fill-rule="nonzero"></path>
        </g>
        <g id="Group" transform="translate(51.7011, 7.7515)" fill="#FFFFFF">
            <g id="Swapcard" transform="translate(0, 12.497)" fill-rule="nonzero">
                <path d="M7.03764343,21.3217621 C5.84548442,21.3217621 4.80584208,21.1404037 3.91871643,20.7776871 C3.03159078,20.4149704 2.33239746,19.9005203 1.82113647,19.2343369 C1.30987549,18.5681534 1.02134705,17.7816518 0.955551147,16.8748322 L0.94480896,16.716217 L3.61373901,16.716217 L3.63002014,16.8375702 C3.69078064,17.2752024 3.87392934,17.6553472 4.17946625,17.9780045 C4.48500315,18.3006617 4.89049276,18.5512848 5.39593506,18.7298737 C5.90137736,18.9084625 6.47876994,18.997757 7.12811279,18.997757 C7.76828003,18.997757 8.32648214,18.9048538 8.80271912,18.7190475 C9.2789561,18.5332413 9.64986928,18.2720439 9.91545868,17.9354553 C10.1810481,17.5988668 10.3138428,17.2092946 10.3138428,16.7667389 L10.3138428,16.7559967 C10.3138428,16.1859894 10.096789,15.7276281 9.66268158,15.3809128 C9.22857412,15.0341975 8.51088969,14.7551524 7.5096283,14.5437775 L5.84190369,14.1968384 C4.28965759,13.8718872 3.14337667,13.3447088 2.40306091,12.615303 C1.66274516,11.8858973 1.29258728,10.9431305 1.29258728,9.78700256 L1.29258728,9.77626038 C1.29739889,8.85948181 1.54528046,8.05667114 2.03623199,7.36782837 C2.52718353,6.6789856 3.20450083,6.1416804 4.0681839,5.75591278 C4.93186696,5.37014516 5.92090352,5.17726135 7.03529358,5.17726135 C8.16993713,5.17726135 9.15746307,5.36508179 9.9978714,5.74072266 C10.8382797,6.11636353 11.4993998,6.63534546 11.9812317,7.29766846 C12.4630636,7.95999146 12.7324015,8.7208964 12.7892456,9.5803833 L12.7999878,9.74403381 L10.153717,9.74403381 L10.134079,9.60925293 C10.0702972,9.17945353 9.90314992,8.80789693 9.63263702,8.49458313 C9.36212413,8.18126933 9.00491842,7.93680064 8.5610199,7.76117706 C8.11712138,7.58555349 7.60199992,7.49891663 7.01565552,7.50126648 C6.42819214,7.50126648 5.9134903,7.58863068 5.47154999,7.76335907 C5.02960968,7.93808746 4.68583171,8.18331146 4.44021606,8.49903107 C4.19460042,8.81475067 4.0717926,9.18829346 4.0717926,9.61965942 L4.0717926,9.63040161 C4.0717926,10.1728821 4.28783925,10.6175639 4.71993256,10.964447 C5.15202586,11.3113302 5.84246318,11.5844727 6.79124451,11.7838745 L8.45896912,12.1341705 C9.5416921,12.3577423 10.4233348,12.6593068 11.1038971,13.0388641 C11.7844594,13.4184214 12.2861532,13.8920288 12.6089783,14.4596863 C12.9318034,15.0273438 13.0932159,15.7081858 13.0932159,16.5022125 L13.0932159,16.5129547 C13.0932159,17.4956411 12.8491669,18.3468475 12.3610687,19.0665741 C11.8729706,19.7863007 11.1760712,20.342097 10.2703705,20.733963 C9.3646698,21.1258291 8.28709412,21.3217621 7.03764343,21.3217621 Z" id="Path"></path>
                <polygon id="Path" points="17.3618966 21 14.2255136 9.44644165 16.9105569 9.44644165 18.8476754 18.227005 18.9651681 18.227005 21.2042428 9.44644165 23.757023 9.44644165 26.0085183 18.227005 26.126011 18.227005 28.0631295 9.44644165 30.7067147 9.44644165 27.5810739 21 24.7750131 21 22.5069009 12.5861816 22.3894082 12.5861816 20.1372415 21"></polygon>
                <path d="M35.2189797,21.1941986 C34.469824,21.1941986 33.80641,21.0496826 33.2287377,20.7606506 C32.6510654,20.4716187 32.1989144,20.0657934 31.8722848,19.5431747 C31.5456551,19.0205561 31.3823403,18.413147 31.3823403,17.7209473 L31.3823403,17.7013092 C31.3823403,17.0123545 31.5533481,16.4211426 31.8953637,15.9276733 C32.2373793,15.4342041 32.7353804,15.0453873 33.389367,14.7612228 C34.0433536,14.4770584 34.8362333,14.3070577 35.7680062,14.2512207 L40.1214455,13.9888763 L40.1214455,15.7516022 L36.1463326,16.0053864 C35.4471952,16.0461171 34.9205483,16.202774 34.5663918,16.4753571 C34.2122353,16.7479401 34.0351571,17.1174266 34.0351571,17.5838165 L34.0351571,17.6034546 C34.0351571,18.0841675 34.2185855,18.4618785 34.5854424,18.7365875 C34.9522993,19.0112966 35.4309141,19.1486511 36.0212868,19.1486511 C36.5466469,19.1486511 37.0158623,19.0432994 37.428933,18.8325958 C37.8420037,18.6218923 38.1682417,18.334343 38.407647,17.9699478 C38.6470523,17.6055527 38.766755,17.1951396 38.766755,16.7387085 L38.766755,13.1806946 C38.766755,12.5997213 38.5832706,12.1480459 38.2163018,11.8256683 C37.849333,11.5032908 37.3159442,11.3421021 36.6161355,11.3421021 C35.9929767,11.3421021 35.4895765,11.4626719 35.105935,11.7038116 C34.7222934,11.9449514 34.4751392,12.2677765 34.3644723,12.672287 L34.3465127,12.743454 L31.8474434,12.743454 L31.8581856,12.6358643 C31.9315906,11.9653727 32.1732898,11.3735733 32.5832833,10.860466 C32.9932768,10.3473587 33.5497724,9.94483439 34.2527703,9.65289307 C34.9557681,9.36095174 35.780203,9.21498108 36.726075,9.21498108 C37.7056283,9.21498108 38.5457568,9.37169393 39.2464608,9.68511963 C39.9471647,9.99854533 40.4855609,10.4442622 40.8616494,11.0222702 C41.2377378,11.6002782 41.4257821,12.2859039 41.4257821,13.0791473 L41.4257821,21 L38.766755,21 L38.766755,19.3128052 L38.6492623,19.3128052 C38.4336353,19.7010905 38.1544783,20.0364202 37.8117913,20.3187943 C37.4691043,20.6011683 37.0789447,20.8176626 36.6413125,20.968277 C36.2036802,21.1188914 35.7295693,21.1941986 35.2189797,21.1941986 Z" id="Path"></path>
                <path d="M43.8114946,24.8265686 L43.8114946,9.44644165 L46.4834459,9.44644165 L46.4834459,11.3531799 L46.6027849,11.3531799 C46.8210975,10.9099528 47.1025764,10.5312068 47.4472216,10.2169418 C47.7918667,9.9026769 48.1923209,9.66033427 48.6485842,9.48991394 C49.1048474,9.31949361 49.6047228,9.23428345 50.1482103,9.23428345 C51.1236233,9.23428345 51.9675844,9.47668203 52.6800936,9.96147919 C53.3926027,10.4462763 53.9431958,11.1357066 54.3318727,12.0297699 C54.7205497,12.9238332 54.9148882,13.9860229 54.9148882,15.2163391 L54.9148882,15.2321167 C54.9148882,16.4645589 54.721305,17.527448 54.3341387,18.420784 C53.9469723,19.31412 53.3990089,20.002683 52.6902483,20.4864731 C51.9814877,20.9702632 51.1410234,21.2121582 50.1688555,21.2121582 C49.6310747,21.2121582 49.1306678,21.1265004 48.6676348,20.9551849 C48.2046017,20.7838694 47.7977694,20.5409673 47.4471376,20.2264786 C47.0965059,19.9119898 46.8144396,19.5369364 46.6009386,19.1013184 L46.4834459,19.1013184 L46.4834459,24.8265686 L43.8114946,24.8265686 Z M49.3370073,18.9591522 C49.9280514,18.9591522 50.4368507,18.8083979 50.863405,18.5068893 C51.2899594,18.2053808 51.6182395,17.7757212 51.8482454,17.2179108 C52.0782513,16.6601003 52.1932543,15.9981689 52.1932543,15.2321167 L52.1932543,15.2163391 C52.1932543,14.4405518 52.0779436,13.7743403 51.8473223,13.2177048 C51.6167009,12.6610692 51.2881131,12.2335078 50.8615587,11.9350204 C50.4350044,11.6365331 49.9268206,11.4872894 49.3370073,11.4872894 C48.7598385,11.4872894 48.2549557,11.6387711 47.8223589,11.9417343 C47.389762,12.2446976 47.0543764,12.6742452 46.816202,13.2303772 C46.5780275,13.7865092 46.4589403,14.4485524 46.4589403,15.216507 L46.4589403,15.2322845 C46.4589403,15.9930776 46.5789507,16.6526591 46.8189714,17.2110291 C47.0589922,17.769399 47.3943499,18.2003454 47.8250444,18.5038681 C48.255739,18.8073908 48.7597266,18.9591522 49.3370073,18.9591522 Z" id="Shape"></path>
                <path d="M61.8694733,21.2314606 C60.7199473,21.2314606 59.7299876,20.9892019 58.8995941,20.5046844 C58.0692006,20.020167 57.4306839,19.3275197 56.9840439,18.4267426 C56.5374039,17.5259654 56.3140839,16.4527537 56.3140839,15.2071075 L56.3140839,15.19133 C56.3140839,13.956426 56.5381312,12.8926697 56.9862259,12.000061 C57.4343206,11.1074524 58.0725856,10.4201202 58.9010208,9.93806458 C59.7294561,9.45600891 60.7134013,9.21498108 61.8528564,9.21498108 C62.8564677,9.21498108 63.7226964,9.39726257 64.4515427,9.76182556 C65.1803889,10.1263885 65.7549561,10.6206411 66.1752441,11.2445831 C66.5955322,11.8685252 66.8437215,12.5722504 66.919812,13.3557587 L66.9240082,13.4183655 L64.4032867,13.4183655 L64.3886841,13.3574371 C64.2754435,12.7957102 64.0077281,12.3256276 63.5855377,11.9471893 C63.1633474,11.568751 62.5921651,11.3795319 61.871991,11.3795319 C61.2876607,11.3795319 60.7834213,11.5324122 60.3592728,11.8381729 C59.9351242,12.1439336 59.6084946,12.5815938 59.3793839,13.1511536 C59.1502731,13.7207133 59.0357178,14.4039612 59.0357178,15.2008972 L59.0357178,15.2166748 C59.0357178,16.0271505 59.1511963,16.7196859 59.3821533,17.294281 C59.6131104,17.8688761 59.9413345,18.3079631 60.3668259,18.6115417 C60.7923172,18.9151204 61.2966126,19.0669098 61.8797119,19.0669098 C62.5666524,19.0669098 63.1205744,18.8958181 63.541478,18.5536346 C63.9623815,18.2114512 64.2443919,17.7372843 64.3875092,17.131134 L64.4071472,17.0614777 L66.9282043,17.0564423 L66.9191406,17.1356659 C66.8224609,17.9291331 66.5602565,18.6341171 66.1325272,19.250618 C65.7047979,19.8671188 65.1315175,20.3513845 64.4126862,20.7034149 C63.6938548,21.0554454 62.8461172,21.2314606 61.8694733,21.2314606 Z" id="Path"></path>
                <path d="M72.0064596,21.1941986 C71.2573039,21.1941986 70.5938899,21.0496826 70.0162176,20.7606506 C69.4385453,20.4716187 68.9863943,20.0657934 68.6597646,19.5431747 C68.333135,19.0205561 68.1698202,18.413147 68.1698202,17.7209473 L68.1698202,17.7013092 C68.1698202,17.0123545 68.340828,16.4211426 68.6828436,15.9276733 C69.0248591,15.4342041 69.5228602,15.0453873 70.1768469,14.7612228 C70.8308335,14.4770584 71.6237132,14.3070577 72.5554861,14.2512207 L76.9089254,13.9888763 L76.9089254,15.7516022 L72.9338125,16.0053864 C72.2346751,16.0461171 71.7080282,16.202774 71.3538717,16.4753571 C70.9997152,16.7479401 70.822637,17.1174266 70.822637,17.5838165 L70.822637,17.6034546 C70.822637,18.0841675 71.0060654,18.4618785 71.3729223,18.7365875 C71.7397792,19.0112966 72.218394,19.1486511 72.8087667,19.1486511 C73.3341268,19.1486511 73.8033422,19.0432994 74.2164129,18.8325958 C74.6294836,18.6218923 74.9557216,18.334343 75.1951269,17.9699478 C75.4345322,17.6055527 75.5542349,17.1951396 75.5542349,16.7387085 L75.5542349,13.1806946 C75.5542349,12.5997213 75.3707505,12.1480459 75.0037817,11.8256683 C74.6368129,11.5032908 74.1034241,11.3421021 73.4036154,11.3421021 C72.7804566,11.3421021 72.2770564,11.4626719 71.8934148,11.7038116 C71.5097733,11.9449514 71.2626191,12.2677765 71.1519521,12.672287 L71.1339925,12.743454 L68.6349233,12.743454 L68.6456655,12.6358643 C68.7190705,11.9653727 68.9607697,11.3735733 69.3707632,10.860466 C69.7807567,10.3473587 70.3372523,9.94483439 71.0402502,9.65289307 C71.743248,9.36095174 72.5676829,9.21498108 73.5135549,9.21498108 C74.4931081,9.21498108 75.3332367,9.37169393 76.0339407,9.68511963 C76.7346446,9.99854533 77.2730408,10.4442622 77.6491293,11.0222702 C78.0252177,11.6002782 78.213262,12.2859039 78.213262,13.0791473 L78.213262,21 L75.5542349,21 L75.5542349,19.3128052 L75.4367422,19.3128052 C75.2211151,19.7010905 74.9419581,20.0364202 74.5992712,20.3187943 C74.2565842,20.6011683 73.8664246,20.8176626 73.4287924,20.968277 C72.9911601,21.1188914 72.5170492,21.1941986 72.0064596,21.1941986 Z" id="Path"></path>
                <path d="M80.5989745,21 L80.5989745,9.44644165 L83.2709258,9.44644165 L83.2709258,11.3321991 L83.3884185,11.3321991 C83.5759592,10.6723378 83.9127715,10.1577199 84.3988555,9.78834534 C84.8849395,9.41897074 85.4830891,9.23428345 86.1933044,9.23428345 C86.3790547,9.23428345 86.5567763,9.24547323 86.7264693,9.26785278 C86.8961623,9.29023234 87.0387481,9.31697591 87.1542266,9.3480835 L87.1542266,11.7541656 C86.9942128,11.7073924 86.8113158,11.6704381 86.6055358,11.6433029 C86.3997558,11.6161677 86.1814991,11.6026001 85.9507659,11.6026001 C85.4048166,11.6026001 84.9307337,11.7097422 84.5285171,11.9240265 C84.1263005,12.1383108 83.8161478,12.4458059 83.598059,12.8465118 C83.3799702,13.2472178 83.2709258,13.7281545 83.2709258,14.2893219 L83.2709258,21 L80.5989745,21 Z" id="Path"></path>
                <path d="M92.515982,21.2121582 C91.5463877,21.2121582 90.7044687,20.9697316 89.9902252,20.4848785 C89.2759816,20.0000254 88.7245493,19.309728 88.3359283,18.4139862 C87.9473073,17.5182444 87.7529968,16.4563344 87.7529968,15.2282562 L87.7529968,15.2124786 C87.7529968,13.9788055 87.9471674,12.915301 88.3355087,12.021965 C88.7238499,11.128629 89.2736317,10.4406815 89.9848541,9.95812225 C90.6960764,9.47556305 91.5371002,9.23428345 92.5079254,9.23428345 C93.0470489,9.23428345 93.5468963,9.32022095 94.0074676,9.49209595 C94.4680389,9.66397095 94.8748433,9.90810394 95.2278808,10.2244949 C95.5809183,10.5408859 95.8617818,10.9191844 96.0704711,11.3593903 L96.1879638,11.3593903 L96.1879638,5.12757874 L98.8599151,5.12757874 L98.8599151,21 L96.1879638,21 L96.1879638,19.1112213 L96.0704711,19.1112213 C95.8559631,19.5497487 95.5754353,19.924914 95.2288879,20.2367172 C94.8823404,20.5485204 94.4809351,20.7890447 94.0246719,20.9582901 C93.5684087,21.1275355 93.065512,21.2121582 92.515982,21.2121582 Z M93.3307098,18.9591522 C93.9102284,18.9591522 94.4160064,18.8076706 94.8480438,18.5047073 C95.2800811,18.2017441 95.6149073,17.7706858 95.8525222,17.2115326 C96.0901372,16.6523794 96.2089446,15.9924062 96.2089446,15.2316132 L96.2089446,15.2158356 C96.2089446,14.4504547 96.0889063,13.7894465 95.8488296,13.232811 C95.6087529,12.6761754 95.273647,12.2460963 94.8435119,11.9425735 C94.4133768,11.6390508 93.9091094,11.4872894 93.3307098,11.4872894 C92.7443654,11.4872894 92.2370768,11.6374283 91.8088439,11.937706 C91.3806111,12.2379837 91.051184,12.6658249 90.8205627,13.2212296 C90.5899414,13.7766342 90.4746307,14.4403839 90.4746307,15.2124786 L90.4746307,15.2282562 C90.4746307,15.9978892 90.5896336,16.6622823 90.8196395,17.2214355 C91.0496454,17.7805888 91.3787928,18.2099965 91.8070815,18.5096588 C92.2353703,18.8093211 92.7432464,18.9591522 93.3307098,18.9591522 Z" id="Shape"></path>
            </g>
            <g id="Using-the-webapp" transform="translate(0.2989, 0)" fill-rule="nonzero">
                <path d="M4.47802734,11.2056274 C3.77093506,11.2056274 3.16122437,11.0749512 2.64889526,10.8135986 C2.13656616,10.5522461 1.74186707,10.1876373 1.46479797,9.71977234 C1.18772888,9.25190735 1.04919434,8.70883179 1.04919434,8.09054565 L1.04919434,2.54492188 L2.36599731,2.54492188 L2.36599731,7.98800659 C2.36599731,8.39578247 2.44894409,8.75325012 2.61483765,9.06040955 C2.7807312,9.36756897 3.02087402,9.6075592 3.33526611,9.78038025 C3.6496582,9.95320129 4.03094482,10.0396118 4.47912598,10.0396118 C4.92730713,10.0396118 5.30796814,9.95320129 5.62110901,9.78038025 C5.93424988,9.6075592 6.17279053,9.36756897 6.33673096,9.06040955 C6.50067139,8.75325012 6.5826416,8.39578247 6.5826416,7.98800659 L6.5826416,2.54492188 L7.89944458,2.54492188 L7.89944458,8.09054565 C7.89944458,8.70809937 7.7618866,9.25080872 7.48677063,9.71867371 C7.21165466,10.1865387 6.81872559,10.5513306 6.3079834,10.8130493 C5.79724121,11.0747681 5.18725586,11.2056274 4.47802734,11.2056274 Z" id="Path"></path>
                <path d="M12.4765165,11.1210327 C11.9654692,11.1210327 11.5205992,11.0461578 11.1419065,10.8964081 C10.7632139,10.7466583 10.4626005,10.5378571 10.2400663,10.2700043 C10.0175322,10.0021515 9.88636761,9.69082642 9.84657269,9.33602905 L9.84547405,9.32632446 L11.1227262,9.32632446 L11.1259306,9.33493042 C11.2061308,9.57376099 11.3615568,9.76751709 11.5922087,9.91619873 C11.8228605,10.0648804 12.1271818,10.1392212 12.5051725,10.1392212 C12.7667082,10.1392212 12.9962004,10.1017151 13.1936491,10.0267029 C13.3910978,9.95169067 13.546417,9.84844971 13.6596067,9.71697998 C13.7727964,9.58551025 13.8293913,9.43304443 13.8293913,9.25958252 L13.8293913,9.2489624 C13.8293913,9.0491333 13.7491911,8.88082886 13.5887907,8.74404907 C13.4283903,8.60726929 13.1643217,8.49594116 12.7965849,8.4100647 L11.7826384,8.17779541 C11.3823698,8.08624268 11.0516966,7.96258545 10.7906187,7.80682373 C10.5295408,7.65106201 10.3359526,7.45870972 10.2098539,7.22976685 C10.0837553,7.00082397 10.020706,6.73236084 10.020706,6.42437744 L10.020706,6.41851807 C10.020706,6.04693604 10.1266478,5.71798706 10.3385313,5.43167114 C10.5504148,5.14535522 10.8430479,4.92070007 11.2164305,4.75770569 C11.589813,4.5947113 12.0156096,4.51321411 12.49382,4.51321411 C12.9803923,4.51321411 13.4042356,4.58808899 13.7653502,4.73783875 C14.1264647,4.8875885 14.4122313,5.0949707 14.62265,5.35998535 C14.8330687,5.625 14.957443,5.93011475 14.9957731,6.27532959 L14.9957731,6.28283691 L13.7778471,6.28283691 L13.7756498,6.27313232 C13.7171782,6.050354 13.5781096,5.86477661 13.358444,5.71640015 C13.1387785,5.56802368 12.8489836,5.49383545 12.4890593,5.49383545 C12.2584074,5.49383545 12.0532988,5.52975464 11.8737333,5.60159302 C11.6941679,5.6734314 11.5525816,5.77322388 11.4489744,5.90097046 C11.3453672,6.02871704 11.2935637,6.1784668 11.2935637,6.35021973 L11.2935637,6.36083984 C11.2935637,6.49145508 11.3278044,6.60696411 11.3962858,6.70736694 C11.4647673,6.80776978 11.5728453,6.89558411 11.7205198,6.97080994 C11.8681944,7.04603577 12.0604094,7.11276245 12.2971647,7.17098999 L13.3063505,7.40325928 C13.9194487,7.54559326 14.3745573,7.75367737 14.6716764,8.0275116 C14.9687956,8.30134583 15.1173552,8.66912842 15.1173552,9.13085938 L15.1173552,9.14147949 C15.1173552,9.53442383 15.0024412,9.87998962 14.7726133,10.1781769 C14.5427855,10.4763641 14.2293852,10.7080536 13.8324125,10.8732452 C13.4354399,11.0384369 12.9834745,11.1210327 12.4765165,11.1210327 Z" id="Path"></path>
                <path d="M16.9529921,11 L16.9529921,4.63415527 L18.2260328,4.63415527 L18.2260328,11 L16.9529921,11 Z M17.5942274,3.49917603 C17.3770643,3.49917603 17.1896559,3.42124939 17.0320021,3.26539612 C16.8743483,3.10954285 16.7955214,2.92303467 16.7955214,2.70587158 C16.7955214,2.48474121 16.8743483,2.29704285 17.0320021,2.14277649 C17.1896559,1.98851013 17.3770643,1.91137695 17.5942274,1.91137695 C17.8153578,1.91137695 18.0037733,1.98851013 18.159474,2.14277649 C18.3151747,2.29704285 18.393025,2.48474121 18.393025,2.70587158 C18.393025,2.92303467 18.3151747,3.10954285 18.159474,3.26539612 C18.0037733,3.42124939 17.8153578,3.49917603 17.5942274,3.49917603 Z" id="Shape"></path>
                <path d="M20.3748888,11 L20.3748888,4.63415527 L21.6479296,4.63415527 L21.6479296,5.60058594 L21.7459826,5.60058594 C21.9018053,5.25964355 22.1322588,4.99317932 22.437343,4.80119324 C22.7424273,4.60920715 23.1266893,4.51321411 23.5901293,4.51321411 C24.3039354,4.51321411 24.8503679,4.71821594 25.2294268,5.1282196 C25.6084856,5.53822327 25.798015,6.12216187 25.798015,6.8800354 L25.798015,11 L24.5249743,11 L24.5249743,7.17877197 C24.5249743,6.65002441 24.4137987,6.25547791 24.1914476,5.99513245 C23.9690966,5.73478699 23.6242479,5.60461426 23.1569017,5.60461426 C22.8474535,5.60461426 22.5800737,5.67222595 22.3547625,5.80744934 C22.1294512,5.94267273 21.9553179,6.13378906 21.8323626,6.38079834 C21.7094072,6.62780762 21.6479296,6.92251587 21.6479296,7.2649231 L21.6479296,11 L20.3748888,11 Z" id="Path"></path>
                <path d="M30.5597875,13.2415771 C30.0197484,13.2415771 29.5518682,13.1681366 29.1561467,13.0212555 C28.7604253,12.8743744 28.4472081,12.6676636 28.2164952,12.401123 C27.9857823,12.1345825 27.8441808,11.8258362 27.7916905,11.474884 L27.8001134,11.4604187 L29.0879857,11.4604187 L29.0949437,11.4727783 C29.1467626,11.6917114 29.2995336,11.871521 29.5532567,12.012207 C29.8069798,12.1528931 30.1471593,12.2232361 30.573795,12.2232361 C31.1001012,12.2232361 31.5104405,12.1046143 31.8048131,11.8673706 C32.0991857,11.630127 32.2463719,11.2955627 32.2463719,10.863678 L32.2463719,9.61425781 L32.148319,9.61425781 C32.0212438,9.84332275 31.8600652,10.03862 31.6647832,10.2001495 C31.4695012,10.3616791 31.2472112,10.483551 30.9979131,10.5657654 C30.748615,10.6479797 30.4776341,10.6890869 30.1849706,10.6890869 C29.6434667,10.6890869 29.1751897,10.5592041 28.7801396,10.2994385 C28.3850896,10.0396729 28.0806767,9.68002319 27.8669011,9.2204895 C27.6531255,8.76095581 27.5462377,8.23233032 27.5462377,7.63461304 L27.5462377,7.62289429 C27.5462377,7.01724243 27.6539189,6.48188782 27.8692815,6.01683044 C28.084644,5.55177307 28.39101,5.18704224 28.7883794,4.92263794 C29.1857488,4.65823364 29.6598241,4.52603149 30.2106053,4.52603149 C30.5074803,4.52603149 30.7805516,4.57273865 31.0298192,4.66615295 C31.2790868,4.75956726 31.4993321,4.89221191 31.6905553,5.06408691 C31.8817784,5.23596191 32.0393407,5.44174194 32.1632421,5.681427 L32.2367589,5.681427 L32.2367589,4.63415527 L33.5097997,4.63415527 L33.5097997,10.8712769 C33.5097997,11.3529053 33.3898198,11.7714844 33.1498601,12.1270142 C32.9099004,12.4825439 32.568958,12.7571869 32.1270329,12.950943 C31.6851079,13.1446991 31.1626927,13.2415771 30.5597875,13.2415771 Z M30.5387303,9.63632202 C30.899265,9.63632202 31.2082555,9.55140686 31.4657018,9.38157654 C31.7231481,9.21174622 31.9211614,8.97653198 32.0597417,8.67593384 C32.198322,8.37533569 32.2676122,8.02786255 32.2676122,7.6335144 L32.2676122,7.62179565 C32.2676122,7.22744751 32.198322,6.87837219 32.0597417,6.5745697 C31.9211614,6.27076721 31.7231481,6.03334045 31.4657018,5.86228943 C31.2082555,5.6912384 30.899265,5.60571289 30.5387303,5.60571289 C30.1789281,5.60571289 29.8734929,5.6912384 29.6224248,5.86228943 C29.3713567,6.03334045 29.1797215,6.27058411 29.0475194,6.57402039 C28.9153172,6.87745667 28.8492162,7.22634888 28.8492162,7.62069702 L28.8492162,7.63241577 C28.8492162,8.02676392 28.9153172,8.37442017 29.0475194,8.67538452 C29.1797215,8.97634888 29.3713567,9.21174622 29.6224248,9.38157654 C29.8734929,9.55140686 30.1789281,9.63632202 30.5387303,9.63632202 Z" id="Shape"></path>
                <path d="M41.6145103,11.038269 C40.9166954,11.038269 40.412606,10.9050903 40.1022423,10.6387329 C39.7918785,10.3723755 39.6366966,9.93411255 39.6366966,9.32394409 L39.6366966,5.64123535 L38.6417015,5.64123535 L38.6417015,4.63415527 L39.6366966,4.63415527 L39.6366966,3.03381348 L40.938485,3.03381348 L40.938485,4.63415527 L42.3029869,4.63415527 L42.3029869,5.64123535 L40.938485,5.64123535 L40.938485,9.01559448 C40.938485,9.3565979 41.00718,9.60314941 41.1445702,9.75524902 C41.2819603,9.90734863 41.5075462,9.98339844 41.821328,9.98339844 C41.9183739,9.98339844 42.0005577,9.98126221 42.0678795,9.97698975 C42.1352013,9.97271729 42.2135704,9.9666748 42.3029869,9.9588623 L42.3029869,10.9742737 C42.202462,10.9913635 42.0938805,11.0063019 41.9772423,11.0190887 C41.8606041,11.0318756 41.7396935,11.038269 41.6145103,11.038269 Z" id="Path"></path>
                <path d="M44.1464144,11 L44.1464144,2.14135742 L45.4194551,2.14135742 L45.4194551,5.60058594 L45.5175081,5.60058594 C45.6733309,5.25964355 45.9037844,4.99317932 46.2088686,4.80119324 C46.5139528,4.60920715 46.8982149,4.51321411 47.3616549,4.51321411 C47.8364473,4.51321411 48.237723,4.60545349 48.5654818,4.78993225 C48.8932405,4.97441101 49.1425234,5.24263 49.3133303,5.59458923 C49.4841372,5.94654846 49.5695406,6.37503052 49.5695406,6.8800354 L49.5695406,11 L48.2964998,11 L48.2964998,7.17877197 C48.2964998,6.65002441 48.1853243,6.25547791 47.9629732,5.99513245 C47.7406221,5.73478699 47.3957735,5.60461426 46.9284273,5.60461426 C46.6189791,5.60461426 46.3515993,5.67222595 46.126288,5.80744934 C45.9009768,5.94267273 45.7268435,6.13378906 45.6038881,6.38079834 C45.4809328,6.62780762 45.4194551,6.92251587 45.4194551,7.2649231 L45.4194551,11 L44.1464144,11 Z" id="Path"></path>
                <path d="M54.3132771,11.1210327 C53.6923665,11.1210327 53.1589345,10.9871368 52.7129811,10.7193451 C52.2670278,10.4515533 51.9239034,10.0718079 51.683608,9.58010864 C51.4433125,9.08840942 51.3231648,8.5071106 51.3231648,7.83621216 L51.3231648,7.83035278 C51.3231648,7.16586304 51.4431294,6.58537292 51.6830586,6.08888245 C51.9229878,5.59239197 52.2624654,5.20565796 52.7014913,4.92868042 C53.1405171,4.65170288 53.6555928,4.51321411 54.2467183,4.51321411 C54.8402242,4.51321411 55.3512715,4.64656067 55.7798604,4.91325378 C56.2084493,5.1799469 56.5379323,5.55256653 56.7683095,6.03111267 C56.9986867,6.50965881 57.1138753,7.06768799 57.1138753,7.7052002 L57.1138753,8.15197754 L51.9708089,8.15197754 L51.9708089,7.24295044 L56.4817037,7.24295044 L55.8683003,8.08596802 L55.8683003,7.57958984 C55.8683003,7.12359619 55.7996205,6.74671936 55.6622609,6.44895935 C55.5249013,6.15119934 55.3350362,5.92823792 55.0926656,5.78007507 C54.850295,5.63191223 54.5706319,5.55783081 54.2536763,5.55783081 C53.9375142,5.55783081 53.6556691,5.63510132 53.408141,5.78964233 C53.160613,5.94418335 52.9649953,6.17193604 52.821288,6.47290039 C52.6775807,6.77386475 52.6057271,7.14276123 52.6057271,7.57958984 L52.6057271,8.08807373 C52.6057271,8.50579834 52.6759786,8.86273193 52.8164815,9.15887451 C52.9569844,9.45501709 53.1573018,9.68196106 53.4174336,9.83970642 C53.6775655,9.99745178 53.9854268,10.0763245 54.3410176,10.0763245 C54.6132955,10.0763245 54.8484487,10.0381622 55.0464772,9.96183777 C55.2445058,9.88551331 55.4065084,9.79055786 55.5324849,9.67697144 C55.6584615,9.56338501 55.7459554,9.45233154 55.7949666,9.34381104 L55.8162068,9.2975769 L57.0463094,9.29647827 L57.033492,9.34875488 C56.9809407,9.55859375 56.8862294,9.76766968 56.7493581,9.97598267 C56.6124867,10.1842957 56.4321736,10.3748779 56.2084188,10.5477295 C55.9846639,10.7205811 55.7147817,10.8593445 55.3987721,10.9640198 C55.0827626,11.0686951 54.720931,11.1210327 54.3132771,11.1210327 Z" id="Path"></path>
                <polygon id="Path" points="63.718852 11 61.9665327 4.63415527 63.2449751 4.63415527 64.3839827 9.54632568 64.4820356 9.54632568 65.7910566 4.63415527 67.0006514 4.63415527 68.3127851 9.54632568 68.4108381 9.54632568 69.5499372 4.63415527 70.8128157 4.63415527 69.062602 11 67.7471724 11 66.429637 6.25509644 66.331584 6.25509644 65.020915 11"></polygon>
                <path d="M74.8386,11.1210327 C74.2176893,11.1210327 73.6842573,10.9871368 73.2383039,10.7193451 C72.7923506,10.4515533 72.4492262,10.0718079 72.2089308,9.58010864 C71.9686354,9.08840942 71.8484877,8.5071106 71.8484877,7.83621216 L71.8484877,7.83035278 C71.8484877,7.16586304 71.9684523,6.58537292 72.2083815,6.08888245 C72.4483107,5.59239197 72.7877882,5.20565796 73.2268141,4.92868042 C73.66584,4.65170288 74.1809156,4.51321411 74.7720411,4.51321411 C75.365547,4.51321411 75.8765944,4.64656067 76.3051832,4.91325378 C76.7337721,5.1799469 77.0632551,5.55256653 77.2936323,6.03111267 C77.5240095,6.50965881 77.6391981,7.06768799 77.6391981,7.7052002 L77.6391981,8.15197754 L72.4961317,8.15197754 L72.4961317,7.24295044 L77.0070265,7.24295044 L76.3936232,8.08596802 L76.3936232,7.57958984 C76.3936232,7.12359619 76.3249434,6.74671936 76.1875837,6.44895935 C76.0502241,6.15119934 75.860359,5.92823792 75.6179884,5.78007507 C75.3756178,5.63191223 75.0959547,5.55783081 74.7789991,5.55783081 C74.462837,5.55783081 74.1809919,5.63510132 73.9334639,5.78964233 C73.6859358,5.94418335 73.4903181,6.17193604 73.3466108,6.47290039 C73.2029036,6.77386475 73.1310499,7.14276123 73.1310499,7.57958984 L73.1310499,8.08807373 C73.1310499,8.50579834 73.2013014,8.86273193 73.3418043,9.15887451 C73.4823072,9.45501709 73.6826246,9.68196106 73.9427565,9.83970642 C74.2028883,9.99745178 74.5107496,10.0763245 74.8663404,10.0763245 C75.1386183,10.0763245 75.3737715,10.0381622 75.5718,9.96183777 C75.7698286,9.88551331 75.9318312,9.79055786 76.0578077,9.67697144 C76.1837843,9.56338501 76.2712782,9.45233154 76.3202894,9.34381104 L76.3415297,9.2975769 L77.5716322,9.29647827 L77.5588148,9.34875488 C77.5062635,9.55859375 77.4115522,9.76766968 77.2746809,9.97598267 C77.1378096,10.1842957 76.9574965,10.3748779 76.7337416,10.5477295 C76.5099867,10.7205811 76.2401045,10.8593445 75.924095,10.9640198 C75.6080854,11.0686951 75.2462538,11.1210327 74.8386,11.1210327 Z" id="Path"></path>
                <path d="M82.8358832,11.1081238 C82.5393744,11.1081238 82.2659369,11.0635529 82.0155707,10.974411 C81.7652045,10.8852692 81.5441504,10.7580566 81.3524085,10.5927734 C81.1606666,10.4274902 81.0035773,10.228363 80.8811408,9.99539185 L80.7830878,9.99539185 L80.7830878,11 L79.5100471,11 L79.5100471,2.14135742 L80.7830878,2.14135742 L80.7830878,5.64315796 L80.8811408,5.64315796 C80.9954597,5.41299438 81.1498176,5.21516418 81.3442145,5.04966736 C81.5386115,4.88417053 81.7630225,4.75552368 82.0174476,4.66372681 C82.2718726,4.57192993 82.5446845,4.52603149 82.8358832,4.52603149 C83.3746406,4.52603149 83.841178,4.66007996 84.2354957,4.92817688 C84.6298133,5.1962738 84.9347449,5.57589722 85.1502906,6.06704712 C85.3658362,6.55819702 85.4736091,7.1395874 85.4736091,7.81121826 L85.4736091,7.82293701 C85.4736091,8.4899292 85.3653022,9.0697937 85.1486884,9.56253052 C84.9320746,10.0552673 84.6266089,10.4360504 84.2322913,10.7048798 C83.8379737,10.9737091 83.3725043,11.1081238 82.8358832,11.1081238 Z M82.4737006,10.0167236 C82.8295966,10.0167236 83.1340552,9.92878723 83.3870765,9.75291443 C83.6400977,9.57704163 83.8346625,9.32489014 83.9707709,8.99645996 C84.1068793,8.66802979 84.1749335,8.27685547 84.1749335,7.82293701 L84.1749335,7.81121826 C84.1749335,7.3548584 84.1068793,6.96324158 83.9707709,6.6363678 C83.8346625,6.30949402 83.6400977,6.05796814 83.3870765,5.88179016 C83.1340552,5.70561218 82.8295966,5.61752319 82.4737006,5.61752319 C82.1216498,5.61752319 81.8173438,5.70623779 81.5607825,5.88366699 C81.3042212,6.06109619 81.1069098,6.31323242 80.9688483,6.64007568 C80.8307868,6.96691895 80.761756,7.35766602 80.761756,7.81231689 L80.761756,7.82403564 C80.761756,8.27471924 80.8306037,8.66429138 80.968299,8.99275208 C81.1059943,9.32121277 81.3031379,9.57398987 81.5597297,9.75108337 C81.8163215,9.92817688 82.1209785,10.0167236 82.4737006,10.0167236 Z" id="Shape"></path>
                <path d="M89.0287322,11.1081238 C88.6267547,11.1081238 88.2667541,11.0307007 87.9487304,10.8758545 C87.6307067,10.7210083 87.3800048,10.5011597 87.1966247,10.2163086 C87.0132445,9.93145752 86.9215545,9.59619141 86.9215545,9.21051025 L86.9215545,9.1987915 C86.9215545,8.81951904 87.0139007,8.49430847 87.198593,8.22315979 C87.3832854,7.95201111 87.6528777,7.73918152 88.0073699,7.58467102 C88.3618621,7.43016052 88.7918548,7.33853149 89.2973479,7.30978394 L91.6466826,7.1680603 L91.6466826,8.06628418 L89.4687346,8.2059021 C89.0305022,8.23104858 88.7083739,8.32293701 88.5023498,8.48156738 C88.2963256,8.64019775 88.1933135,8.86181641 88.1933135,9.14642334 L88.1933135,9.15814209 C88.1933135,9.45050049 88.3045653,9.67874146 88.527069,9.84286499 C88.7495727,10.0069885 89.0315093,10.0890503 89.3728789,10.0890503 C89.6897735,10.0890503 89.9717101,10.0258026 90.2186889,9.89930725 C90.4656676,9.77281189 90.6600341,9.60098267 90.8017882,9.38381958 C90.9435424,9.16665649 91.0144195,8.92129517 91.0144195,8.6477356 L91.0144195,6.64675903 C91.0144195,6.29623413 90.9057464,6.02828979 90.6884002,5.84292603 C90.471054,5.65756226 90.148239,5.56488037 89.7199553,5.56488037 C89.366867,5.56488037 89.0781859,5.62670898 88.8539123,5.75036621 C88.6296386,5.87402344 88.4789886,6.04885864 88.4019622,6.27487183 L88.3950042,6.29464722 L87.1692046,6.29464722 L87.175064,6.25198364 C87.2261504,5.90274048 87.3658141,5.59819031 87.5940551,5.33833313 C87.822296,5.07847595 88.1224059,4.87599182 88.4943847,4.73088074 C88.8663634,4.58576965 89.2934112,4.51321411 89.7755279,4.51321411 C90.3119658,4.51321411 90.7664031,4.5980835 91.1388396,4.76782227 C91.5112761,4.93756104 91.7943877,5.18180847 91.9881743,5.50056458 C92.181961,5.81932068 92.2788543,6.2013855 92.2788543,6.64675903 L92.2788543,11 L91.0144195,11 L91.0144195,10.0973816 L90.9163665,10.0973816 C90.7928924,10.3106995 90.63768,10.4931641 90.4507293,10.6447754 C90.2637786,10.7963867 90.0509795,10.9115143 89.8123321,10.9901581 C89.5736846,11.0688019 89.3124846,11.1081238 89.0287322,11.1081238 Z" id="Path"></path>
                <path d="M94.3734552,13.1200867 L94.3734552,4.63415527 L95.646496,4.63415527 L95.646496,5.63876343 L95.744549,5.63876343 C95.8669855,5.40512085 96.0240747,5.20582581 96.2158167,5.0408783 C96.4075586,4.87593079 96.6286127,4.74888611 96.8789789,4.65974426 C97.1293451,4.57060242 97.4027826,4.52603149 97.6992914,4.52603149 C98.2359125,4.52603149 98.7013819,4.66123962 99.0956995,4.93165588 C99.4900171,5.20207214 99.7954828,5.58267212 100.012097,6.07345581 C100.22871,6.5642395 100.337017,7.14349365 100.337017,7.81121826 L100.337017,7.82293701 C100.337017,8.49456787 100.229244,9.07595825 100.013699,9.56710815 C99.7981531,10.0582581 99.4932215,10.4378815 99.0989038,10.7059784 C98.7045862,10.9740753 98.2380487,11.1081238 97.6992914,11.1081238 C97.4080927,11.1081238 97.1352808,11.0622253 96.8808558,10.9704285 C96.6264307,10.8786316 96.4020197,10.7498016 96.2076227,10.5839386 C96.0132257,10.4180756 95.8588678,10.2204285 95.744549,9.99099731 L95.646496,9.99099731 L95.646496,13.1200867 L94.3734552,13.1200867 Z M97.3371088,10.0167236 C97.6930048,10.0167236 97.9974634,9.92861938 98.2504847,9.75241089 C98.5035059,9.57620239 98.6980707,9.3238678 98.8341791,8.9954071 C98.9702875,8.66694641 99.0383417,8.27612305 99.0383417,7.82293701 L99.0383417,7.81121826 C99.0383417,7.35412598 98.9702875,6.9621582 98.8341791,6.63531494 C98.6980707,6.30847168 98.5035059,6.05712891 98.2504847,5.88128662 C97.9974634,5.70544434 97.6930048,5.61752319 97.3371088,5.61752319 C96.9843866,5.61752319 96.6797297,5.70605469 96.4231379,5.88311768 C96.1665461,6.06018066 95.9694025,6.31196594 95.8317072,6.63847351 C95.6940119,6.96498108 95.6251642,7.35552979 95.6251642,7.81011963 L95.6251642,7.82183838 C95.6251642,8.27258301 95.694195,8.66235352 95.8322565,8.9911499 C95.970318,9.31994629 96.1676294,9.57307434 96.4241907,9.75053406 C96.680752,9.92799377 96.985058,10.0167236 97.3371088,10.0167236 Z" id="Shape"></path>
                <path d="M102.158821,13.1200867 L102.158821,4.63415527 L103.431862,4.63415527 L103.431862,5.63876343 L103.529915,5.63876343 C103.652351,5.40512085 103.809441,5.20582581 104.001183,5.0408783 C104.192924,4.87593079 104.413979,4.74888611 104.664345,4.65974426 C104.914711,4.57060242 105.188148,4.52603149 105.484657,4.52603149 C106.021278,4.52603149 106.486748,4.66123962 106.881065,4.93165588 C107.275383,5.20207214 107.580849,5.58267212 107.797462,6.07345581 C108.014076,6.5642395 108.122383,7.14349365 108.122383,7.81121826 L108.122383,7.82293701 C108.122383,8.49456787 108.01461,9.07595825 107.799065,9.56710815 C107.583519,10.0582581 107.278587,10.4378815 106.88427,10.7059784 C106.489952,10.9740753 106.023415,11.1081238 105.484657,11.1081238 C105.193459,11.1081238 104.920647,11.0622253 104.666222,10.9704285 C104.411797,10.8786316 104.187386,10.7498016 103.992989,10.5839386 C103.798592,10.4180756 103.644234,10.2204285 103.529915,9.99099731 L103.431862,9.99099731 L103.431862,13.1200867 L102.158821,13.1200867 Z M105.122475,10.0167236 C105.478371,10.0167236 105.782829,9.92861938 106.035851,9.75241089 C106.288872,9.57620239 106.483437,9.3238678 106.619545,8.9954071 C106.755653,8.66694641 106.823708,8.27612305 106.823708,7.82293701 L106.823708,7.81121826 C106.823708,7.35412598 106.755653,6.9621582 106.619545,6.63531494 C106.483437,6.30847168 106.288872,6.05712891 106.035851,5.88128662 C105.782829,5.70544434 105.478371,5.61752319 105.122475,5.61752319 C104.769753,5.61752319 104.465096,5.70605469 104.208504,5.88311768 C103.951912,6.06018066 103.754768,6.31196594 103.617073,6.63847351 C103.479378,6.96498108 103.41053,7.35552979 103.41053,7.81011963 L103.41053,7.82183838 C103.41053,8.27258301 103.479561,8.66235352 103.617622,8.9911499 C103.755684,9.31994629 103.952995,9.57307434 104.209557,9.75053406 C104.466118,9.92799377 104.770424,10.0167236 105.122475,10.0167236 Z" id="Shape"></path>
            </g>
        </g>
        <g id="Group-Copy-4" transform="translate(9, 17.5)">
            <path d="M31.6299794,6.06986746 C31.4274687,6.06986746 31.2413778,5.96587549 31.1373858,5.79620437 C30.179565,4.23632479 28.4828539,3.28397725 26.6493112,3.28397725 C25.1113247,3.28397725 23.6444906,3.95718844 22.6428837,5.12846644 L15.3579723,13.6612814 C15.0295766,14.0881959 14.6628681,14.4767974 14.26332,14.8380327 C12.6924939,16.2337144 10.6619138,17.0054443 8.56018131,17 C3.84222972,17 0,13.1851077 0,8.5 C0,3.81488364 3.84222972,0 8.56018131,0 C11.0778817,-0.00545303571 13.4642238,1.10014583 15.0952558,3.01031416 L16.81386,5.02994773 C16.9014321,5.13393971 16.9014321,5.28171777 16.81386,5.38570974 L15.0022103,7.50386203 C14.9474777,7.5640679 14.8708521,7.60238074 14.7942264,7.60238074 C14.7121275,7.60238074 14.6355018,7.56954117 14.5807692,7.50386203 L12.5666089,5.13941297 L12.5666089,5.13941297 L12.5666089,5.13941297 C11.565002,3.96813496 10.0981678,3.28945051 8.56018131,3.29492377 C5.66482587,3.29492377 3.31132333,5.63200652 3.31132333,8.50546892 C3.31132333,11.3789313 5.66482587,13.7160141 8.56018131,13.7160141 C9.85187107,13.7160141 11.0943015,13.2453136 12.0575955,12.3914847 C12.1561142,12.3039125 20.6506164,2.43014842 20.9461725,2.16743186 C22.5169987,0.771750127 24.5475788,0 26.6547845,0.0054934877 C30.2288244,0.0054934877 33.2993242,2.19479817 34.5800675,5.2926643 C34.6512199,5.46780867 34.6293268,5.67031935 34.5253348,5.82904394 C34.4158696,5.98776853 34.2407252,6.08081398 34.0436878,6.08081398 L31.6299794,6.06986746 L31.6299794,6.06986746 Z" id="Path" fill="#FFFFFF"></path>
            <path d="M26.6547845,16.994518 C24.1370841,16.9999711 21.750742,15.8943722 20.11971,13.9787306 L18.3901593,11.9536238 C18.3025871,11.8496318 18.3025871,11.7018538 18.3901593,11.5978618 L20.201809,9.4797095 C20.2565416,9.41950362 20.3331672,9.38119079 20.4152662,9.38119079 C20.4973651,9.38119079 20.5739908,9.41403036 20.6232501,9.4797095 L22.6483569,11.8551051 C23.6499638,13.0318563 25.1113247,13.7050675 26.6547845,13.7050675 C28.4883272,13.7050675 30.1850383,12.75272 31.1428591,11.1928404 C31.2468511,11.0231693 31.432942,10.9191773 31.6354527,10.9191773 L34.0436878,10.9191773 C34.235252,10.9191773 34.4158696,11.0122228 34.5253348,11.1709474 C34.6348001,11.329672 34.6512199,11.5321826 34.5800675,11.707327 C33.2993242,14.8051931 30.2288244,16.994518 26.6547845,16.994518 L26.6547845,16.994518 Z" id="Path" fill="#59B570" fill-rule="nonzero"></path>
        </g>
    </g>
</svg>