<svg width="24" height="24" viewBox="0 0 24 24" fill="none" xmlns="http://www.w3.org/2000/svg">
    <path d="M2.182 9.882a2.182 2.182 0 0 0 0 4.364h4.492L3.468 17.45a2.182 2.182 0 1 0 3.085 3.086l3.201-3.2v4.481a2.182 2.182 0 0 0 4.364 0v-4.615l3.285 3.285a2.182 2.182 0 0 0 3.086-3.085l-3.158-3.157h4.487a2.182 2.182 0 0 0 0-4.364h-4.61l3.23-3.23a2.182 2.182 0 1 0-3.085-3.086l-3.235 3.236v-4.62a2.182 2.182 0 0 0-4.364 0v4.486l-3.15-3.15a2.182 2.182 0 1 0-3.086 3.085l3.279 3.279H2.182Z" fill="#FFD371"/>
</svg>
