<svg width="175" height="175" viewBox="0 0 175 175" fill="none" xmlns="http://www.w3.org/2000/svg">
    <path d="M174.756 72.053c-1.472-7.85-9.195-13.049-17.241-11.614l-36.96 6.604L142.233 37.1c4.717-6.519 3.128-15.537-3.555-20.138-6.683-4.601-15.932-3.052-20.649 3.467l-28.548 39.43-18.533-40.056c-3.03-6.554-10.935-9.47-17.649-6.514-6.572 3.203-9.474 11.172-6.452 17.702l21.026 45.47-55.721 9.953C4.105 87.854-1.226 95.384.244 103.23c1.477 7.85 9.195 13.049 17.241 11.615l36.966-6.604-21.678 29.942c-4.718 6.519-3.129 15.538 3.555 20.139 6.683 4.601 15.931 3.052 20.649-3.467l28.765-39.723 18.525 40.064c3.03 6.555 10.935 9.47 17.648 6.514 6.72-2.956 9.712-10.664 6.681-17.216l-21.14-45.714 55.392-9.896c8.047-1.44 13.378-8.967 11.908-16.817v-.014Z" fill="#333230"/>
</svg>
