<svg width="20" height="18" viewBox="0 0 20 18" fill="none" xmlns="http://www.w3.org/2000/svg">
<path d="M15.8065 16.8363L19.7062 10.0716C20.0979 9.3916 20.0979 8.54702 19.7062 7.86701L15.8065 1.1023C15.7105 0.935612 15.5927 0.781742 15.4565 0.645824C15.0408 0.229094 14.4877 -2.4095e-07 13.9 -2.66639e-07L6.10031 -6.07575e-07C5.31628 -6.41846e-07 4.58603 0.422286 4.19381 1.1023L0.294168 7.86701C-0.0980572 8.5466 -0.0980572 9.3916 0.294168 10.072L4.19381 16.8363C4.28984 17.003 4.40763 17.1569 4.54378 17.2928C4.95948 17.7091 5.51218 17.9386 6.10031 17.9386L13.9004 17.9386C14.6845 17.9386 15.4147 17.5163 15.8069 16.8363L15.8065 16.8363Z" fill="#FFD371"/>
</svg>
