<svg width="221" height="221" viewBox="0 0 221 221" fill="none" xmlns="http://www.w3.org/2000/svg">
<path d="M67.5039 62.2633C66.2721 64.4566 64.4565 66.2721 62.2633 67.5039L6.99826 98.5443C-2.33275 103.785 -2.33275 117.215 6.99826 122.456L62.2633 153.496C64.4565 154.728 66.2721 156.543 67.5039 158.737L98.5444 214.002C103.785 223.333 117.215 223.333 122.456 214.002L153.496 158.737C154.728 156.543 156.543 154.728 158.737 153.496L214.002 122.456C223.333 117.215 223.333 103.785 214.002 98.5443L158.737 67.5039C156.543 66.2721 154.728 64.4566 153.496 62.2633L122.456 6.99826C117.215 -2.33275 103.785 -2.33275 98.5444 6.99826L67.5039 62.2633Z" fill="#647F18"/>
</svg>
