<svg width="175" height="175" viewBox="0 0 175 175" fill="none" xmlns="http://www.w3.org/2000/svg">
    <path d="M53.453 49.303a10.864 10.864 0 0 1-4.15 4.15L5.542 78.033c-7.39 4.15-7.39 14.784 0 18.934l43.761 24.58a10.865 10.865 0 0 1 4.15 4.149l24.58 43.762c4.15 7.389 14.784 7.389 18.934 0l24.58-43.762a10.865 10.865 0 0 1 4.149-4.149l43.762-24.58c7.389-4.15 7.389-14.784 0-18.934l-43.762-24.58a10.865 10.865 0 0 1-4.149-4.15L96.967 5.542c-4.15-7.39-14.784-7.39-18.934 0l-24.58 43.761Z" fill="#333230"/>
</svg>
