<svg width="149" height="48" viewBox="0 0 149 48" fill="none" xmlns="http://www.w3.org/2000/svg">
<g clip-path="url(#clip0_1129_921)">
<path d="M55.3798 46.3358H51.4361C51.5956 40.7162 51.7542 35.1158 51.9047 29.8092C50.5711 35.1188 49.1662 40.7142 47.7573 46.3237H43.4503C42.0253 40.7082 40.5973 35.0766 39.2336 29.7015C39.3841 35.0544 39.5416 40.6709 39.7002 46.3207H35.7886V26.358H41.6379C42.9606 31.5187 44.2822 36.6754 45.5616 41.6691C46.832 36.6864 48.1486 31.5237 49.4662 26.356H55.3808V46.3347L55.3798 46.3358Z" fill="white"/>
<path d="M11.9908 39.2551V26.3639H16.076V46.3205H12.0339C9.43185 42.0754 6.8047 37.7901 4.12336 33.4152V46.3215H0V26.3608H4.06115C6.67525 30.612 9.30341 34.8842 11.9908 39.2551Z" fill="white"/>
<path d="M110.883 45.5469C109.525 46.4112 108.063 46.8831 106.494 46.9606C101.675 47.2001 97.8727 44.3214 96.806 39.5772C96.0885 36.3886 96.214 33.2504 97.9089 30.3626C99.7633 27.2012 102.631 25.7925 106.245 25.8992C111.336 26.0501 114.735 29.8374 115.277 34.7063C115.635 37.9251 115.078 40.9044 113.072 43.5808C113.839 44.2298 114.6 44.8728 115.391 45.5409C114.636 46.3629 113.902 47.1629 113.134 48C112.388 47.188 111.656 46.3891 110.884 45.5479L110.883 45.5469ZM110.18 40.8491C110.31 40.6005 110.443 40.3983 110.529 40.1769C111.527 37.6172 111.564 35.0414 110.466 32.5189C109.628 30.596 108.111 29.5124 105.978 29.4691C103.781 29.4259 102.205 30.4823 101.345 32.4706C100.199 35.1168 100.283 37.8154 101.401 40.4516C102.032 41.9398 103.159 42.95 104.781 43.3021C105.899 43.5446 106.975 43.4199 108.048 42.8805C107.345 42.2939 106.689 41.7476 106.013 41.1841C106.787 40.345 107.52 39.5491 108.275 38.73C108.615 39.1063 108.921 39.4454 109.226 39.7855C109.532 40.1256 109.836 40.4667 110.181 40.8501L110.18 40.8491Z" fill="white"/>
<path d="M89.2746 46.3351H85.0017C84.8873 45.1186 84.774 43.9102 84.6586 42.7028C84.6014 42.1031 84.5562 41.5014 84.4749 40.9047C84.2853 39.5092 83.645 38.7706 82.2441 38.664C80.782 38.5523 79.3049 38.6388 77.7936 38.6388V46.32H73.6753V26.3352C73.8539 26.3352 74.0195 26.3352 74.1861 26.3352C77.1805 26.3352 80.1749 26.3231 83.1694 26.3402C84.6505 26.3493 86.0825 26.5978 87.3108 27.5144C88.9575 28.743 89.377 30.4907 89.2475 32.4075C89.1 34.5849 87.8988 35.9664 85.8357 36.6154C85.7584 36.6395 85.6851 36.6788 85.5507 36.7371C85.7293 36.7955 85.8427 36.8367 85.9601 36.8699C87.1964 37.2191 88.0634 37.9908 88.2741 39.2667C88.6595 41.599 88.9435 43.9474 89.2766 46.3371L89.2746 46.3351ZM77.8047 35.2349C78.769 35.2349 79.6842 35.256 80.5984 35.2289C81.4403 35.2037 82.2943 35.2037 83.1192 35.0578C84.4789 34.8173 85.3249 33.63 85.2165 32.2747C85.0941 30.7443 84.2311 29.886 82.7148 29.8206C82.0143 29.7904 81.3109 29.8055 80.6094 29.8045C79.6822 29.8025 78.756 29.8045 77.8047 29.8045V35.2359V35.2349Z" fill="white"/>
<path d="M147.561 11.9233H138.251V16.7772H148.864V20.4447H134.128V0.479004H148.604V4.12843H138.259V8.19543H147.561V11.9233Z" fill="white"/>
<path d="M57.5122 26.3579H71.9796V30.0043H61.6276V34.0713H70.933V37.8002H61.6316V42.6561H72.2556V46.3276H57.5112V26.3589L57.5122 26.3579Z" fill="white"/>
<path d="M134.121 46.3189V26.3643H148.598V30.0066H138.26V34.0847H147.563V37.7834H138.262V42.6403H148.87V46.3189H134.121Z" fill="white"/>
<path d="M127.896 26.359H132.029V26.8017C132.029 31.2108 132.032 35.6199 132.028 40.029C132.026 41.9619 131.585 43.7418 130.106 45.1032C128.89 46.2221 127.404 46.7483 125.781 46.9012C123.837 47.0844 121.915 47.0411 120.093 46.209C117.853 45.1857 116.753 43.3796 116.557 40.9708C116.513 40.4274 116.509 39.8801 116.509 39.3347C116.505 35.1983 116.507 31.0619 116.507 26.9255V26.356H120.656C120.656 26.5592 120.656 26.7413 120.656 26.9234C120.656 31.2611 120.655 35.5978 120.658 39.9354C120.658 40.2936 120.656 40.6568 120.709 41.01C120.874 42.0856 121.472 42.8352 122.516 43.1512C123.752 43.5245 125.004 43.5335 126.227 43.0747C127.191 42.7125 127.692 41.9639 127.827 40.9617C127.875 40.6075 127.894 40.2463 127.894 39.8881C127.898 35.5796 127.897 31.2712 127.897 26.9617V26.357L127.896 26.359Z" fill="white"/>
<path d="M18.2193 26.357H22.3085C22.3085 26.5612 22.3085 26.7423 22.3085 26.9245C22.3085 31.3335 22.3045 35.7426 22.3105 40.1517C22.3126 41.826 22.8896 42.7407 24.2643 43.1733C24.749 43.3263 25.2779 43.4007 25.7856 43.3987C26.3807 43.3967 26.9959 43.3444 27.5679 43.1874C28.8222 42.8423 29.4956 41.9468 29.5277 40.6236C29.5628 39.2029 29.5457 37.7802 29.5467 36.3584C29.5488 33.2131 29.5467 30.0678 29.5467 26.9224V26.3731H33.651C33.6641 26.4515 33.6852 26.519 33.6852 26.5864C33.6811 31.2249 33.7414 35.8654 33.648 40.5019C33.5748 44.1272 31.3892 46.4132 27.7866 46.86C25.7606 47.1115 23.7475 47.0874 21.8349 46.2442C19.4777 45.2058 18.2675 43.3051 18.2203 40.7977C18.131 36.0455 18.1862 31.2913 18.1822 26.5371C18.1822 26.4837 18.2032 26.4294 18.2183 26.356L18.2193 26.357Z" fill="white"/>
<path d="M117.314 20.4494H112.895C112.451 19.082 112.004 17.7086 111.554 16.3281H104.294C103.846 17.6955 103.393 19.076 102.94 20.4554H98.5571C100.919 13.7724 103.267 7.13256 105.621 0.473633H110.422C112.713 7.11445 115.004 13.7573 117.312 20.4494H117.314ZM110.408 12.8598C109.593 10.136 108.787 7.44548 107.952 4.65735C107.101 7.45756 106.284 10.1481 105.461 12.8598H110.408Z" fill="white"/>
<path d="M58.1382 20.4505C57.6926 19.0771 57.2511 17.7167 56.8035 16.3383H49.5332C49.3114 17.0204 49.0866 17.7127 48.8608 18.4029C48.6381 19.0831 48.4143 19.7623 48.1865 20.4566H43.8032C46.1624 13.7836 48.5126 7.13469 50.8678 0.469727H55.6665C57.9595 7.11557 60.2515 13.7624 62.5596 20.4505H58.1392H58.1382ZM50.7073 12.8478H55.6495C54.8346 10.1261 54.0308 7.43956 53.1979 4.65746C52.349 7.44862 51.5311 10.1402 50.7083 12.8478H50.7073Z" fill="white"/>
<path d="M43.9576 7.03737H40.0489C40.0128 6.90959 39.9697 6.7647 39.9315 6.61779C39.4589 4.80063 38.0901 3.69282 36.2096 3.60427C33.4931 3.47649 31.5945 4.75132 30.8118 7.36941C30.0461 9.92914 30.1173 12.4889 31.3346 14.9087C32.5588 17.3437 35.6105 18.2674 38.0118 17.0006C39.0555 16.4502 39.6245 15.5306 39.9295 14.4218C39.9707 14.2728 40.0068 14.1219 40.0479 13.9649H43.9285C43.7278 16.4261 42.7694 18.4374 40.6671 19.7747C35.2352 23.2309 28.1304 20.2576 26.6212 13.8774C25.8545 10.6385 25.9819 7.44991 27.6588 4.48167C29.5554 1.12604 32.9552 -0.294689 36.631 0.0504316C38.1905 0.196328 39.6756 0.595783 40.9681 1.52852C42.8336 2.8758 43.7318 4.75937 43.9586 7.03737H43.9576Z" fill="white"/>
<path d="M67.6478 13.5238V20.4494H63.5425V0.489704C63.5906 0.474612 63.6298 0.450463 63.6689 0.450463C66.5921 0.466562 69.5233 0.344814 72.4355 0.534983C76.7946 0.819733 78.8398 3.9379 78.3139 8.02904C77.9025 11.2307 75.6788 13.2018 72.3672 13.4161C70.9392 13.5087 69.5032 13.4745 68.0713 13.4987C67.9458 13.5007 67.8204 13.5127 67.6468 13.5238H67.6478ZM67.6739 3.97814V9.95789C68.9784 9.95789 70.2569 10.0434 71.5193 9.93777C73.3747 9.78282 74.4113 8.6569 74.4113 6.99166C74.4113 5.29926 73.4359 4.13008 71.735 3.99927C70.3994 3.89564 69.0507 3.97814 67.6729 3.97814H67.6739Z" fill="white"/>
<path d="M95.3037 20.4565H91.1502V4.13623H85.1714V0.470703H101.232V4.12114H95.3027V20.4565H95.3037Z" fill="white"/>
<path d="M118.682 0.46875H122.769V16.7699H132.485V20.4465H118.681V0.46875H118.682Z" fill="white"/>
<path d="M83.8568 20.4557H79.7856V0.48291H83.8568V20.4557Z" fill="white"/>
<path d="M91.0903 26.3599H95.1796V46.3246H91.0903V26.3599Z" fill="white"/>
<path d="M67.6074 22.9399V25.3508H63.5864V22.9399H67.6074Z" fill="white"/>
</g>
<defs>
<clipPath id="clip0_1129_921">
<rect width="148.87" height="48" fill="white"/>
</clipPath>
</defs>
</svg>
