<?xml version="1.0" encoding="UTF-8"?>
<svg width="17px" height="13px" viewBox="0 0 17 13" version="1.1" xmlns="http://www.w3.org/2000/svg" xmlns:xlink="http://www.w3.org/1999/xlink">
    <title>Shape</title>
    <g id="Page-1" stroke="none" stroke-width="1" fill="none" fill-rule="evenodd">
        <g id="back-arrow" transform="translate(1, 1)" fill="#333230" fill-rule="nonzero">
            <path d="M4.04043678,5.95955322 C4.43096107,6.35007751 4.43096107,6.98324249 4.04043678,7.37376678 C3.64991249,7.76429107 3.01674751,7.76429107 2.62622322,7.37376678 L-0.707106781,4.04043678 L-0.723,4.022 L-0.780311233,3.95877899 L-0.783,3.954 L-0.790295388,3.94622944 L-0.812,3.914 L-0.844312028,3.86941818 L-0.853,3.852 L-0.859619226,3.84473295 L-0.872,3.82 L-0.898358848,3.77310467 L-0.905,3.756 L-0.915078298,3.73727259 L-0.929,3.699 L-0.941701374,3.67058878 L-0.947,3.649 L-0.956672601,3.62517367 L-0.966,3.584 L-0.973589287,3.56262083 L-0.978,3.534 L-0.984402136,3.50976151 L-0.987,3.481 L-0.993272269,3.44995113 L-0.995,3.418 L-0.998266904,3.39236139 L-0.998,3.366 L-1,3.33333 L-0.998,3.3 L-0.998266904,3.27429861 L-0.995,3.248 L-0.993272269,3.21670887 L-0.987,3.185 L-0.984402136,3.15689849 L-0.978,3.13 L-0.973589287,3.10403917 L-0.964,3.073 L-0.956672601,3.04148633 L-0.947,3.017 L-0.941701374,2.99607122 L-0.929,2.967 L-0.915078298,2.92938741 L-0.905,2.909 L-0.898358848,2.89355533 L-0.877,2.855 L-0.859619226,2.82192705 L-0.851,2.809 L-0.844312028,2.79724182 L-0.808,2.747 L-0.790295388,2.72043056 L-0.780311233,2.70788101 C-0.757402008,2.67933622 -0.732958839,2.65207528 -0.707106781,2.62622322 L2.62622322,-0.707106781 C3.01674751,-1.09763107 3.64991249,-1.09763107 4.04043678,-0.707106781 C4.43096107,-0.316582489 4.43096107,0.316582489 4.04043678,0.707106781 L2.414,2.333 L11.25,2.33333 C13.8005041,2.33333 15.8814709,4.3434606 15.9951122,6.86590111 L16,7.08333 C16,9.70667733 13.8733622,11.83337 11.25,11.83337 L7.5,11.83337 C6.94771525,11.83337 6.5,11.3856547 6.5,10.83337 C6.5,10.2810853 6.94771525,9.83337 7.5,9.83337 L11.25,9.83337 C12.7687811,9.83337 14,8.60211938 14,7.08333 C14,5.56453315 12.7688037,4.33333 11.25,4.33333 L2.414,4.333 L4.04043678,5.95955322 Z" id="Shape"></path>
        </g>
    </g>
</svg>