<svg width="16" height="16" viewBox="0 0 16 16" fill="none" xmlns="http://www.w3.org/2000/svg">
<path d="M4.88716 4.50775C4.79798 4.66654 4.66654 4.79798 4.50775 4.88716L0.506661 7.13443C-0.168887 7.51385 -0.168887 8.48615 0.506661 8.86557L4.50775 11.1128C4.66654 11.202 4.79798 11.3335 4.88716 11.4922L7.13443 15.4933C7.51385 16.1689 8.48615 16.1689 8.86557 15.4933L11.1128 11.4922C11.202 11.3335 11.3335 11.202 11.4923 11.1128L15.4933 8.86557C16.1689 8.48615 16.1689 7.51385 15.4933 7.13443L11.4923 4.88716C11.3335 4.79798 11.202 4.66654 11.1128 4.50775L8.86557 0.506662C8.48615 -0.168887 7.51385 -0.168887 7.13443 0.506662L4.88716 4.50775Z" fill="#647F18"/>
</svg>
