<svg width="1245" height="257" viewBox="0 0 1245 257" fill="none" xmlns="http://www.w3.org/2000/svg">
<path d="M24.5782 0.414551C17.8589 0.414551 12.0238 2.63342 7.24967 7.15993C2.4755 11.6864 0 17.1892 0 23.6683C0 30.1475 2.38709 35.4728 7.24967 39.9993C12.1123 44.5258 17.8589 46.7446 24.5782 46.7446C31.2974 46.7446 36.9557 44.5258 41.8182 39.9993C46.6808 35.4728 49.0679 30.0587 49.0679 23.6683C49.0679 17.278 46.6808 11.6864 41.8182 7.15993C36.9557 2.63342 31.2974 0.414551 24.5782 0.414551Z" fill="#333230"/>
<path d="M45.6197 72.042H3.35938L3.35937 252.481H45.6197L45.6197 72.042Z" fill="#333230"/>
<path d="M327.827 219.282C325.617 219.637 323.584 219.726 321.727 219.726C315.008 219.726 310.057 218.039 306.962 214.667C303.868 211.294 302.277 205.348 302.277 198.247V104.966H337.818V72.0376L302.277 72.0376V29.1689L260.016 29.1689V72.1263H234.731L234.731 105.054H260.016L260.016 205.259C260.016 220.613 264.791 233.483 274.339 242.358C283.887 251.234 296.972 256.204 313.77 256.204C318.367 256.204 322.965 255.849 327.562 255.139C332.159 254.429 336.757 252.831 341.266 251.5L334.016 218.217C332.159 218.661 330.126 219.016 327.916 219.371L327.827 219.282Z" fill="#333230"/>
<path d="M483.608 91.655C475.917 84.1996 467.164 78.7855 457.262 75.1466C447.36 71.5076 436.839 69.8213 425.788 69.8213C408.636 69.8213 393.695 73.7265 381.052 81.6257C368.409 89.5249 358.596 100.442 351.611 114.465C344.627 128.488 341.179 144.819 341.179 163.458C341.179 182.096 344.715 198.605 351.7 212.539C358.684 226.474 368.763 237.124 381.848 244.757C394.932 252.39 410.493 256.118 428.44 256.118C442.409 256.118 454.698 253.988 465.484 249.728C476.27 245.467 485.111 239.432 492.007 231.622C498.903 223.811 503.677 214.669 506.241 204.285L466.722 199.581C464.777 204.729 462.036 209.078 458.411 212.539C454.786 216.001 450.543 218.663 445.592 220.35C440.641 222.036 435.071 222.924 429.147 222.924C419.953 222.924 411.819 220.882 404.923 216.799C398.027 212.717 392.634 206.77 388.832 198.96C385.472 191.948 383.793 183.516 383.439 174.02H508.275V160.795C508.275 144.997 506.065 131.328 501.644 119.879C497.224 108.43 491.212 98.9329 483.52 91.5663L483.608 91.655ZM402.801 109.406C409.255 105.146 417.035 102.927 426.141 102.927C435.248 102.927 442.851 105.057 448.951 109.406C455.052 113.755 459.649 119.613 462.743 127.246C464.954 132.571 466.103 138.873 466.722 145.529H383.704C384.235 138.784 385.561 132.394 388.125 126.713C391.484 119.435 396.347 113.666 402.713 109.317L402.801 109.406Z" fill="#333230"/>
<path d="M737.788 104.966V72.0383H700.302V58.1925C700.302 51.0921 701.982 45.5893 705.341 41.6841C708.701 37.7789 714.359 35.915 722.139 35.915C725.587 35.915 728.593 36.1813 731.334 36.8026C734.075 37.4239 736.197 38.0451 737.965 38.6664L746.629 5.73834C743.977 4.76204 739.733 3.69698 733.986 2.54317C728.24 1.38935 721.697 0.768066 714.271 0.768066C704.015 0.768066 694.555 2.72067 686.068 6.71465C677.58 10.7086 670.773 16.744 665.733 24.8207C660.694 32.8974 658.218 43.0154 658.218 55.1749V72.127H631.96C612.864 72.7483 603.846 70.9732 592.441 77.8961C581.036 84.819 572.283 94.227 566.094 106.12V72.127H526.133V252.566H566.094V160.349C566.094 141.8 572.283 128.131 582.892 118.99C592.618 110.647 601.282 105.055 622.324 105.055H658.218V252.566H700.302V104.966H737.788Z" fill="#333230"/>
<path d="M868.282 82.8686C861.121 78.1646 853.252 74.7919 844.676 72.7506C836.101 70.7092 827.525 69.7329 818.949 69.7329C806.395 69.7329 794.99 71.5968 784.646 75.3245C774.302 79.0522 765.549 84.555 758.388 91.9217C751.226 99.2883 746.099 108.43 742.916 119.436L782.347 125.116C784.469 118.992 788.624 113.667 794.636 109.14C800.648 104.614 808.958 102.395 819.303 102.395C829.205 102.395 836.631 104.791 841.847 109.673C847.063 114.554 849.539 121.3 849.539 129.998V130.796C849.539 134.879 848.036 137.897 845.118 139.849C842.201 141.802 837.427 143.222 830.884 144.021C824.342 144.82 815.766 145.885 805.157 147.127C796.493 148.015 788.094 149.435 779.871 151.565C771.649 153.695 764.4 156.713 757.946 160.707C751.492 164.701 746.364 170.026 742.562 176.683C738.76 183.339 736.904 191.771 736.904 201.889C736.904 213.693 739.556 223.723 744.772 231.711C749.989 239.699 757.238 245.912 766.345 249.994C775.451 254.077 785.706 256.207 797.2 256.207C806.66 256.207 814.794 254.876 821.69 252.213C828.586 249.55 834.421 246 839.018 241.651C843.615 237.302 847.329 232.598 849.893 227.717L851.219 227.717V252.568H891.888V131.861C891.888 119.879 889.766 109.939 885.434 102.04C881.102 94.1405 875.443 87.7502 868.194 82.9574L868.282 82.8686ZM849.804 187.777C849.804 194.434 848.124 200.646 844.676 206.238C841.228 211.83 836.454 216.445 830.177 219.818C823.9 223.19 816.562 224.877 807.986 224.877C799.41 224.877 791.984 222.924 786.237 218.93C780.49 214.936 777.75 208.989 777.75 201.179C777.75 195.676 779.164 191.238 782.082 187.777C784.999 184.316 788.889 181.653 793.929 179.612C798.968 177.57 804.538 176.239 810.904 175.351C813.733 174.996 817.004 174.641 820.805 174.02C824.607 173.399 828.497 172.866 832.476 172.067C836.454 171.269 839.991 170.47 843.085 169.582C846.179 168.695 848.478 167.63 849.804 166.565V187.688V187.777Z" fill="#333230"/>
<path d="M968.275 111.093C974.729 106.389 982.332 104.081 990.996 104.081C997.892 104.081 1003.82 105.412 1008.77 108.075C1013.72 110.738 1017.78 114.465 1020.88 119.081C1023.97 123.696 1026.1 128.932 1027.16 134.702H1067.65C1066.68 121.655 1062.87 110.294 1056.15 100.531C1049.44 90.7678 1040.51 83.2237 1029.19 77.8096C1017.87 72.3956 1004.97 69.7329 990.289 69.7329C972.784 69.7329 957.666 73.7269 944.758 81.6261C931.85 89.5253 921.948 100.442 915.052 114.465C908.156 128.489 904.619 144.642 904.619 163.014C904.619 181.387 908.067 197.274 914.875 211.297C921.682 225.32 931.584 236.237 944.492 244.136C957.4 252.036 972.695 256.03 990.643 256.03C1005.67 256.03 1018.76 253.278 1029.9 247.687C1041.04 242.095 1049.88 234.462 1056.42 224.699C1062.96 214.936 1066.68 203.575 1067.65 190.795H1027.16C1025.3 200.469 1021.14 208.102 1014.69 213.516C1008.24 218.93 1000.28 221.77 990.996 221.77C982.244 221.77 974.552 219.374 968.01 214.581C961.467 209.788 956.428 202.954 952.891 194.079C949.355 185.203 947.587 174.641 947.587 162.393C947.587 150.145 949.443 139.761 953.068 131.063C956.693 122.365 961.821 115.619 968.275 111.004V111.093Z" fill="#333230"/>
<path d="M1245 160.884C1245 145.085 1242.79 131.417 1238.37 119.968C1233.95 108.518 1227.94 99.0217 1220.24 91.655C1212.55 84.2883 1203.8 78.7855 1193.9 75.1466C1184 71.5076 1173.48 69.8213 1162.42 69.8213C1145.27 69.8213 1130.33 73.7265 1117.69 81.6257C1105.05 89.5249 1095.23 100.442 1088.25 114.465C1081.26 128.488 1077.82 144.819 1077.82 163.458C1077.82 182.096 1081.35 198.605 1088.34 212.539C1095.32 226.474 1105.4 237.124 1118.48 244.757C1131.57 252.39 1147.13 256.118 1165.08 256.118C1179.05 256.118 1191.33 253.988 1202.12 249.728C1212.91 245.467 1221.75 239.432 1228.64 231.622C1235.54 223.811 1240.31 214.669 1242.88 204.285L1203.36 199.581C1201.41 204.729 1198.67 209.078 1195.05 212.539C1191.42 216.001 1187.18 218.663 1182.23 220.35C1177.28 222.036 1171.71 222.924 1165.78 222.924C1156.59 222.924 1148.46 220.882 1141.56 216.799C1134.66 212.717 1129.27 206.77 1125.47 198.96C1122.11 191.948 1120.43 183.516 1120.08 174.02H1244.91V160.795L1245 160.884ZM1139.53 109.406C1145.98 105.146 1153.76 102.927 1162.87 102.927C1171.97 102.927 1179.58 105.057 1185.68 109.406C1191.78 113.755 1196.37 119.613 1199.47 127.246C1201.68 132.571 1202.83 138.873 1203.45 145.529H1120.43C1120.96 138.784 1122.29 132.394 1124.85 126.713C1128.21 119.435 1133.07 113.666 1139.44 109.317L1139.53 109.406Z" fill="#333230"/>
<path d="M215.899 100.885C210.771 90.6783 203.256 82.9567 194.061 77.7201C185.043 72.5723 174.434 69.9984 162.322 69.9097C162.057 69.9097 154.719 69.9097 148.176 71.1522C140.308 72.5723 134.296 74.8799 128.549 78.7852C119.796 84.7317 113.077 94.5836 109.364 104.08L108.038 107.276V72.2173H68.2529L68.2529 252.834H108.038V253.81V161.15L108.038 148.192C108.038 139.405 109.629 131.949 112.9 125.825C116.172 119.701 120.68 115.086 126.427 111.891C132.174 108.696 138.363 107.009 147.469 107.009C158.255 107.009 166.389 111.358 171.782 117.305C177.971 124.139 181.065 133.547 181.065 145.618L181.065 252.834L223.325 252.834V139.05C223.325 124.671 220.761 111.181 215.722 101.063L215.899 100.885Z" fill="#333230"/>
</svg>
