<svg width="24" height="117" viewBox="0 0 24 117" fill="none" xmlns="http://www.w3.org/2000/svg">
<path d="M-1.2908e-07 114.507C-9.37917e-08 115.138 0.208188 115.685 0.632893 116.133C1.0576 116.581 1.57391 116.813 2.18182 116.813C2.78973 116.813 3.28938 116.59 3.71408 116.133C4.13879 115.677 4.34698 115.138 4.34698 114.507C4.34698 113.877 4.13879 113.346 3.71408 112.89C3.28938 112.434 2.7814 112.21 2.18182 112.21C1.58223 112.21 1.0576 112.434 0.632893 112.89C0.208188 113.346 -1.64368e-07 113.877 -1.2908e-07 114.507Z" fill="#333230"/>
<path d="M6.72021 112.533L6.72021 116.498L23.6501 116.498L23.6501 112.533L6.72021 112.533Z" fill="#333230"/>
<path d="M20.5358 86.0547C20.5691 86.262 20.5775 86.4528 20.5775 86.627C20.5775 87.2575 20.4193 87.722 20.1028 88.0123C19.7864 88.3027 19.2284 88.452 18.5622 88.452L9.80996 88.452L9.80996 85.1173L6.72044 85.1173L6.72044 88.452L2.69824 88.452L2.69824 92.4171L6.72877 92.4171L6.72877 94.7896L9.81829 94.7896L9.81829 92.4171L19.2201 92.4171C20.6608 92.4171 21.8682 91.9692 22.701 91.0733C23.5338 90.1774 24.0001 88.9497 24.0001 87.3736C24.0001 86.9423 23.9668 86.5109 23.9002 86.0796C23.8335 85.6482 23.6837 85.2168 23.5587 84.7938L20.4359 85.474C20.4775 85.6482 20.5109 85.839 20.5442 86.0464L20.5358 86.0547Z" fill="#333230"/>
<path d="M8.56078 71.4381C7.86127 72.1598 7.35329 72.981 7.01186 73.9101C6.67043 74.8392 6.51221 75.8263 6.51221 76.8632C6.51221 78.4725 6.87862 79.8744 7.61977 81.0606C8.36092 82.2468 9.38521 83.1676 10.701 83.8229C12.0167 84.4782 13.549 84.8018 15.2978 84.8018C17.0465 84.8018 18.5955 84.4699 19.9029 83.8146C21.2103 83.1593 22.2096 82.2136 22.9258 80.9859C23.642 79.7583 23.9917 78.2983 23.9917 76.6144C23.9917 75.3037 23.7919 74.1507 23.3921 73.1387C22.9924 72.1266 22.4261 71.2971 21.6933 70.6501C20.9605 70.0031 20.1028 69.5551 19.1284 69.3146L18.6871 73.0225C19.1701 73.205 19.5781 73.4622 19.9029 73.8023C20.2277 74.1424 20.4775 74.5405 20.6357 75.0051C20.7939 75.4696 20.8772 75.9922 20.8772 76.548C20.8772 77.4107 20.6857 78.1739 20.3026 78.8209C19.9195 79.4679 19.3616 79.9739 18.6288 80.3306C17.9709 80.6458 17.1798 80.8035 16.2887 80.8366L16.2887 69.1238L15.0479 69.1238C13.5656 69.1238 12.2832 69.3311 11.2089 69.7459C10.1347 70.1607 9.24364 70.7247 8.55245 71.4464L8.56078 71.4381ZM10.2263 79.02C9.82657 78.4144 9.61838 77.6844 9.61838 76.83C9.61838 75.9756 9.81824 75.2622 10.2263 74.6899C10.6343 74.1175 11.184 73.6861 11.9001 73.3958C12.3998 73.1884 12.991 73.0806 13.6156 73.0225L13.6156 80.8117C12.9827 80.762 12.3831 80.6375 11.8502 80.397C11.1673 80.0818 10.626 79.6255 10.218 79.0283L10.2263 79.02Z" fill="#333230"/>
<path d="M9.80974 47.5894L6.72022 47.5894L6.72022 51.1066L5.42112 51.1066C4.75492 51.1066 4.23861 50.949 3.8722 50.6338C3.50579 50.3186 3.33091 49.7877 3.33091 49.0577C3.33091 48.7342 3.35589 48.4521 3.41418 48.195C3.47248 47.9378 3.53077 47.7388 3.58906 47.5729L0.499544 46.7599C0.407941 47.0088 0.308011 47.407 0.199753 47.9461C0.0914949 48.4853 0.0332021 49.0992 0.0332021 49.796C0.0332022 50.7582 0.216408 51.6458 0.591148 52.4422C0.965887 53.2385 1.53216 53.8772 2.28997 54.3501C3.04777 54.8229 3.99711 55.0552 5.13799 55.0552L6.72855 55.0552L6.72855 57.5188C6.78684 59.3106 6.62029 60.1567 7.26984 61.2268C7.91939 62.2969 8.80211 63.1181 9.918 63.6988L6.72855 63.6988L6.72855 67.4482L23.6584 67.4482L23.6584 63.6988L15.0061 63.6988C13.2657 63.6988 11.9832 63.1181 11.1255 62.1227C10.3427 61.2102 9.81807 60.3973 9.81807 58.423L9.81807 55.0552L23.6584 55.0552L23.6584 51.1066L9.80974 51.1066L9.80974 47.5894Z" fill="#333230"/>
<path d="M7.73638 35.3461C7.29502 36.018 6.97858 36.7563 6.78704 37.561C6.59551 38.3656 6.50391 39.1702 6.50391 39.9749C6.50391 41.1528 6.67878 42.2229 7.02854 43.1934C7.3783 44.164 7.89461 44.9852 8.58579 45.6571C9.27698 46.329 10.1347 46.8101 11.1673 47.1088L11.7003 43.4091C11.1257 43.21 10.626 42.8201 10.2013 42.2561C9.77663 41.692 9.56844 40.9122 9.56844 39.9417C9.56844 39.0126 9.79329 38.3158 10.2513 37.8264C10.7093 37.337 11.3422 37.1047 12.1583 37.1047L12.2333 37.1047C12.6163 37.1047 12.8995 37.2457 13.0827 37.5195C13.2659 37.7932 13.3991 38.2412 13.4741 38.855C13.549 39.4689 13.6489 40.2735 13.7655 41.2689C13.8488 42.0819 13.982 42.8699 14.1819 43.6414C14.3818 44.4128 14.6649 45.093 15.0396 45.6986C15.4144 46.3041 15.914 46.7853 16.5386 47.142C17.1632 47.4987 17.9543 47.6729 18.9036 47.6729C20.0112 47.6729 20.9522 47.424 21.7017 46.9346C22.4512 46.4452 23.0341 45.7649 23.4171 44.9105C23.8002 44.0561 24.0001 43.0939 24.0001 42.0155C24.0001 41.1279 23.8752 40.3647 23.6253 39.7177C23.3755 39.0707 23.0424 38.5232 22.6344 38.0919C22.2263 37.6605 21.7849 37.3121 21.3269 37.0715L21.3269 36.9471L23.6586 36.9471L23.6586 33.1313L12.3332 33.1313C11.209 33.1313 10.2763 33.3304 9.53513 33.7369C8.79398 34.1433 8.1944 34.6742 7.74471 35.3544L7.73638 35.3461ZM17.5795 37.0798C18.2041 37.0798 18.787 37.2374 19.3117 37.561C19.8363 37.8845 20.2693 38.3324 20.5858 38.9214C20.9022 39.5103 21.0605 40.1988 21.0605 41.0035C21.0605 41.8081 20.8772 42.5049 20.5025 43.0441C20.1278 43.5833 19.5698 43.8404 18.837 43.8404C18.3207 43.8404 17.9043 43.7077 17.5795 43.434C17.2548 43.1602 17.0049 42.7952 16.8134 42.3224C16.6219 41.8496 16.497 41.327 16.4137 40.7297C16.3804 40.4643 16.3471 40.1574 16.2888 39.8007C16.2305 39.444 16.1805 39.079 16.1056 38.7057C16.0306 38.3324 15.9557 38.0006 15.8724 37.7103C15.7891 37.4199 15.6892 37.2043 15.5893 37.0798L17.5712 37.0798L17.5795 37.0798Z" fill="#333230"/>
<path d="M10.3845 25.964C9.94318 25.3584 9.72667 24.645 9.72667 23.8321C9.72667 23.1851 9.85158 22.6293 10.1014 22.1647C10.3512 21.7002 10.701 21.3186 11.134 21.0283C11.5671 20.738 12.0584 20.5389 12.5997 20.4393L12.5997 16.6401C11.3755 16.7314 10.3096 17.0881 9.39356 17.7185C8.47753 18.3489 7.76969 19.1867 7.26171 20.2485C6.75373 21.3103 6.50391 22.5214 6.50391 23.8984C6.50391 25.5409 6.87865 26.9594 7.6198 28.1705C8.36095 29.3816 9.38524 30.3107 10.701 30.9577C12.0167 31.6047 13.5324 31.9365 15.2562 31.9365C16.98 31.9365 18.4706 31.613 19.7863 30.9743C21.1021 30.3355 22.1264 29.4065 22.8675 28.1954C23.6087 26.9843 23.9834 25.5492 23.9834 23.8653C23.9834 22.4551 23.7253 21.2274 23.2006 20.1822C22.676 19.137 21.9598 18.3075 21.0438 17.6936C20.1278 17.0798 19.0618 16.7314 17.8627 16.6401L17.8627 20.4393C18.7704 20.6135 19.4865 21.0034 19.9945 21.609C20.5025 22.2145 20.769 22.9611 20.769 23.8321C20.769 24.6533 20.5441 25.375 20.0945 25.9888C19.6448 26.6027 19.0035 27.0755 18.1708 27.4073C17.338 27.7391 16.3471 27.905 15.1979 27.905C14.0487 27.905 13.0743 27.7308 12.2582 27.3907C11.4421 27.0506 10.8092 26.5695 10.3762 25.964L10.3845 25.964Z" fill="#333230"/>
<path d="M15.0563 -0.000259691C13.574 -0.00025964 12.2915 0.207121 11.2173 0.621883C10.143 1.03664 9.25197 1.60072 8.56078 2.32241C7.8696 3.04409 7.35329 3.86533 7.01186 4.7944C6.67043 5.72346 6.51221 6.7106 6.51221 7.7475C6.51221 9.35678 6.87862 10.7587 7.61977 11.9449C8.36092 13.1311 9.38521 14.0519 10.701 14.7072C12.0167 15.3625 13.549 15.686 15.2978 15.686C17.0465 15.686 18.5955 15.3542 19.9029 14.6989C21.2103 14.0436 22.2096 13.0979 22.9258 11.8702C23.642 10.6425 23.9917 9.18257 23.9917 7.49864C23.9917 6.18799 23.7919 5.03495 23.3921 4.02293C22.9924 3.01092 22.4261 2.18139 21.6933 1.53436C20.9605 0.887335 20.1028 0.439392 19.1284 0.19883L18.6871 3.9068C19.1701 4.0893 19.5781 4.34645 19.9029 4.68656C20.2277 5.02666 20.4775 5.42483 20.6357 5.88936C20.7939 6.3539 20.8772 6.8765 20.8772 7.43228C20.8772 8.29498 20.6857 9.05815 20.3026 9.70518C19.9195 10.3522 19.3616 10.8582 18.6288 11.2149C17.9709 11.5301 17.1798 11.6877 16.2887 11.7209L16.2887 0.00804296L15.0479 0.008043L15.0563 -0.000259691ZM10.2263 9.89596C9.82657 9.29041 9.61838 8.56043 9.61838 7.70602C9.61838 6.85161 9.81824 6.13822 10.2263 5.56585C10.6343 4.99348 11.184 4.56213 11.9001 4.27179C12.3998 4.06441 12.991 3.95658 13.6156 3.89851L13.6156 11.6877C12.9827 11.638 12.3831 11.5135 11.8502 11.273C11.1673 10.9578 10.626 10.5015 10.218 9.90425L10.2263 9.89596Z" fill="#333230"/>
<path d="M9.42682 96.5566C8.46915 97.0377 7.74466 97.7428 7.25333 98.6055C6.77033 99.4517 6.52883 100.447 6.52051 101.584C6.52051 101.608 6.52051 102.297 6.63709 102.911C6.77033 103.649 6.98685 104.213 7.35326 104.752C7.91121 105.574 8.83556 106.204 9.72661 106.552L10.0264 106.677L6.73702 106.677L6.73702 110.41L23.6836 110.41L23.6836 106.677L23.7752 106.677L15.0812 106.677L13.8654 106.677C13.041 106.677 12.3415 106.527 11.7669 106.221C11.1923 105.914 10.7592 105.491 10.4594 104.951C10.1596 104.412 10.0014 103.832 10.0014 102.977C10.0014 101.965 10.4095 101.202 10.9674 100.696C11.6086 100.115 12.4914 99.8249 13.6239 99.8249L23.6836 99.8249L23.6836 95.8598L13.0077 95.8598C11.6586 95.8598 10.3928 96.1004 9.44347 96.5732L9.42682 96.5566Z" fill="#333230"/>
</svg>
