<svg width="236" height="1440" viewBox="0 0 236 1440" fill="none" xmlns="http://www.w3.org/2000/svg">
<path d="M0.119995 1125.42C0.119995 1131.61 2.166 1136.99 6.34 1141.4C10.514 1145.8 15.588 1148.08 21.563 1148.08C27.538 1148.08 32.449 1145.88 36.623 1141.4C40.797 1136.91 42.843 1131.61 42.843 1125.42C42.843 1119.22 40.797 1114 36.623 1109.52C32.449 1105.04 27.456 1102.83 21.563 1102.83C15.67 1102.83 10.514 1105.04 6.34 1109.52C2.166 1114 0.119995 1119.22 0.119995 1125.42ZM66.169 1106.01V1144.98H232.562V1106.01H66.169ZM201.951 845.776C202.278 847.814 202.36 849.689 202.36 851.401C202.36 857.597 200.805 862.163 197.695 865.016C194.585 867.87 189.101 869.337 182.554 869.337H96.534V836.563H66.169V869.337H26.637V908.308H66.251V931.625H96.615V908.308H189.019C203.179 908.308 215.046 903.905 223.231 895.1C231.416 886.295 235.999 874.229 235.999 858.739C235.999 854.499 235.672 850.26 235.017 846.02C234.362 841.781 232.889 837.541 231.661 833.383L200.969 840.069C201.378 841.781 201.706 843.656 202.033 845.694L201.951 845.776ZM84.257 702.122C77.382 709.215 72.389 717.286 69.034 726.417C65.678 735.548 64.123 745.25 64.123 755.441C64.123 771.258 67.724 785.036 75.008 796.695C82.293 808.353 92.36 817.403 105.292 823.844C118.223 830.284 133.283 833.464 150.47 833.464C167.658 833.464 182.881 830.203 195.731 823.762C208.581 817.321 218.403 808.027 225.441 795.961C232.48 783.895 235.918 769.546 235.918 752.995C235.918 740.114 233.953 728.781 230.025 718.835C226.096 708.889 220.531 700.736 213.328 694.376C206.126 688.017 197.696 683.615 188.12 681.25L183.782 717.694C188.529 719.487 192.539 722.015 195.731 725.357C198.923 728.7 201.379 732.613 202.934 737.179C204.489 741.744 205.307 746.881 205.307 752.343C205.307 760.822 203.425 768.323 199.66 774.682C195.895 781.041 190.411 786.014 183.209 789.52C176.743 792.618 168.968 794.167 160.21 794.493V679.375H148.015C133.447 679.375 120.842 681.413 110.284 685.49C99.726 689.566 90.968 695.11 84.175 702.203L84.257 702.122ZM100.626 776.639C96.698 770.687 94.652 763.513 94.652 755.115C94.652 746.718 96.616 739.706 100.626 734.081C104.637 728.455 110.039 724.216 117.077 721.362C121.988 719.324 127.799 718.264 133.938 717.694V794.249C127.717 793.76 121.824 792.537 116.586 790.172C109.875 787.074 104.555 782.59 100.544 776.72L100.626 776.639ZM96.533 467.728H66.168V502.296H53.401C46.853 502.296 41.778 500.747 38.177 497.649C34.576 494.551 32.857 489.333 32.857 482.159C32.857 478.979 33.103 476.207 33.676 473.68C34.249 471.152 34.822 469.196 35.394 467.565L5.03 459.576C4.13 462.021 3.147 465.935 2.083 471.234C1.02 476.533 0.445995 482.566 0.445995 489.415C0.445995 498.872 2.246 507.596 5.93 515.422C9.613 523.249 15.178 529.527 22.627 534.174C30.075 538.821 39.405 541.104 50.617 541.104H66.25V565.318C66.823 582.928 65.186 591.244 71.57 601.761C77.954 612.278 86.63 620.349 97.597 626.056H66.25V662.907H232.643V626.056H147.605C130.499 626.056 117.895 620.349 109.465 610.566C101.771 601.598 96.615 593.608 96.615 574.204V541.104H232.643V502.296H96.533V467.728ZM76.155 347.39C71.817 354 68.707 361.25 66.825 369.16C64.972 376.934 64.038 384.898 64.042 392.89C64.042 404.46 65.761 414.98 69.198 424.52C72.636 434.06 77.71 442.13 84.504 448.734C91.297 455.337 99.727 460.066 109.876 463.001L115.114 426.64C109.466 424.68 104.556 420.85 100.382 415.31C96.207 409.76 94.162 402.1 94.162 392.56C94.162 383.43 96.372 376.58 100.873 371.77C105.374 366.96 111.594 364.68 119.615 364.68H120.352C124.117 364.68 126.9 366.06 128.7 368.75C130.501 371.44 131.81 375.85 132.547 381.88C133.284 387.91 134.266 395.82 135.412 405.61C136.23 413.59 137.54 421.34 139.504 428.92C141.468 436.5 144.251 443.19 147.934 449.141C151.617 455.093 156.528 459.821 162.666 463.327C168.805 466.833 176.58 468.545 185.911 468.545C196.796 468.545 206.045 466.099 213.411 461.289C220.777 456.479 226.506 449.793 230.271 441.396C234.036 433 236 423.54 236 412.94C236 404.22 234.772 396.72 232.317 390.36C229.862 384 226.588 378.62 222.577 374.38C218.567 370.14 214.229 366.72 209.728 364.35V363.13H232.645V325.63H121.334C110.285 325.63 101.118 327.58 93.834 331.58C86.55 335.57 80.657 340.79 76.237 347.48L76.155 347.39ZM172.897 364.43C179.035 364.43 184.765 365.98 189.921 369.16C195.077 372.34 199.333 376.74 202.443 382.53C205.554 388.32 207.109 395.09 207.109 403C207.109 410.9 205.308 417.75 201.625 423.05C197.942 428.35 192.458 430.88 185.256 430.88C180.181 430.88 176.089 429.57 172.897 426.88C169.705 424.19 167.25 420.61 165.367 415.96C163.485 411.31 162.257 406.18 161.439 400.31C161.111 397.7 160.784 394.68 160.211 391.17C159.638 387.67 159.147 384.08 158.41 380.41C157.674 376.74 156.937 373.48 156.119 370.63C155.3 367.78 154.318 365.66 153.336 364.43H172.897ZM102.182 255.18C97.844 249.23 95.716 242.22 95.716 234.23C95.716 227.87 96.944 222.41 99.399 217.84C101.855 213.28 105.292 209.53 109.548 206.67C113.804 203.82 118.633 201.86 123.953 200.89V163.55C111.922 164.44 101.446 167.95 92.443 174.15C83.439 180.34 76.483 188.58 71.49 199.01C66.497 209.45 64.042 221.35 64.042 234.88C64.042 251.03 67.725 264.97 75.009 276.87C82.294 288.77 92.361 297.91 105.292 304.26C118.224 310.62 133.12 313.88 150.062 313.88C167.004 313.88 181.655 310.71 194.586 304.43C207.518 298.15 217.585 289.02 224.869 277.12C232.153 265.21 235.836 251.11 235.836 234.56C235.836 220.7 233.299 208.63 228.143 198.36C222.987 188.09 215.948 179.93 206.945 173.9C197.942 167.87 187.466 164.44 175.68 163.55V200.89C184.601 202.6 191.64 206.43 196.632 212.38C201.625 218.33 204.244 225.67 204.244 234.23C204.244 242.3 202.034 249.4 197.614 255.43C193.195 261.46 186.893 266.11 178.708 269.37C170.523 272.63 160.784 274.26 149.489 274.26C138.194 274.26 128.618 272.55 120.597 269.21C112.577 265.86 106.356 261.14 102.1 255.18H102.182ZM148.097 0C133.528 0 120.924 2.04004 110.366 6.12C99.808 10.1899 91.05 15.74 84.257 22.83C77.464 29.9199 72.389 37.99 69.034 47.12C65.678 56.26 64.123 65.9601 64.123 76.15C64.123 91.9601 67.724 105.74 75.008 117.4C82.293 129.06 92.36 138.11 105.292 144.55C118.223 150.99 133.283 154.17 150.47 154.17C167.658 154.17 182.881 150.91 195.731 144.47C208.581 138.03 218.403 128.73 225.441 116.67C232.48 104.6 235.918 90.25 235.918 73.7C235.918 60.8199 233.953 49.49 230.025 39.54C226.096 29.6001 220.531 21.4399 213.328 15.08C206.126 8.71997 197.696 4.31995 188.12 1.95996L183.782 38.4C188.529 40.1901 192.539 42.7201 195.731 46.0601C198.923 49.41 201.379 53.3201 202.934 57.89C204.489 62.4501 205.307 67.5901 205.307 73.05C205.307 81.53 203.425 89.03 199.66 95.39C195.895 101.75 190.411 106.72 183.209 110.23C176.743 113.33 168.968 114.87 160.21 115.2V0.0799561H148.015L148.097 0ZM100.626 97.26C96.698 91.3101 94.652 84.14 94.652 75.74C94.652 67.34 96.616 60.33 100.626 54.71C104.637 49.08 110.039 44.84 117.077 41.99C121.988 39.95 127.799 38.8899 133.938 38.3199V114.87C127.717 114.39 121.824 113.16 116.586 110.8C109.875 107.7 104.555 103.22 100.544 97.35L100.626 97.26ZM92.77 948.99C83.358 953.719 76.237 960.649 71.408 969.128C66.661 977.444 64.288 987.227 64.206 998.396C64.206 998.641 64.206 1005.41 65.351 1011.44C66.661 1018.7 68.789 1024.24 72.391 1029.54C77.874 1037.61 86.959 1043.81 95.716 1047.23L98.663 1048.45H66.333V1085.14H232.89V1048.45H233.79H136.394C128.291 1048.45 121.416 1046.99 115.768 1043.97C110.121 1040.95 105.865 1036.8 102.919 1031.5C99.972 1026.2 98.417 1020.49 98.417 1012.09C98.417 1002.15 102.428 994.646 107.911 989.673C114.213 983.966 122.889 981.112 134.02 981.112H232.89V942.142H127.964C114.704 942.142 102.264 944.506 92.934 949.153L92.77 948.99ZM107.877 1197.96C97.005 1200 89.804 1210.69 91.79 1221.84L100.937 1273.03L59.466 1243C50.437 1236.47 37.946 1238.67 31.573 1247.93C25.201 1257.18 27.346 1269.99 36.375 1276.53L90.988 1316.07L35.508 1341.73C26.43 1345.93 22.393 1356.88 26.488 1366.18C30.922 1375.28 41.961 1379.3 51.005 1375.11L113.981 1345.99L127.766 1423.17C129.761 1434.31 140.19 1441.7 151.058 1439.66C161.93 1437.62 169.131 1426.93 167.144 1415.78L157.998 1364.58L199.468 1394.61C208.497 1401.14 220.989 1398.94 227.362 1389.68C233.734 1380.43 231.588 1367.62 222.559 1361.08L167.542 1321.24L223.032 1295.59C232.111 1291.39 236.148 1280.44 232.054 1271.14C227.959 1261.84 217.284 1257.69 208.21 1261.89L144.893 1291.17L131.187 1214.45C129.193 1203.3 118.768 1195.92 107.896 1197.96H107.877Z" fill="#333230"/>
</svg>
