<svg width="1245" height="257" viewBox="0 0 1245 257" fill="none" xmlns="http://www.w3.org/2000/svg">
    <path d="M24.578.415c-6.72 0-12.554 2.218-17.328 6.745C2.476 11.686 0 17.19 0 23.668 0 30.148 2.387 35.473 7.25 40c4.862 4.527 10.609 6.746 17.328 6.746 6.72 0 12.378-2.22 17.24-6.746 4.863-4.526 7.25-9.94 7.25-16.33 0-6.391-2.387-11.983-7.25-16.51C36.956 2.634 31.298.416 24.578.416ZM45.62 72.042H3.36v180.439h42.26V72.042ZM327.827 219.282c-2.21.355-4.243.444-6.1.444-6.719 0-11.67-1.687-14.765-5.059-3.094-3.373-4.685-9.319-4.685-16.42v-93.281h35.541V72.038h-35.541v-42.87h-42.261v42.958h-25.285v32.928h25.285v100.205c0 15.354 4.775 28.224 14.323 37.099 9.548 8.876 22.633 13.846 39.431 13.846 4.597 0 9.195-.355 13.792-1.065 4.597-.71 9.195-2.308 13.704-3.639l-7.25-33.283c-1.857.444-3.89.799-6.1 1.154l-.089-.089ZM483.608 91.655c-7.691-7.455-16.444-12.87-26.346-16.508-9.902-3.64-20.423-5.326-31.474-5.326-17.152 0-32.093 3.906-44.736 11.805-12.643 7.899-22.456 18.816-29.441 32.839-6.984 14.023-10.432 30.354-10.432 48.993 0 18.638 3.536 35.147 10.521 49.081 6.984 13.935 17.063 24.585 30.148 32.218 13.084 7.633 28.645 11.361 46.592 11.361 13.969 0 26.258-2.13 37.044-6.39 10.786-4.261 19.627-10.296 26.523-18.106 6.896-7.811 11.67-16.953 14.234-27.337l-39.519-4.704c-1.945 5.148-4.686 9.497-8.311 12.958-3.625 3.462-7.868 6.124-12.819 7.811-4.951 1.686-10.521 2.574-16.445 2.574-9.194 0-17.328-2.042-24.224-6.125-6.896-4.082-12.289-10.029-16.091-17.839-3.36-7.012-5.039-15.444-5.393-24.94h124.836v-13.225c0-15.798-2.21-29.467-6.631-40.916-4.42-11.449-10.432-20.946-18.124-28.313l.088.089Zm-80.807 17.751c6.454-4.26 14.234-6.479 23.34-6.479 9.107 0 16.71 2.13 22.81 6.479 6.101 4.349 10.698 10.207 13.792 17.84 2.211 5.325 3.36 11.627 3.979 18.283h-83.018c.531-6.745 1.857-13.135 4.421-18.816 3.359-7.278 8.222-13.047 14.588-17.396l.088.089ZM737.788 104.966V72.038h-37.486V58.193c0-7.1 1.68-12.604 5.039-16.509 3.36-3.905 9.018-5.769 16.798-5.769 3.448 0 6.454.266 9.195.888 2.741.62 4.863 1.242 6.631 1.863l8.664-32.928c-2.652-.976-6.896-2.041-12.643-3.195C728.24 1.39 721.697.768 714.271.768c-10.256 0-19.716 1.953-28.203 5.947-8.488 3.994-15.295 10.029-20.335 18.106-5.039 8.076-7.515 18.194-7.515 30.354v16.952H631.96c-19.096.621-28.114-1.154-39.519 5.77-11.405 6.922-20.158 16.33-26.347 28.223V72.127h-39.961v180.439h39.961v-92.217c0-18.549 6.189-32.218 16.798-41.359 9.726-8.343 18.39-13.935 39.432-13.935h35.894v147.511h42.084v-147.6h37.486ZM868.282 82.869c-7.161-4.704-15.03-8.077-23.606-10.118a110.683 110.683 0 0 0-25.727-3.018c-12.554 0-23.959 1.864-34.303 5.591-10.344 3.728-19.097 9.231-26.258 16.598-7.162 7.366-12.289 16.508-15.472 27.514l39.431 5.68c2.122-6.124 6.277-11.449 12.289-15.976 6.012-4.526 14.322-6.745 24.667-6.745 9.902 0 17.328 2.396 22.544 7.278 5.216 4.881 7.692 11.627 7.692 20.325v.798c0 4.083-1.503 7.101-4.421 9.053-2.917 1.953-7.691 3.373-14.234 4.172-6.542.799-15.118 1.864-25.727 3.106-8.664.888-17.063 2.308-25.286 4.438-8.222 2.13-15.471 5.148-21.925 9.142-6.454 3.994-11.582 9.319-15.384 15.976-3.802 6.656-5.658 15.088-5.658 25.206 0 11.804 2.652 21.834 7.868 29.822 5.217 7.988 12.466 14.201 21.573 18.283 9.106 4.083 19.361 6.213 30.855 6.213 9.46 0 17.594-1.331 24.49-3.994 6.896-2.663 12.731-6.213 17.328-10.562 4.597-4.349 8.311-9.053 10.875-13.934h1.326v24.851h40.669V131.861c0-11.982-2.122-21.922-6.454-29.821-4.332-7.9-9.991-14.29-17.24-19.083l.088-.088Zm-18.478 104.908c0 6.657-1.68 12.869-5.128 18.461-3.448 5.592-8.222 10.207-14.499 13.58-6.277 3.372-13.615 5.059-22.191 5.059-8.576 0-16.002-1.953-21.749-5.947-5.747-3.994-8.487-9.941-8.487-17.751 0-5.503 1.414-9.941 4.332-13.402 2.917-3.461 6.807-6.124 11.847-8.165 5.039-2.042 10.609-3.373 16.975-4.261 2.829-.355 6.1-.71 9.901-1.331 3.802-.621 7.692-1.154 11.671-1.953 3.978-.798 7.515-1.597 10.609-2.485 3.094-.887 5.393-1.952 6.719-3.017v21.212ZM968.275 111.093c6.454-4.704 14.057-7.012 22.721-7.012 6.896 0 12.824 1.331 17.774 3.994 4.95 2.663 9.01 6.39 12.11 11.006 3.09 4.615 5.22 9.851 6.28 15.621h40.49c-.97-13.047-4.78-24.408-11.5-34.171-6.71-9.763-15.64-17.307-26.96-22.721-11.32-5.414-24.22-8.077-38.901-8.077-17.505 0-32.623 3.994-45.531 11.893-12.908 7.9-22.81 18.816-29.706 32.839-6.896 14.024-10.433 30.177-10.433 48.549 0 18.373 3.448 34.26 10.256 48.283 6.807 14.023 16.709 24.94 29.617 32.839 12.908 7.9 28.203 11.894 46.151 11.894 15.027 0 28.117-2.752 39.257-8.343 11.14-5.592 19.98-13.225 26.52-22.988 6.54-9.763 10.26-21.124 11.23-33.904h-40.49c-1.86 9.674-6.02 17.307-12.47 22.721-6.45 5.414-14.41 8.254-23.694 8.254-8.752 0-16.444-2.396-22.986-7.189-6.543-4.793-11.582-11.627-15.119-20.502-3.536-8.876-5.304-19.438-5.304-31.686 0-12.248 1.856-22.632 5.481-31.33 3.625-8.698 8.753-15.444 15.207-20.059v.089ZM1245 160.884c0-15.799-2.21-29.467-6.63-40.916-4.42-11.45-10.43-20.946-18.13-28.313-7.69-7.367-16.44-12.87-26.34-16.508-9.9-3.64-20.42-5.326-31.48-5.326-17.15 0-32.09 3.906-44.73 11.805-12.64 7.899-22.46 18.816-29.44 32.839-6.99 14.023-10.43 30.354-10.43 48.993 0 18.638 3.53 35.147 10.52 49.081 6.98 13.935 17.06 24.585 30.14 32.218 13.09 7.633 28.65 11.361 46.6 11.361 13.97 0 26.25-2.13 37.04-6.39 10.79-4.261 19.63-10.296 26.52-18.106 6.9-7.811 11.67-16.953 14.24-27.337l-39.52-4.704c-1.95 5.148-4.69 9.497-8.31 12.958-3.63 3.462-7.87 6.124-12.82 7.811-4.95 1.686-10.52 2.574-16.45 2.574-9.19 0-17.32-2.042-24.22-6.125-6.9-4.082-12.29-10.029-16.09-17.839-3.36-7.012-5.04-15.444-5.39-24.94h124.83v-13.225l.09.089Zm-105.47-51.478c6.45-4.26 14.23-6.479 23.34-6.479 9.1 0 16.71 2.13 22.81 6.479 6.1 4.349 10.69 10.207 13.79 17.84 2.21 5.325 3.36 11.627 3.98 18.283h-83.02c.53-6.745 1.86-13.135 4.42-18.816 3.36-7.278 8.22-13.047 14.59-17.396l.09.089ZM215.899 100.885c-5.128-10.207-12.643-17.928-21.838-23.165-9.018-5.148-19.627-7.722-31.739-7.81-.265 0-7.603 0-14.146 1.242-7.868 1.42-13.88 3.728-19.627 7.633-8.753 5.947-15.472 15.799-19.185 25.295l-1.326 3.196V72.217H68.253v180.617h39.785v.976-105.618c0-8.787 1.591-16.243 4.862-22.367 3.272-6.124 7.78-10.739 13.527-13.934 5.747-3.195 11.936-4.882 21.042-4.882 10.786 0 18.92 4.349 24.313 10.296 6.189 6.834 9.283 16.242 9.283 28.313v107.216h42.26V139.05c0-14.379-2.564-27.869-7.603-37.987l.177-.178Z" fill="#333230"/>
</svg>
