<svg width="1440" height="236" viewBox="0 0 1440 236" fill="none" xmlns="http://www.w3.org/2000/svg">
    <path d="M314.582.12c-6.196 0-11.577 2.046-15.98 6.22-4.402 4.174-6.685 9.248-6.685 15.223 0 5.975 2.201 10.886 6.685 15.06 4.484 4.174 9.784 6.22 15.98 6.22s11.414-2.046 15.898-6.22c4.484-4.174 6.685-9.167 6.685-15.06 0-5.893-2.201-11.049-6.685-15.223-4.484-4.174-9.702-6.22-15.898-6.22ZM333.986 66.169h-38.97v166.393h38.97V66.169ZM594.224 201.951c-2.038.327-3.913.409-5.625.409-6.196 0-10.762-1.555-13.615-4.665-2.854-3.11-4.321-8.594-4.321-15.141v-86.02h32.774V66.169h-32.774V26.637h-38.971v39.614h-23.317v30.364h23.317v92.404c0 14.16 4.403 26.027 13.208 34.212 8.805 8.185 20.871 12.768 36.361 12.768 4.24 0 8.479-.327 12.719-.982 4.239-.655 8.479-2.128 12.637-3.356l-6.686-30.692c-1.712.409-3.587.737-5.625 1.064l-.082-.082ZM737.878 84.257c-7.093-6.875-15.164-11.868-24.295-15.223-9.131-3.356-18.833-4.911-29.024-4.911-15.817 0-29.595 3.601-41.254 10.885-11.658 7.285-20.708 17.352-27.149 30.284-6.44 12.931-9.62 27.991-9.62 45.178 0 17.188 3.261 32.411 9.702 45.261 6.441 12.85 15.735 22.672 27.801 29.71 12.066 7.039 26.415 10.477 42.966 10.477 12.881 0 24.214-1.965 34.16-5.893 9.946-3.929 18.099-9.494 24.459-16.697 6.359-7.202 10.761-15.632 13.126-25.208l-36.444-4.338c-1.793 4.747-4.321 8.757-7.663 11.949-3.343 3.192-7.256 5.648-11.822 7.203-4.565 1.555-9.702 2.373-15.164 2.373-8.479 0-15.98-1.882-22.339-5.647-6.359-3.765-11.332-9.249-14.838-16.451-3.098-6.466-4.647-14.241-4.973-22.999h115.118v-12.195c0-14.568-2.038-27.173-6.115-37.731-4.076-10.558-9.62-19.316-16.713-26.109l.081.082Zm-74.517 16.369c5.952-3.928 13.126-5.974 21.524-5.974 8.397 0 15.409 1.964 21.034 5.974 5.626 4.011 9.865 9.413 12.719 16.451 2.038 4.911 3.098 10.722 3.668 16.861h-76.555c.489-6.221 1.712-12.114 4.077-17.352 3.098-6.711 7.582-12.031 13.452-16.042l.081.082ZM972.272 96.533V66.168h-34.568V53.401c0-6.548 1.549-11.623 4.647-15.224 3.098-3.601 8.316-5.32 15.49-5.32 3.18 0 5.952.246 8.479.819 2.528.573 4.484 1.146 6.115 1.718l7.989-30.364c-2.445-.9-6.359-1.883-11.658-2.947C963.467 1.02 957.434.446 950.585.446c-9.457 0-18.181 1.8-26.007 5.484-7.827 3.683-14.105 9.248-18.752 16.697-4.647 7.448-6.93 16.778-6.93 27.99V66.25h-24.214c-17.61.573-25.926-1.064-36.443 5.32s-18.588 15.06-24.295 26.027V66.25h-36.851v166.393h36.851v-85.038c0-17.106 5.707-29.71 15.49-38.14 8.968-7.694 16.958-12.85 36.362-12.85h33.1v136.028h38.808V96.533h34.568ZM1092.61 76.155c-6.61-4.338-13.86-7.448-21.77-9.33a102.125 102.125 0 0 0-23.73-2.783c-11.57 0-22.09 1.719-31.63 5.156-9.54 3.438-17.61 8.512-24.214 15.306-6.603 6.793-11.332 15.223-14.267 25.372l36.361 5.238c1.96-5.648 5.79-10.558 11.33-14.732 5.55-4.175 13.21-6.22 22.75-6.22 9.13 0 15.98 2.21 20.79 6.711 4.81 4.501 7.09 10.721 7.09 18.742v.737c0 3.765-1.38 6.548-4.07 8.348-2.69 1.801-7.1 3.11-13.13 3.847-6.03.737-13.94 1.719-23.73 2.865-7.98.818-15.73 2.128-23.31 4.092-7.58 1.964-14.27 4.747-20.221 8.43-5.952 3.683-10.68 8.594-14.186 14.732-3.506 6.139-5.218 13.914-5.218 23.245 0 10.885 2.446 20.134 7.256 27.5 4.81 7.366 11.496 13.095 19.893 16.86C1007 234.036 1016.46 236 1027.06 236c8.72 0 16.22-1.228 22.58-3.683 6.36-2.455 11.74-5.729 15.98-9.74 4.24-4.01 7.66-8.348 10.03-12.849h1.22v22.917h37.5V121.334c0-11.049-1.95-20.216-5.95-27.5-3.99-7.284-9.21-13.177-15.9-17.597l.09-.082Zm-17.04 96.742c0 6.138-1.55 11.868-4.73 17.024-3.18 5.156-7.58 9.412-13.37 12.522-5.79 3.111-12.56 4.666-20.47 4.666-7.9 0-14.75-1.801-20.05-5.484-5.3-3.683-7.83-9.167-7.83-16.369 0-5.075 1.31-9.167 4-12.359s6.27-5.647 10.92-7.53c4.65-1.882 9.78-3.11 15.65-3.928 2.61-.328 5.63-.655 9.14-1.228 3.5-.573 7.09-1.064 10.76-1.801 3.67-.736 6.93-1.473 9.78-2.291 2.85-.819 4.97-1.801 6.2-2.783v19.561ZM1184.82 102.182c5.95-4.338 12.96-6.466 20.95-6.466 6.36 0 11.82 1.228 16.39 3.683 4.56 2.456 8.31 5.893 11.17 10.149 2.85 4.256 4.81 9.085 5.78 14.405h37.34c-.89-12.031-4.4-22.507-10.6-31.51-6.19-9.004-14.43-15.96-24.86-20.953-10.44-4.993-22.34-7.448-35.87-7.448-16.15 0-30.09 3.683-41.99 10.967-11.9 7.285-21.04 17.352-27.39 30.283-6.36 12.932-9.62 27.828-9.62 44.77 0 16.942 3.17 31.593 9.45 44.524 6.28 12.932 15.41 22.999 27.31 30.283 11.91 7.284 26.01 10.967 42.56 10.967 13.86 0 25.93-2.537 36.2-7.693 10.27-5.156 18.43-12.195 24.46-21.198 6.03-9.003 9.46-19.479 10.35-31.265h-37.34c-1.71 8.921-5.54 15.96-11.49 20.952-5.95 4.993-13.29 7.612-21.85 7.612-8.07 0-15.17-2.21-21.2-6.63-6.03-4.419-10.68-10.721-13.94-18.906-3.26-8.185-4.89-17.924-4.89-29.219 0-11.295 1.71-20.871 5.05-28.892 3.35-8.02 8.07-14.241 14.03-18.497v.082ZM1440 148.097c0-14.569-2.04-27.173-6.12-37.731-4.07-10.558-9.62-19.316-16.71-26.109-7.09-6.793-15.16-11.868-24.29-15.223-9.14-3.356-18.84-4.911-29.03-4.911-15.81 0-29.59 3.601-41.25 10.885-11.66 7.285-20.71 17.352-27.15 30.284-6.44 12.931-9.62 27.991-9.62 45.178 0 17.188 3.26 32.411 9.7 45.261 6.44 12.85 15.74 22.672 27.8 29.71 12.07 7.039 26.42 10.477 42.97 10.477 12.88 0 24.21-1.965 34.16-5.893 9.94-3.929 18.1-9.494 24.46-16.697 6.36-7.202 10.76-15.632 13.12-25.208l-36.44-4.338c-1.79 4.747-4.32 8.757-7.66 11.949-3.35 3.192-7.26 5.648-11.83 7.203-4.56 1.555-9.7 2.373-15.16 2.373-8.48 0-15.98-1.882-22.34-5.647-6.36-3.765-11.33-9.249-14.84-16.451-3.1-6.466-4.64-14.241-4.97-22.999h115.12v-12.195l.08.082Zm-97.26-47.471c5.95-3.928 13.12-5.974 21.52-5.974s15.41 1.964 21.03 5.974c5.63 4.011 9.87 9.413 12.72 16.451 2.04 4.911 3.1 10.722 3.67 16.861h-76.55c.48-6.221 1.71-12.114 4.07-17.352 3.1-6.711 7.58-12.031 13.45-16.042l.09.082ZM491.01 92.77c-4.729-9.412-11.659-16.533-20.138-21.362-8.316-4.747-18.099-7.12-29.268-7.202-.245 0-7.012 0-13.045 1.145-7.256 1.31-12.8 3.438-18.099 7.04-8.072 5.483-14.268 14.568-17.692 23.325l-1.223 2.947v-32.33h-36.688V232.89h36.688v.9-97.396c0-8.103 1.468-14.978 4.484-20.626 3.017-5.647 7.175-9.903 12.474-12.849 5.299-2.947 11.006-4.502 19.404-4.502 9.946 0 17.447 4.011 22.42 9.494 5.707 6.302 8.561 14.978 8.561 26.109v98.87h38.97V127.964c0-13.26-2.364-25.7-7.011-35.03l.163-.164ZM242.043 107.877c-2.039-10.872-12.736-18.073-23.881-16.087l-51.19 9.147 30.025-41.471c6.534-9.029 4.332-21.52-4.924-27.893-9.256-6.372-22.066-4.227-28.599 4.802l-39.54 54.613-25.669-55.48c-4.197-9.078-15.145-13.115-24.444-9.02-9.102 4.434-13.122 15.473-8.936 24.517l29.121 62.976-77.175 13.785C5.686 129.761-1.698 140.19.337 151.058c2.047 10.872 12.736 18.073 23.88 16.086l51.199-9.146-30.025 41.47c-6.533 9.029-4.332 21.521 4.924 27.894 9.256 6.372 22.066 4.226 28.6-4.803l39.84-55.017 25.657 55.49c4.198 9.079 15.146 13.116 24.445 9.022 9.306-4.095 13.45-14.77 9.252-23.844l-29.279-63.317 76.72-13.706c11.145-1.994 18.528-12.419 16.493-23.291v-.019Z" fill="#ffd371"/>
</svg>
