<svg width="1440" height="236" viewBox="0 0 1440 236" fill="none" xmlns="http://www.w3.org/2000/svg">
<path d="M314.582 0.119629C308.386 0.119629 303.005 2.16578 298.602 6.33991C294.2 10.5141 291.917 15.5885 291.917 21.5632C291.917 27.538 294.118 32.4487 298.602 36.6229C303.086 40.797 308.386 42.8432 314.582 42.8432C320.778 42.8432 325.996 40.797 330.48 36.6229C334.964 32.4487 337.165 27.4561 337.165 21.5632C337.165 15.6703 334.964 10.5141 330.48 6.33991C325.996 2.16578 320.778 0.119629 314.582 0.119629Z" fill="#FFD371"/>
<path d="M333.986 66.1689H295.016V232.562H333.986V66.1689Z" fill="#FFD371"/>
<path d="M594.224 201.951C592.186 202.278 590.311 202.36 588.599 202.36C582.403 202.36 577.837 200.805 574.984 197.695C572.13 194.585 570.663 189.101 570.663 182.554V96.5336H603.437V66.1688H570.663V26.6372H531.692V66.2506H508.375V96.6154H531.692V189.019C531.692 203.179 536.095 215.046 544.9 223.231C553.705 231.416 565.771 235.999 581.261 235.999C585.501 235.999 589.74 235.672 593.98 235.017C598.219 234.362 602.459 232.889 606.617 231.661L599.931 200.969C598.219 201.378 596.344 201.706 594.306 202.033L594.224 201.951Z" fill="#FFD371"/>
<path d="M737.878 84.2571C730.785 77.3821 722.714 72.3895 713.583 69.0338C704.452 65.6781 694.75 64.123 684.559 64.123C668.742 64.123 654.964 67.7243 643.305 75.0085C631.647 82.2928 622.597 92.3599 616.156 105.292C609.716 118.223 606.536 133.283 606.536 150.47C606.536 167.658 609.797 182.881 616.238 195.731C622.679 208.581 631.973 218.403 644.039 225.441C656.105 232.48 670.454 235.918 687.005 235.918C699.886 235.918 711.219 233.953 721.165 230.025C731.111 226.096 739.264 220.531 745.624 213.328C751.983 206.126 756.385 197.696 758.75 188.12L722.306 183.782C720.513 188.529 717.985 192.539 714.643 195.731C711.3 198.923 707.387 201.379 702.821 202.934C698.256 204.489 693.119 205.307 687.657 205.307C679.178 205.307 671.677 203.425 665.318 199.66C658.959 195.895 653.986 190.411 650.48 183.209C647.382 176.743 645.833 168.968 645.507 160.21H760.625V148.015C760.625 133.447 758.587 120.842 754.51 110.284C750.434 99.726 744.89 90.9685 737.797 84.1753L737.878 84.2571ZM663.361 100.626C669.313 96.6977 676.487 94.6516 684.885 94.6516C693.282 94.6516 700.294 96.6159 705.919 100.626C711.545 104.637 715.784 110.039 718.638 117.077C720.676 121.988 721.736 127.799 722.306 133.938H645.751C646.24 127.717 647.463 121.824 649.828 116.586C652.926 109.875 657.41 104.555 663.28 100.544L663.361 100.626Z" fill="#FFD371"/>
<path d="M972.272 96.5333V66.1685H937.704V53.4006C937.704 46.8529 939.253 41.7785 942.351 38.1772C945.449 34.576 950.667 32.8573 957.841 32.8573C961.021 32.8573 963.793 33.1028 966.32 33.6757C968.848 34.2486 970.804 34.8216 972.435 35.3945L980.424 5.02966C977.979 4.12935 974.065 3.1472 968.766 2.08321C963.467 1.01921 957.434 0.446289 950.585 0.446289C941.128 0.446289 932.404 2.2469 924.578 5.92996C916.751 9.61303 910.473 15.1785 905.826 22.6265C901.179 30.0745 898.896 39.4049 898.896 50.6178V66.2504H874.682C857.072 66.8233 848.756 65.1864 838.239 71.5704C827.722 77.9543 819.651 86.63 813.944 97.5973V66.2504H777.093V232.643H813.944V147.605C813.944 130.499 819.651 117.895 829.434 109.465C838.402 101.771 846.392 96.6152 865.796 96.6152H898.896V232.643H937.704V96.5333H972.272Z" fill="#FFD371"/>
<path d="M1092.61 76.1552C1086 71.8174 1078.75 68.7072 1070.84 66.8247C1062.93 64.9423 1055.02 64.042 1047.11 64.042C1035.54 64.042 1025.02 65.7608 1015.48 69.1983C1005.94 72.6358 997.87 77.7103 991.266 84.5035C984.663 91.2967 979.934 99.7268 976.999 109.876L1013.36 115.114C1015.32 109.466 1019.15 104.556 1024.69 100.382C1030.24 96.2074 1037.9 94.1613 1047.44 94.1613C1056.57 94.1613 1063.42 96.3711 1068.23 100.873C1073.04 105.374 1075.32 111.594 1075.32 119.615V120.352C1075.32 124.117 1073.94 126.9 1071.25 128.7C1068.56 130.501 1064.15 131.81 1058.12 132.547C1052.09 133.284 1044.18 134.266 1034.39 135.412C1026.41 136.23 1018.66 137.54 1011.08 139.504C1003.5 141.468 996.81 144.251 990.859 147.934C984.907 151.617 980.179 156.528 976.673 162.666C973.167 168.805 971.455 176.58 971.455 185.911C971.455 196.796 973.901 206.045 978.711 213.411C983.521 220.777 990.207 226.506 998.604 230.271C1007 234.036 1016.46 236 1027.06 236C1035.78 236 1043.28 234.772 1049.64 232.317C1056 229.862 1061.38 226.588 1065.62 222.577C1069.86 218.567 1073.28 214.229 1075.65 209.728H1076.87V232.645H1114.37V121.334C1114.37 110.285 1112.42 101.118 1108.42 93.8339C1104.43 86.5496 1099.21 80.6567 1092.52 76.237L1092.61 76.1552ZM1075.57 172.897C1075.57 179.035 1074.02 184.765 1070.84 189.921C1067.66 195.077 1063.26 199.333 1057.47 202.443C1051.68 205.554 1044.91 207.109 1037 207.109C1029.1 207.109 1022.25 205.308 1016.95 201.625C1011.65 197.942 1009.12 192.458 1009.12 185.256C1009.12 180.181 1010.43 176.089 1013.12 172.897C1015.81 169.705 1019.39 167.25 1024.04 165.367C1028.69 163.485 1033.82 162.257 1039.69 161.439C1042.3 161.111 1045.32 160.784 1048.83 160.211C1052.33 159.638 1055.92 159.147 1059.59 158.41C1063.26 157.674 1066.52 156.937 1069.37 156.119C1072.22 155.3 1074.34 154.318 1075.57 153.336V172.815V172.897Z" fill="#FFD371"/>
<path d="M1184.82 102.182C1190.77 97.8443 1197.78 95.7163 1205.77 95.7163C1212.13 95.7163 1217.59 96.944 1222.16 99.3994C1226.72 101.855 1230.47 105.292 1233.33 109.548C1236.18 113.804 1238.14 118.633 1239.11 123.953H1276.45C1275.56 111.922 1272.05 101.446 1265.85 92.4425C1259.66 83.4395 1251.42 76.4826 1240.99 71.49C1230.55 66.4974 1218.65 64.042 1205.12 64.042C1188.97 64.042 1175.03 67.7251 1163.13 75.0093C1151.23 82.2936 1142.09 92.3607 1135.74 105.292C1129.38 118.224 1126.12 133.12 1126.12 150.062C1126.12 167.004 1129.29 181.655 1135.57 194.586C1141.85 207.518 1150.98 217.585 1162.88 224.869C1174.79 232.153 1188.89 235.836 1205.44 235.836C1219.3 235.836 1231.37 233.299 1241.64 228.143C1251.91 222.987 1260.07 215.948 1266.1 206.945C1272.13 197.942 1275.56 187.466 1276.45 175.68H1239.11C1237.4 184.601 1233.57 191.64 1227.62 196.632C1221.67 201.625 1214.33 204.244 1205.77 204.244C1197.7 204.244 1190.6 202.034 1184.57 197.614C1178.54 193.195 1173.89 186.893 1170.63 178.708C1167.37 170.523 1165.74 160.784 1165.74 149.489C1165.74 138.194 1167.45 128.618 1170.79 120.597C1174.14 112.577 1178.86 106.356 1184.82 102.1V102.182Z" fill="#FFD371"/>
<path d="M1440 148.097C1440 133.528 1437.96 120.924 1433.88 110.366C1429.81 99.8078 1424.26 91.0503 1417.17 84.2571C1410.08 77.4639 1402.01 72.3895 1392.88 69.0338C1383.74 65.6781 1374.04 64.123 1363.85 64.123C1348.04 64.123 1334.26 67.7243 1322.6 75.0085C1310.94 82.2928 1301.89 92.3599 1295.45 105.292C1289.01 118.223 1285.83 133.283 1285.83 150.47C1285.83 167.658 1289.09 182.881 1295.53 195.731C1301.97 208.581 1311.27 218.403 1323.33 225.441C1335.4 232.48 1349.75 235.918 1366.3 235.918C1379.18 235.918 1390.51 233.953 1400.46 230.025C1410.4 226.096 1418.56 220.531 1424.92 213.328C1431.28 206.126 1435.68 197.696 1438.04 188.12L1401.6 183.782C1399.81 188.529 1397.28 192.539 1393.94 195.731C1390.59 198.923 1386.68 201.379 1382.11 202.934C1377.55 204.489 1372.41 205.307 1366.95 205.307C1358.47 205.307 1350.97 203.425 1344.61 199.66C1338.25 195.895 1333.28 190.411 1329.77 183.209C1326.67 176.743 1325.13 168.968 1324.8 160.21H1439.92V148.015L1440 148.097ZM1342.74 100.626C1348.69 96.6977 1355.86 94.6516 1364.26 94.6516C1372.66 94.6516 1379.67 96.6159 1385.29 100.626C1390.92 104.637 1395.16 110.039 1398.01 117.077C1400.05 121.988 1401.11 127.799 1401.68 133.938H1325.13C1325.61 127.717 1326.84 121.824 1329.2 116.586C1332.3 109.875 1336.78 104.555 1342.65 100.544L1342.74 100.626Z" fill="#FFD371"/>
<path d="M491.01 92.7698C486.281 83.3575 479.351 76.2369 470.872 71.408C462.556 66.6609 452.773 64.2874 441.604 64.2056C441.359 64.2056 434.592 64.2056 428.559 65.3514C421.303 66.6609 415.759 68.7889 410.46 72.3902C402.388 77.8738 396.192 86.9587 392.768 95.7162L391.545 98.6627V66.3336H354.857V232.89H391.545V233.79V148.343V136.394C391.545 128.291 393.013 121.416 396.029 115.768C399.046 110.121 403.204 105.865 408.503 102.919C413.802 99.9722 419.509 98.4171 427.907 98.4171C437.853 98.4171 445.354 102.428 450.327 107.911C456.034 114.213 458.888 122.889 458.888 134.02V232.89H497.858V127.964C497.858 114.704 495.494 102.264 490.847 92.9335L491.01 92.7698Z" fill="#FFD371"/>
<path d="M242.043 107.877C240.004 97.0049 229.307 89.8036 218.162 91.7903L166.972 100.937L196.997 59.466C203.531 50.437 201.329 37.9455 192.073 31.573C182.817 25.2005 170.007 27.3461 163.474 36.3751L123.934 90.988L98.2654 35.5085C94.0677 26.4303 83.1199 22.3926 73.821 26.4871C64.719 30.9221 60.6991 41.9605 64.8851 51.0046L94.006 113.981L16.8305 127.766C5.68571 129.761 -1.6978 140.19 0.337302 151.058C2.38399 161.93 13.0731 169.131 24.2179 167.144L75.4159 157.998L45.3914 199.468C38.8575 208.497 41.0586 220.989 50.315 227.362C59.5714 233.734 72.3806 231.588 78.9145 222.559L118.755 167.542L144.412 223.032C148.61 232.111 159.558 236.148 168.857 232.054C178.163 227.959 182.307 217.284 178.109 208.21L148.83 144.893L225.55 131.187C236.695 129.193 244.078 118.768 242.043 107.896V107.881V107.877Z" fill="#FFD371"/>
</svg>
