<svg width="40" height="40" viewBox="0 0 40 40" fill="none" xmlns="http://www.w3.org/2000/svg">
<path fill-rule="evenodd" clip-rule="evenodd" d="M20 5.33334C21.6569 5.33334 23 6.67648 23 8.33334V17H31.6667C33.3235 17 34.6667 18.3432 34.6667 20C34.6667 21.6569 33.3235 23 31.6667 23H23V31.6667C23 33.3235 21.6569 34.6667 20 34.6667C18.3431 34.6667 17 33.3235 17 31.6667V23H8.33333C6.67647 23 5.33333 21.6569 5.33333 20C5.33333 18.3432 6.67647 17 8.33333 17H17V8.33334C17 6.67648 18.3431 5.33334 20 5.33334Z" fill="#333230"/>
</svg>
