<svg width="18" height="17" viewBox="0 0 18 17" fill="none" xmlns="http://www.w3.org/2000/svg">
<path fill-rule="evenodd" clip-rule="evenodd" d="M8.47115 0.437764C8.80623 0.281381 9.19335 0.281381 9.52843 0.437764C9.81524 0.571616 9.97758 0.80277 10.0614 0.933487C10.1464 1.06587 10.2336 1.23397 10.3177 1.39579C10.3221 1.40428 10.3265 1.41275 10.3309 1.42121L11.5342 3.73733L14.1233 3.2285C14.3022 3.19331 14.4881 3.15674 14.6445 3.1406C14.799 3.12466 15.081 3.10746 15.3644 3.24824C15.6956 3.41271 15.937 3.71538 16.0236 4.07485C16.0978 4.38254 16.0183 4.65359 15.9684 4.80065C15.9178 4.94959 15.8408 5.12266 15.7667 5.28925L14.6945 7.70025L16.7066 9.4073C16.8457 9.52522 16.9902 9.64773 17.1003 9.75998C17.2091 9.87082 17.3983 10.0805 17.465 10.3899C17.5429 10.7514 17.4568 11.1288 17.2297 11.4207C17.0354 11.6705 16.774 11.7774 16.6279 11.83C16.4799 11.8834 16.2966 11.9311 16.1201 11.977C16.1109 11.9794 16.1016 11.9818 16.0924 11.9842L13.5666 12.6419L13.4865 15.2794C13.481 15.4617 13.4753 15.651 13.4562 15.8071C13.4374 15.9613 13.3914 16.24 13.1911 16.485C12.9571 16.7713 12.6083 16.9392 12.2385 16.9437C11.9221 16.9476 11.6755 16.8098 11.5432 16.7284C11.4093 16.6459 11.2577 16.5323 11.1117 16.423L8.99979 14.8412L6.88783 16.423C6.74191 16.5323 6.59032 16.6459 6.45636 16.7284C6.32409 16.8098 6.07753 16.9476 5.76105 16.9437C5.39131 16.9392 5.04252 16.7713 4.80847 16.485C4.60815 16.24 4.56218 15.9613 4.54334 15.8071C4.52427 15.651 4.51856 15.4616 4.51307 15.2794L4.43299 12.6419L1.87947 11.977C1.70302 11.9311 1.5197 11.8834 1.37173 11.83C1.22563 11.7774 0.96415 11.6705 0.769834 11.4207C0.54281 11.1288 0.456667 10.7514 0.534567 10.3899C0.601243 10.0805 0.790476 9.87082 0.899256 9.75998C1.00943 9.64772 1.15391 9.5252 1.29298 9.40727C1.30026 9.40109 1.30754 9.39492 1.31479 9.38877L3.30509 7.70025L2.24451 5.31539C2.24065 5.30669 2.23677 5.29797 2.23288 5.28923C2.15875 5.12265 2.08175 4.94959 2.03119 4.80065C1.98128 4.65359 1.90177 4.38254 1.97594 4.07485C2.06259 3.71537 2.30396 3.41271 2.63515 3.24824C2.91861 3.10746 3.20056 3.12466 3.35504 3.1406C3.5115 3.15674 3.69735 3.19331 3.87625 3.22851C3.88564 3.23035 3.895 3.23219 3.90434 3.23403L6.46541 3.73733L7.66871 1.42121C7.6731 1.41276 7.6775 1.40429 7.6819 1.39581C7.76593 1.23399 7.85322 1.06588 7.93815 0.933486C8.022 0.802769 8.18435 0.571616 8.47115 0.437764ZM8.99979 2.47426L7.88684 4.61648C7.88223 4.62535 7.87697 4.63576 7.87104 4.6475C7.81466 4.75917 7.69755 4.99109 7.50221 5.15761C7.33824 5.2974 7.14092 5.39242 6.92939 5.43347C6.67741 5.48236 6.42307 5.42932 6.30061 5.40378C6.28773 5.4011 6.27631 5.39871 6.26651 5.39679L3.89774 4.93128L4.87868 7.13707C4.88274 7.1462 4.8876 7.15681 4.89309 7.16876C4.94524 7.28247 5.05354 7.51863 5.06194 7.77517C5.069 7.99053 5.02026 8.20405 4.92047 8.39502C4.80159 8.62251 4.60154 8.78829 4.50522 8.86811C4.49509 8.8765 4.48611 8.88395 4.47849 8.89041L2.63763 10.4521L4.9738 11.0605C4.98347 11.063 4.99479 11.0658 5.00756 11.069C5.12897 11.0991 5.38113 11.1617 5.58695 11.3151C5.75972 11.4438 5.89627 11.6151 5.98336 11.8122C6.0871 12.0469 6.09198 12.3067 6.09433 12.4318C6.09458 12.4449 6.0948 12.4566 6.0951 12.4666L6.16837 14.8795L8.10058 13.4324C8.10858 13.4264 8.11783 13.4193 8.12827 13.4113C8.22753 13.3351 8.43366 13.177 8.6819 13.1117C8.89029 13.0569 9.1093 13.0569 9.31768 13.1117C9.56593 13.177 9.77207 13.3351 9.87132 13.4113C9.88175 13.4193 9.89101 13.4264 9.899 13.4324L11.8312 14.8795L11.9045 12.4666C11.9048 12.4566 11.905 12.4449 11.9052 12.4318C11.9076 12.3067 11.9125 12.0469 12.0162 11.8122C12.1033 11.6151 12.2399 11.4438 12.4126 11.3151C12.6184 11.1617 12.8706 11.0991 12.992 11.069C13.0048 11.0658 13.0161 11.063 13.0258 11.0605L15.3619 10.4522L13.5211 8.89041C13.5135 8.88395 13.5045 8.8765 13.4944 8.86811C13.398 8.78829 13.198 8.62251 13.0791 8.39502C12.9793 8.20405 12.9306 7.99053 12.9376 7.77517C12.946 7.51863 13.0543 7.28247 13.1065 7.16876C13.112 7.15681 13.1168 7.1462 13.1209 7.13707L14.1018 4.93128L11.7331 5.39679C11.7233 5.39871 11.7118 5.4011 11.699 5.40378C11.5765 5.42932 11.3222 5.48236 11.0702 5.43347C10.8587 5.39242 10.6613 5.2974 10.4974 5.15761C10.302 4.99109 10.1849 4.75917 10.1285 4.6475C10.1226 4.63576 10.1174 4.62535 10.1127 4.61648L8.99979 2.47426Z" fill="white"/>
</svg>
