<svg width="16" height="19" viewBox="0 0 16 19" fill="none" xmlns="http://www.w3.org/2000/svg">
<path d="M6.402 0.529945C5.57237 0.685539 5.02284 1.50181 5.17444 2.35227L5.8724 6.2586L2.70778 3.96743C2.01877 3.46883 1.06555 3.6368 0.579261 4.34315C0.0929742 5.04951 0.256706 6.02698 0.945709 6.52558L5.11322 9.54285L0.879581 11.5016C0.186824 11.8219 -0.121292 12.6574 0.191156 13.367C0.529593 14.0615 1.37193 14.3683 2.06209 14.0489L6.86778 11.8267L7.91977 17.7159C8.07195 18.5664 8.8678 19.1298 9.69714 18.9745C10.5268 18.8183 11.0763 18.0026 10.9247 17.1522L10.2267 13.2453L13.3914 15.5364C14.0804 16.035 15.0336 15.8671 15.5199 15.1607C16.0062 14.4543 15.8424 13.4769 15.1534 12.9783L10.955 9.93802L15.1895 7.98014C15.8823 7.65982 16.1904 6.82439 15.878 6.11479C15.5655 5.40461 14.7509 5.08841 14.0584 5.40873L9.22674 7.64302L8.18082 1.78854C8.02863 0.938081 7.23308 0.374647 6.40344 0.529945L6.40229 0.529945L6.402 0.529945Z" fill="#333230"/>
</svg>
