<?xml version="1.0" encoding="UTF-8"?>
<svg width="98px" height="98px" viewBox="0 0 98 98" version="1.1" xmlns="http://www.w3.org/2000/svg" xmlns:xlink="http://www.w3.org/1999/xlink">
    <title>tickets-2</title>
    <g id="Page-1" stroke="none" stroke-width="1" fill="none" fill-rule="evenodd">
        <g id="tickets-2" transform="translate(48.9973, 48.994) rotate(-45) translate(-48.9973, -48.994)translate(-8.9995, -3.9073)" fill="#000000" fill-rule="nonzero">
            <path d="M99.4238258,77.6719923 L99.4355747,64.4825926 C99.4193792,63.944609 99.2123133,63.3371543 98.8105599,62.9789438 C98.4088508,62.6207282 97.8782673,62.3195337 97.3402837,62.3357292 C94.7792404,62.3596855 92.3679377,61.3781155 90.5826487,59.5560678 C88.7973733,57.7339824 87.8499386,55.3689093 87.8260199,52.8078796 C87.8091729,47.5889794 92.1348324,43.3108387 97.3538198,43.2938106 C97.8918033,43.2776151 98.499258,43.0705492 98.8574686,42.6687957 C99.2156791,42.2670422 99.5168787,41.7365032 99.5006832,41.1985196 L99.5124321,28.0091198 C99.4962367,27.4711363 99.2891708,26.8636816 98.8874173,26.5054711 C98.4856638,26.1472605 97.9551247,25.8460609 97.4171412,25.8622564 L18.7104931,26.0524686 C17.5390532,26.0501103 16.565988,26.9763196 16.5649602,28.1439871 L16.5532112,41.3333868 C16.550853,42.5048267 17.4770623,43.477892 18.6447298,43.4789198 C23.86363,43.4620728 28.1417707,47.7877323 28.1587988,53.0067197 C28.1756458,58.2256199 23.8499863,62.5037607 18.6309989,62.5207888 C17.459559,62.5184305 16.4864938,63.4446398 16.485466,64.6123073 L16.4737171,77.801707 C16.4899125,78.3396906 16.6969784,78.9471453 17.0987319,79.3053558 C17.3466371,79.5036638 17.5958761,79.698307 17.8748521,79.799846 C18.0620576,79.8679832 18.3446984,79.970856 18.5666395,79.9435581 L97.1165524,79.9091346 C98.3921877,79.7690443 99.3401559,78.9201465 99.4177865,77.8235079 L99.4238258,77.6719923 Z M65.7517594,67.6804123 L58.3541249,63.0397981 L58.1919883,62.9857299 C58.0540833,62.9478985 57.9057116,62.937162 57.7207062,63.021258 L50.4135729,67.5989392 C49.0289805,68.4792712 47.3553477,67.2299307 47.7145929,65.6604909 L49.6820715,57.3310835 C49.7502087,57.143878 49.6311404,56.8885351 49.4786704,56.7249627 L42.8917171,51.1349744 C41.7255424,50.09036 42.2727965,48.1752387 43.77672,48.0090378 L52.5443607,47.4109892 C52.7663018,47.3836913 52.9298743,47.2312213 52.9980115,47.0440157 L56.2225727,39.0640285 C56.8443469,37.6427616 58.8447524,37.6206355 59.4557553,38.9475911 L62.77648,47.0861925 C62.803778,47.3081336 63.0827539,47.4096725 63.2736243,47.4791437 L71.8941259,48.0644257 C73.5354121,48.237794 74.2075804,50.1826163 72.9791843,51.2279196 L66.3726032,56.804654 C66.2090308,56.957124 66.1408935,57.1443295 66.1668576,57.3699355 L68.2158625,65.7769409 C68.724969,67.2048965 67.098154,68.4546344 65.7517594,67.6804123 L65.7517594,67.6804123 Z" id="Shape"></path>
        </g>
    </g>
</svg>