<?xml version="1.0" encoding="UTF-8"?>
<svg width="86px" height="100px" viewBox="0 0 86 100" version="1.1" xmlns="http://www.w3.org/2000/svg" xmlns:xlink="http://www.w3.org/1999/xlink">
    <title>tickets</title>
    <g id="Page-1" stroke="none" stroke-width="1" fill="none" fill-rule="evenodd">
        <g id="tickets" transform="translate(42.9972, 49.9991) rotate(-55) translate(-42.9972, -49.9991)translate(1.4778, 22.9559)" fill="#000000" fill-rule="nonzero">
            <path d="M82.9501087,51.8103601 L82.9618576,38.6209604 C82.9456621,38.0829768 82.7385962,37.4755221 82.3368428,37.1173116 C81.9351337,36.759096 81.4045502,36.4579015 80.8665666,36.474097 C78.3055233,36.4980533 75.8942206,35.5164833 74.1089316,33.6944356 C72.3236562,31.8723502 71.3762215,29.5072771 71.3523028,26.9462474 C71.3354558,21.7273472 75.6611153,17.4492065 80.8801027,17.4321784 C81.4180862,17.4159829 82.0255409,17.208917 82.3837515,16.8071635 C82.741962,16.40541 83.0431616,15.874871 83.0269661,15.3368874 L83.038715,2.14748759 C83.0225196,1.60950409 82.8154537,1.00204939 82.4137002,0.643838891 C82.0119467,0.285628291 81.4814076,-0.015571309 80.9434241,0.000624190972 L2.236776,0.190836391 C1.0653361,0.188478091 0.0922709,1.11468739 0.0912431,2.28235489 L0.0794941,15.4717546 C0.0771359,16.6431945 1.0033452,17.6162598 2.1710127,17.6172876 C7.3899129,17.6004406 11.6680536,21.9261001 11.6850817,27.1450875 C11.7019287,32.3639877 7.3762692,36.6421285 2.1572818,36.6591566 C0.9858419,36.6567983 0.0127767,37.5830076 0.0117489,38.7506751 L0,51.9400748 C0.0161954,52.4780584 0.2232613,53.0855131 0.6250148,53.4437236 C0.87292,53.6420316 1.122159,53.8366748 1.401135,53.9382138 C1.5883405,54.006351 1.8709813,54.1092238 2.0929224,54.0819259 L80.6428353,54.0475024 C81.9184706,53.9074121 82.8664388,53.0585143 82.9440694,51.9618757 L82.9501087,51.8103601 Z M28.7849858,34.8583836 L33.4256,27.4607491 L33.4796682,27.2986125 C33.5174996,27.1607075 33.5282361,27.0123358 33.4441401,26.8273304 L28.8664589,19.5201971 C27.9861269,18.1356047 29.2354674,16.4619719 30.8049072,16.8212171 L39.1343146,18.7886957 C39.3215201,18.8568329 39.576863,18.7377646 39.7404354,18.5852946 L45.3304237,11.9983413 C46.3750381,10.8321666 48.2901594,11.3794207 48.4563603,12.8833442 L49.0544089,21.6509849 C49.0817068,21.872926 49.2341768,22.0364985 49.4213824,22.1046357 L57.4013696,25.3291969 C58.8226365,25.9509711 58.8447626,27.9513766 57.517807,28.5623795 L49.3792056,31.8831042 C49.1572645,31.9104022 49.0557256,32.1893781 48.9862544,32.3802485 L48.4009724,41.0007501 C48.2276041,42.6420363 46.2827818,43.3142046 45.2374785,42.0858085 L39.6607441,35.4792274 C39.5082741,35.315655 39.3210686,35.2475177 39.0954626,35.2734818 L30.6884572,37.3224867 C29.2605016,37.8315932 28.0107637,36.2047782 28.7849858,34.8583836 L28.7849858,34.8583836 Z" id="Shape"></path>
        </g>
    </g>
</svg>
